<?xml version="1.0" encoding="UTF-8" standalone="no"?>
<!DOCTYPE svg PUBLIC "-//W3C//DTD SVG 1.1//EN"
 "http://www.w3.org/Graphics/SVG/1.1/DTD/svg11.dtd">
<!-- Generated by graphviz version 2.49.3 (0)
 -->
<!-- Title: Predefined names for common modifiers and LEDs Pages: 1 -->
<svg width="310pt" height="150pt"
 viewBox="0.00 0.00 310.00 150.00" xmlns="http://www.w3.org/2000/svg" xmlns:xlink="http://www.w3.org/1999/xlink">
<g id="graph0" class="graph" transform="scale(1 1) rotate(0) translate(4 146)">
<title>Predefined names for common modifiers and LEDs</title>
<!-- Node5 -->
<g id="Node000005" class="node">
<title>Node5</title>
<g id="a_Node000005"><a xlink:href="group__led-names.html" target="_top" xlink:title="LEDs names are encoded in xkeyboard&#45;config, in the keycodes and compat files.">
<polygon fill="white" stroke="#666666" points="279,-142 205,-142 205,-123 279,-123 279,-142"/>
<text text-anchor="middle" x="242" y="-130" font-family="Helvetica,sans-Serif" font-size="10.00">LEDs names</text>
</a>
</g>
</g>
<!-- Node4 -->
<g id="Node000004" class="node">
<title>Node4</title>
<g id="a_Node000004"><a xlink:href="group__legacy-virtual-modifier-names.html" target="_top" xlink:title="Usual virtual modifiers mappings to real modifiers.">
<polygon fill="white" stroke="#666666" points="300,-104.5 184,-104.5 184,-74.5 300,-74.5 300,-104.5"/>
<text text-anchor="start" x="192" y="-92.5" font-family="Helvetica,sans-Serif" font-size="10.00">Legacy virtual modifier</text>
<text text-anchor="middle" x="242" y="-81.5" font-family="Helvetica,sans-Serif" font-size="10.00"> names</text>
</a>
</g>
</g>
<!-- Node1 -->
<g id="Node000001" class="node">
<title>Node1</title>
<g id="a_Node000001"><a xlink:title=" ">
<polygon fill="#999999" stroke="#666666" points="146,-82.5 0,-82.5 0,-52.5 146,-52.5 146,-82.5"/>
<text text-anchor="start" x="8" y="-70.5" font-family="Helvetica,sans-Serif" font-size="10.00">Predefined names for</text>
<text text-anchor="middle" x="73" y="-59.5" font-family="Helvetica,sans-Serif" font-size="10.00"> common modifiers and LEDs</text>
</a>
</g>
</g>
<!-- Node1&#45;&gt;Node5 -->
<g id="edge4" class="edge">
<title>Node1&#45;&gt;Node5</title>
<path fill="none" stroke="black" d="M116.58,-86.69C136.31,-95.32 160.18,-105.36 182,-113.5 190.87,-116.81 200.62,-120.09 209.59,-122.97"/>
<polygon fill="black" stroke="black" points="117.81,-83.41 107.25,-82.59 114.99,-89.82 117.81,-83.41"/>
</g>
<!-- Node1&#45;&gt;Node4 -->
<g id="edge3" class="edge">
<title>Node1&#45;&gt;Node4</title>
<path fill="none" stroke="black" d="M156.37,-78.35C165.71,-79.58 175.06,-80.81 183.96,-81.99"/>
<polygon fill="black" stroke="black" points="156.65,-74.86 146.28,-77.02 155.73,-81.8 156.65,-74.86"/>
</g>
<!-- Node2 -->
<g id="Node000002" class="node">
<title>Node2</title>
<g id="a_Node000002"><a xlink:href="group__real-modifier-names.html" target="_top" xlink:title="Real modifiers names are hardcoded in libxkbcommon.">
<polygon fill="white" stroke="#666666" points="297.5,-56 186.5,-56 186.5,-37 297.5,-37 297.5,-56"/>
<text text-anchor="middle" x="242" y="-44" font-family="Helvetica,sans-Serif" font-size="10.00">Real modifiers names</text>
</a>
</g>
</g>
<!-- Node1&#45;&gt;Node2 -->
<g id="edge1" class="edge">
<title>Node1&#45;&gt;Node2</title>
<path fill="none" stroke="black" d="M156.44,-57.13C166.64,-55.85 176.86,-54.57 186.49,-53.35"/>
<polygon fill="black" stroke="black" points="155.76,-53.69 146.28,-58.41 156.64,-60.64 155.76,-53.69"/>
</g>
<!-- Node3 -->
<g id="Node000003" class="node">
<title>Node3</title>
<g id="a_Node000003"><a xlink:href="group__virtual-modifier-names.html" target="_top" xlink:title="Common virtual modifiers, encoded in xkeyboard&#45;config in the compat and symbols files.">
<polygon fill="white" stroke="#666666" points="302,-19 182,-19 182,0 302,0 302,-19"/>
<text text-anchor="middle" x="242" y="-7" font-family="Helvetica,sans-Serif" font-size="10.00">Virtual modifiers names</text>
</a>
</g>
</g>
<!-- Node1&#45;&gt;Node3 -->
<g id="edge2" class="edge">
<title>Node1&#45;&gt;Node3</title>
<path fill="none" stroke="black" d="M124.18,-48.97C142.34,-42.37 163.05,-34.97 182,-28.5 191.27,-25.34 201.4,-22.02 210.61,-19.06"/>
<polygon fill="black" stroke="black" points="122.85,-45.73 114.65,-52.44 125.25,-52.3 122.85,-45.73"/>
</g>
</g>
</svg>
