<?xml version="1.0" encoding="UTF-8" standalone="no"?>
<!DOCTYPE svg PUBLIC "-//W3C//DTD SVG 1.1//EN"
 "http://www.w3.org/Graphics/SVG/1.1/DTD/svg11.dtd">
<!-- Generated by graphviz version 2.49.3 (0)
 -->
<!-- Title: include/xkbcommon/xkbcommon&#45;x11.h Pages: 1 -->
<svg width="698pt" height="159pt"
 viewBox="0.00 0.00 698.00 159.00" xmlns="http://www.w3.org/2000/svg" xmlns:xlink="http://www.w3.org/1999/xlink">
<g id="graph0" class="graph" transform="scale(1 1) rotate(0) translate(4 155)">
<title>include/xkbcommon/xkbcommon&#45;x11.h</title>
<!-- Node1 -->
<g id="Node000001" class="node">
<title>Node1</title>
<g id="a_Node000001"><a xlink:title="libxkbcommon&#45;x11 API &#45; Additional X11 support for xkbcommon.">
<polygon fill="#999999" stroke="#666666" points="255,-151 95,-151 95,-121 255,-121 255,-151"/>
<text text-anchor="start" x="103" y="-139" font-family="Helvetica,sans-Serif" font-size="10.00">include/xkbcommon/xkbcommon</text>
<text text-anchor="middle" x="175" y="-128" font-family="Helvetica,sans-Serif" font-size="10.00">&#45;x11.h</text>
</a>
</g>
</g>
<!-- Node2 -->
<g id="Node000002" class="node">
<title>Node2</title>
<g id="a_Node000002"><a xlink:title=" ">
<polygon fill="#e0e0e0" stroke="#999999" points="147,-85 89,-85 89,-66 147,-66 147,-85"/>
<text text-anchor="middle" x="118" y="-73" font-family="Helvetica,sans-Serif" font-size="10.00">xcb/xcb.h</text>
</a>
</g>
</g>
<!-- Node1&#45;&gt;Node2 -->
<g id="edge1_Node000001_Node000002" class="edge">
<title>Node1&#45;&gt;Node2</title>
<g id="a_edge1_Node000001_Node000002"><a xlink:title=" ">
<path fill="none" stroke="#63b8ff" d="M161.2,-120.84C152.93,-112.35 142.38,-101.52 133.77,-92.69"/>
<polygon fill="#63b8ff" stroke="#63b8ff" points="136.03,-89.99 126.54,-85.27 131.01,-94.87 136.03,-89.99"/>
</a>
</g>
</g>
<!-- Node3 -->
<g id="Node000003" class="node">
<title>Node3</title>
<g id="a_Node000003"><a xlink:href="xkbcommon_8h.html" target="_top" xlink:title="Main libxkbcommon API.">
<polygon fill="white" stroke="#666666" points="299,-85 165,-85 165,-66 299,-66 299,-85"/>
<text text-anchor="middle" x="232" y="-73" font-family="Helvetica,sans-Serif" font-size="10.00">xkbcommon/xkbcommon.h</text>
</a>
</g>
</g>
<!-- Node1&#45;&gt;Node3 -->
<g id="edge2_Node000001_Node000003" class="edge">
<title>Node1&#45;&gt;Node3</title>
<g id="a_edge2_Node000001_Node000003"><a xlink:title=" ">
<path fill="none" stroke="#63b8ff" d="M188.8,-120.84C197.07,-112.35 207.62,-101.52 216.23,-92.69"/>
<polygon fill="#63b8ff" stroke="#63b8ff" points="218.99,-94.87 223.46,-85.27 213.97,-89.99 218.99,-94.87"/>
</a>
</g>
</g>
<!-- Node4 -->
<g id="Node000004" class="node">
<title>Node4</title>
<g id="a_Node000004"><a xlink:title=" ">
<polygon fill="#e0e0e0" stroke="#999999" points="56,-24.5 0,-24.5 0,-5.5 56,-5.5 56,-24.5"/>
<text text-anchor="middle" x="28" y="-12.5" font-family="Helvetica,sans-Serif" font-size="10.00">stdbool.h</text>
</a>
</g>
</g>
<!-- Node3&#45;&gt;Node4 -->
<g id="edge3_Node000003_Node000004" class="edge">
<title>Node3&#45;&gt;Node4</title>
<g id="a_edge3_Node000003_Node000004"><a xlink:title=" ">
<path fill="none" stroke="#63b8ff" d="M195.86,-65.99C161.83,-57.72 109.56,-44.33 65,-30 63.09,-29.39 61.13,-28.73 59.16,-28.05"/>
<polygon fill="#63b8ff" stroke="#63b8ff" points="59.99,-24.62 49.39,-24.51 57.61,-31.21 59.99,-24.62"/>
</a>
</g>
</g>
<!-- Node5 -->
<g id="Node000005" class="node">
<title>Node5</title>
<g id="a_Node000005"><a xlink:title=" ">
<polygon fill="#e0e0e0" stroke="#999999" points="123.5,-24.5 74.5,-24.5 74.5,-5.5 123.5,-5.5 123.5,-24.5"/>
<text text-anchor="middle" x="99" y="-12.5" font-family="Helvetica,sans-Serif" font-size="10.00">stdint.h</text>
</a>
</g>
</g>
<!-- Node3&#45;&gt;Node5 -->
<g id="edge4_Node000003_Node000005" class="edge">
<title>Node3&#45;&gt;Node5</title>
<g id="a_edge4_Node000003_Node000005"><a xlink:title=" ">
<path fill="none" stroke="#63b8ff" d="M212.66,-65.99C190.3,-56.16 153.29,-39.88 127.6,-28.58"/>
<polygon fill="#63b8ff" stroke="#63b8ff" points="128.93,-25.34 118.36,-24.52 126.11,-31.75 128.93,-25.34"/>
</a>
</g>
</g>
<!-- Node6 -->
<g id="Node000006" class="node">
<title>Node6</title>
<g id="a_Node000006"><a xlink:title=" ">
<polygon fill="#e0e0e0" stroke="#999999" points="188,-24.5 142,-24.5 142,-5.5 188,-5.5 188,-24.5"/>
<text text-anchor="middle" x="165" y="-12.5" font-family="Helvetica,sans-Serif" font-size="10.00">stdio.h</text>
</a>
</g>
</g>
<!-- Node3&#45;&gt;Node6 -->
<g id="edge5_Node000003_Node000006" class="edge">
<title>Node3&#45;&gt;Node6</title>
<g id="a_edge5_Node000003_Node000006"><a xlink:title=" ">
<path fill="none" stroke="#63b8ff" d="M222.11,-65.87C211.72,-56.8 195.16,-42.34 182.55,-31.32"/>
<polygon fill="#63b8ff" stroke="#63b8ff" points="184.76,-28.61 174.93,-24.67 180.16,-33.88 184.76,-28.61"/>
</a>
</g>
</g>
<!-- Node7 -->
<g id="Node000007" class="node">
<title>Node7</title>
<g id="a_Node000007"><a xlink:title=" ">
<polygon fill="#e0e0e0" stroke="#999999" points="258,-24.5 206,-24.5 206,-5.5 258,-5.5 258,-24.5"/>
<text text-anchor="middle" x="232" y="-12.5" font-family="Helvetica,sans-Serif" font-size="10.00">stdarg.h</text>
</a>
</g>
</g>
<!-- Node3&#45;&gt;Node7 -->
<g id="edge6_Node000003_Node000007" class="edge">
<title>Node3&#45;&gt;Node7</title>
<g id="a_edge6_Node000003_Node000007"><a xlink:title=" ">
<path fill="none" stroke="#63b8ff" d="M232,-65.87C232,-57.75 232,-45.31 232,-34.89"/>
<polygon fill="#63b8ff" stroke="#63b8ff" points="235.5,-34.67 232,-24.67 228.5,-34.67 235.5,-34.67"/>
</a>
</g>
</g>
<!-- Node8 -->
<g id="Node000008" class="node">
<title>Node8</title>
<g id="a_Node000008"><a xlink:href="xkbcommon-names_8h.html" target="_top" xlink:title="Predefined names for common modifiers and LEDs.">
<polygon fill="white" stroke="#666666" points="402,-30 276,-30 276,0 402,0 402,-30"/>
<text text-anchor="start" x="284" y="-18" font-family="Helvetica,sans-Serif" font-size="10.00">xkbcommon/xkbcommon</text>
<text text-anchor="middle" x="339" y="-7" font-family="Helvetica,sans-Serif" font-size="10.00">&#45;names.h</text>
</a>
</g>
</g>
<!-- Node3&#45;&gt;Node8 -->
<g id="edge7_Node000003_Node000008" class="edge">
<title>Node3&#45;&gt;Node8</title>
<g id="a_edge7_Node000003_Node000008"><a xlink:title=" ">
<path fill="none" stroke="#63b8ff" d="M247.79,-65.87C262.58,-57.78 285.18,-45.42 304.19,-35.03"/>
<polygon fill="#63b8ff" stroke="#63b8ff" points="306.09,-37.98 313.18,-30.11 302.73,-31.84 306.09,-37.98"/>
</a>
</g>
</g>
<!-- Node9 -->
<g id="Node000009" class="node">
<title>Node9</title>
<g id="a_Node000009"><a xlink:href="xkbcommon-keysyms_8h.html" target="_top" xlink:title="Key symbols (keysyms) definitions.">
<polygon fill="white" stroke="#666666" points="546,-30 420,-30 420,0 546,0 546,-30"/>
<text text-anchor="start" x="428" y="-18" font-family="Helvetica,sans-Serif" font-size="10.00">xkbcommon/xkbcommon</text>
<text text-anchor="middle" x="483" y="-7" font-family="Helvetica,sans-Serif" font-size="10.00">&#45;keysyms.h</text>
</a>
</g>
</g>
<!-- Node3&#45;&gt;Node9 -->
<g id="edge8_Node000003_Node000009" class="edge">
<title>Node3&#45;&gt;Node9</title>
<g id="a_edge8_Node000003_Node000009"><a xlink:title=" ">
<path fill="none" stroke="#63b8ff" d="M268.5,-65.99C306.2,-57.21 365.97,-43.27 412.86,-32.35"/>
<polygon fill="#63b8ff" stroke="#63b8ff" points="413.71,-35.74 422.66,-30.06 412.12,-28.93 413.71,-35.74"/>
</a>
</g>
</g>
<!-- Node10 -->
<g id="Node000010" class="node">
<title>Node10</title>
<g id="a_Node000010"><a xlink:title=" ">
<polygon fill="#e0e0e0" stroke="#999999" points="690,-30 564,-30 564,0 690,0 690,-30"/>
<text text-anchor="start" x="572" y="-18" font-family="Helvetica,sans-Serif" font-size="10.00">xkbcommon/xkbcommon</text>
<text text-anchor="middle" x="627" y="-7" font-family="Helvetica,sans-Serif" font-size="10.00">&#45;compat.h</text>
</a>
</g>
</g>
<!-- Node3&#45;&gt;Node10 -->
<g id="edge9_Node000003_Node000010" class="edge">
<title>Node3&#45;&gt;Node10</title>
<g id="a_edge9_Node000003_Node000010"><a xlink:title=" ">
<path fill="none" stroke="#63b8ff" d="M299.28,-66.33C362.5,-58.4 459.97,-45.54 553.87,-30.13"/>
<polygon fill="#63b8ff" stroke="#63b8ff" points="554.52,-33.57 563.82,-28.49 553.38,-26.67 554.52,-33.57"/>
</a>
</g>
</g>
</g>
</svg>
