<?xml version="1.0" encoding="UTF-8" standalone="no"?>
<!DOCTYPE svg PUBLIC "-//W3C//DTD SVG 1.1//EN"
 "http://www.w3.org/Graphics/SVG/1.1/DTD/svg11.dtd">
<!-- Generated by graphviz version 12.2.1 (0)
 -->
<!-- Pages: 1 -->
<svg width="634pt" height="237pt"
 viewBox="0.00 0.00 634.25 236.83" xmlns="http://www.w3.org/2000/svg" xmlns:xlink="http://www.w3.org/1999/xlink">
<g id="graph0" class="graph" transform="scale(1 1) rotate(0) translate(4 232.83)">
<polygon fill="white" stroke="none" points="-4,4 -4,-232.83 630.25,-232.83 630.25,4 -4,4"/>
<!-- database -->
<g id="node1" class="node">
<title>database</title>
<polygon fill="none" stroke="black" points="8,-167.5 8,-194.75 148.5,-194.75 148.5,-167.5 8,-167.5"/>
<text text-anchor="start" x="13" y="-177.45" font-family="Times,serif" font-weight="bold" font-size="14.00">Layout Database</text>
<g id="a_node1_0"><a xlink:href="rule-file-format.html" target="_top" xlink:title="&lt;TABLE&gt;">
<polygon fill="none" stroke="black" points="8,-140.25 8,-167.5 148.5,-167.5 148.5,-140.25 8,-140.25"/>
<text text-anchor="start" x="41.5" y="-149.2" font-family="Times,serif" font-size="14.00">Rules files</text>
</a>
</g>
<g id="a_node1_1"><a xlink:href="keymap-text-format-v1.html#keycode-def" target="_top" xlink:title="&lt;TABLE&gt;">
<polygon fill="none" stroke="black" points="8,-113 8,-140.25 148.5,-140.25 148.5,-113 8,-113"/>
<text text-anchor="start" x="28" y="-121.95" font-family="Times,serif" font-size="14.00">Keycodes files</text>
</a>
</g>
<g id="a_node1_2"><a xlink:href="keymap-text-format-v1.html#key-action-def" target="_top" xlink:title="&lt;TABLE&gt;">
<polygon fill="none" stroke="black" points="8,-85.75 8,-113 148.5,-113 148.5,-85.75 8,-85.75"/>
<text text-anchor="start" x="33.62" y="-94.7" font-family="Times,serif" font-size="14.00">Compat files</text>
</a>
</g>
<polygon fill="none" stroke="black" points="8,-58.5 8,-85.75 148.5,-85.75 148.5,-58.5 8,-58.5"/>
<text text-anchor="start" x="20.88" y="-67.45" font-family="Times,serif" font-size="14.00">(Geometry files)</text>
<g id="a_node1_3"><a xlink:href="keymap-text-format-v1.html#keysym-def" target="_top" xlink:title="&lt;TABLE&gt;">
<polygon fill="none" stroke="black" points="8,-31.25 8,-58.5 148.5,-58.5 148.5,-31.25 8,-31.25"/>
<text text-anchor="start" x="31" y="-40.2" font-family="Times,serif" font-size="14.00">Symbols files</text>
</a>
</g>
<g id="a_node1_4"><a xlink:href="keymap-text-format-v1.html#key-type-def" target="_top" xlink:title="&lt;TABLE&gt;">
<polygon fill="none" stroke="black" points="8,-4 8,-31.25 148.5,-31.25 148.5,-4 8,-4"/>
<text text-anchor="start" x="26.5" y="-12.95" font-family="Times,serif" font-size="14.00">Key types files</text>
</a>
</g>
<polygon fill="black" stroke="black" points="8,-167.5 8,-167.5 148.5,-167.5 148.5,-167.5 8,-167.5"/>
</g>
<!-- server -->
<g id="node2" class="node">
<title>server</title>
<path fill="none" stroke="black" d="M383.75,-117.38C383.75,-117.38 340.75,-117.38 340.75,-117.38 334.75,-117.38 328.75,-111.38 328.75,-105.38 328.75,-105.38 328.75,-93.38 328.75,-93.38 328.75,-87.38 334.75,-81.38 340.75,-81.38 340.75,-81.38 383.75,-81.38 383.75,-81.38 389.75,-81.38 395.75,-87.38 395.75,-93.38 395.75,-93.38 395.75,-105.38 395.75,-105.38 395.75,-111.38 389.75,-117.38 383.75,-117.38"/>
<text text-anchor="start" x="336.75" y="-95.7" font-family="Times,serif" font-weight="bold" font-size="14.00">Server</text>
</g>
<!-- database&#45;&gt;server -->
<g id="edge1" class="edge">
<title>database:keycodes&#45;&gt;server</title>
<path fill="none" stroke="black" d="M149.5,-126.62C159.64,-126.62 155.71,-139.31 165,-143.38 228.22,-171.01 256.98,-170.9 320.25,-143.38 328.73,-139.68 336.25,-133.28 342.46,-126.48"/>
<polygon fill="black" stroke="black" points="344.97,-128.94 348.64,-119 339.57,-124.48 344.97,-128.94"/>
<g id="a_edge1&#45;label"><a xlink:href="keymap-text-format-v1.html#the-xkb_keycodes-section" target="_top" xlink:title="&lt;i&gt;xkb_keycodes&lt;/i&gt; section">
<text text-anchor="start" x="165" y="-169.01" font-family="Times,serif" font-style="italic" font-size="14.00">xkb_keycodes</text>
<text text-anchor="start" x="262.5" y="-169.01" font-family="Times,serif" font-size="14.00"> section</text>
</a>
</g>
</g>
<!-- database&#45;&gt;server -->
<g id="edge2" class="edge">
<title>database:compat&#45;&gt;server</title>
<path fill="none" stroke="black" d="M149.5,-99.38C157.95,-99.38 156.95,-107.81 165,-110.38 227.4,-130.27 249.58,-120.52 317.05,-110.6"/>
<polygon fill="black" stroke="black" points="317.37,-114.09 326.78,-109.23 316.39,-107.16 317.37,-114.09"/>
<g id="a_edge2&#45;label"><a xlink:href="keymap-text-format-v1.html#the-xkb_compat-section" target="_top" xlink:title="&lt;i&gt;xkb_compat&lt;/i&gt; section">
<text text-anchor="start" x="171.38" y="-126.98" font-family="Times,serif" font-style="italic" font-size="14.00">xkb_compat</text>
<text text-anchor="start" x="256.12" y="-126.98" font-family="Times,serif" font-size="14.00"> section</text>
</a>
</g>
</g>
<!-- database&#45;&gt;server -->
<g id="edge3" class="edge">
<title>database:symbols&#45;&gt;server</title>
<path fill="none" stroke="black" d="M149.5,-44.88C226.09,-44.88 249.51,-38.77 320.25,-68.12 324.32,-69.81 328.34,-72.01 332.18,-74.45"/>
<polygon fill="black" stroke="black" points="329.85,-77.09 340.04,-80.02 333.9,-71.38 329.85,-77.09"/>
<g id="a_edge3&#45;label"><a xlink:href="keymap-text-format-v1.html#the-xkb_symbols-section" target="_top" xlink:title="&lt;i&gt;xkb_symbols&lt;/i&gt; section">
<text text-anchor="start" x="168.38" y="-73.08" font-family="Times,serif" font-style="italic" font-size="14.00">xkb_symbols</text>
<text text-anchor="start" x="259.12" y="-73.08" font-family="Times,serif" font-size="14.00"> section</text>
</a>
</g>
</g>
<!-- database&#45;&gt;server -->
<g id="edge4" class="edge">
<title>database:types&#45;&gt;server</title>
<path fill="none" stroke="black" d="M149.5,-17.62C225.48,-17.62 255.68,13.92 320.25,-26.12 336.25,-36.05 346.54,-54.61 352.81,-70.56"/>
<polygon fill="black" stroke="black" points="349.39,-71.37 356.03,-79.63 355.98,-69.03 349.39,-71.37"/>
<g id="a_edge4&#45;label"><a xlink:href="keymap-text-format-v1.html#the-xkb_types-section" target="_top" xlink:title="&lt;i&gt;xkb_types&lt;/i&gt; section">
<text text-anchor="start" x="178.12" y="-31.07" font-family="Times,serif" font-style="italic" font-size="14.00">xkb_types</text>
<text text-anchor="start" x="249.38" y="-31.07" font-family="Times,serif" font-size="14.00"> section</text>
</a>
</g>
</g>
<!-- server&#45;&gt;database -->
<g id="edge5" class="edge">
<title>server:n&#45;&gt;database:rules</title>
<path fill="none" stroke="black" d="M362.25,-118.38C362.25,-153.52 351,-168.36 320.25,-185.38 259.88,-218.78 223.58,-221.84 165,-185.38 156.72,-180.22 158.83,-169.21 157.77,-161.67"/>
<polygon fill="black" stroke="black" points="160.28,-159.22 150.6,-154.91 155.48,-164.32 160.28,-159.22"/>
<g id="a_edge5&#45;label"><a xlink:href="xkb-intro.html#RMLVO-intro" target="_top" xlink:title="Rules, Model, Layout, Variant, Options">
<text text-anchor="start" x="216" y="-215.53" font-family="Times,serif" font-size="14.00">RMLVO</text>
</a>
</g>
</g>
<!-- client -->
<g id="node3" class="node">
<title>client</title>
<path fill="none" stroke="black" d="M614.25,-117.38C614.25,-117.38 574.25,-117.38 574.25,-117.38 568.25,-117.38 562.25,-111.38 562.25,-105.38 562.25,-105.38 562.25,-93.38 562.25,-93.38 562.25,-87.38 568.25,-81.38 574.25,-81.38 574.25,-81.38 614.25,-81.38 614.25,-81.38 620.25,-81.38 626.25,-87.38 626.25,-93.38 626.25,-93.38 626.25,-105.38 626.25,-105.38 626.25,-111.38 620.25,-117.38 614.25,-117.38"/>
<text text-anchor="start" x="570.25" y="-95.7" font-family="Times,serif" font-weight="bold" font-size="14.00">Client</text>
</g>
<!-- server&#45;&gt;client -->
<g id="edge6" class="edge">
<title>server&#45;&gt;client</title>
<path fill="none" stroke="black" d="M395.98,-99.38C436.82,-99.38 505.69,-99.38 550.55,-99.38"/>
<polygon fill="black" stroke="black" points="550.46,-102.88 560.46,-99.38 550.46,-95.88 550.46,-102.88"/>
<g id="a_edge6&#45;label"><a xlink:href="keymap-text-format-v1.html#the-xkb_keymap-block" target="_top" xlink:title="complete keymap:&lt;br/&gt;&lt;i&gt;xkb_keymap&lt;/i&gt; block =&lt;br/&gt;&lt;i&gt;xkb_keycodes&lt;/i&gt; +&lt;br/&gt;&lt;i&gt;xkb_compat&lt;/i&gt; +&lt;br/&gt;&lt;i&gt;xkb_symbols&lt;/i&gt; +&lt;br/&gt;&lt;i&gt;xkb_types&lt;/i&gt;">
<text text-anchor="start" x="414.12" y="-174.07" font-family="Times,serif" font-size="14.00">complete keymap:</text>
<text text-anchor="start" x="404.75" y="-160.07" font-family="Times,serif" font-style="italic" font-size="14.00">xkb_keymap</text>
<text text-anchor="start" x="492.5" y="-160.07" font-family="Times,serif" font-size="14.00"> block =</text>
<text text-anchor="start" x="420.88" y="-146.07" font-family="Times,serif" font-style="italic" font-size="14.00">xkb_keycodes</text>
<text text-anchor="start" x="518.38" y="-146.07" font-family="Times,serif" font-size="14.00"> +</text>
<text text-anchor="start" x="427.25" y="-132.07" font-family="Times,serif" font-style="italic" font-size="14.00">xkb_compat</text>
<text text-anchor="start" x="512" y="-132.07" font-family="Times,serif" font-size="14.00"> +</text>
<text text-anchor="start" x="424.25" y="-118.07" font-family="Times,serif" font-style="italic" font-size="14.00">xkb_symbols</text>
<text text-anchor="start" x="515" y="-118.07" font-family="Times,serif" font-size="14.00"> +</text>
<text text-anchor="start" x="443.38" y="-104.07" font-family="Times,serif" font-style="italic" font-size="14.00">xkb_types</text>
</a>
</g>
</g>
</g>
</svg>
