<?xml version="1.0" encoding="UTF-8" standalone="no"?>
<!DOCTYPE svg PUBLIC "-//W3C//DTD SVG 1.1//EN"
 "http://www.w3.org/Graphics/SVG/1.1/DTD/svg11.dtd">
<!-- Generated by graphviz version 12.2.1 (0)
 -->
<!-- Pages: 1 -->
<svg width="637pt" height="509pt"
 viewBox="0.00 0.00 636.69 508.75" xmlns="http://www.w3.org/2000/svg" xmlns:xlink="http://www.w3.org/1999/xlink">
<g id="graph0" class="graph" transform="scale(1 1) rotate(0) translate(4 504.75)">
<polygon fill="white" stroke="none" points="-4,4 -4,-504.75 632.69,-504.75 632.69,4 -4,4"/>
<!-- RMLVO -->
<g id="node1" class="node">
<title>RMLVO</title>
<g id="a_node1"><a xlink:href="xkb-intro.html#RMLVO-intro" target="_top" xlink:title="&lt;i&gt;End user configuration&lt;/i&gt;&lt;br/&gt;&lt;b&gt;RMLVO:&lt;/b&gt; &lt;b&gt;R&lt;/b&gt;ules, &lt;b&gt;M&lt;/b&gt;odel, &lt;b&gt;L&lt;/b&gt;ayout, &lt;b&gt;V&lt;/b&gt;ariant, &lt;b&gt;O&lt;/b&gt;ptions">
<polygon fill="none" stroke="black" stroke-width="3" points="395.12,-500.75 28.88,-500.75 28.88,-464.75 395.12,-464.75 395.12,-500.75"/>
<text text-anchor="start" x="130.25" y="-484.45" font-family="Times,serif" font-style="italic" font-size="14.00">End user configuration</text>
<text text-anchor="start" x="36.88" y="-470.45" font-family="Times,serif" font-weight="bold" font-size="14.00">RMLVO:</text>
<text text-anchor="start" x="100.62" y="-470.45" font-family="Times,serif" font-size="14.00"> </text>
<text text-anchor="start" x="105.12" y="-470.45" font-family="Times,serif" font-weight="bold" font-size="14.00">R</text>
<text text-anchor="start" x="117.12" y="-470.45" font-family="Times,serif" font-size="14.00">ules, </text>
<text text-anchor="start" x="155.38" y="-470.45" font-family="Times,serif" font-weight="bold" font-size="14.00">M</text>
<text text-anchor="start" x="171.12" y="-470.45" font-family="Times,serif" font-size="14.00">odel, </text>
<text text-anchor="start" x="210.12" y="-470.45" font-family="Times,serif" font-weight="bold" font-size="14.00">L</text>
<text text-anchor="start" x="219.88" y="-470.45" font-family="Times,serif" font-size="14.00">ayout, </text>
<text text-anchor="start" x="268.62" y="-470.45" font-family="Times,serif" font-weight="bold" font-size="14.00">V</text>
<text text-anchor="start" x="279.12" y="-470.45" font-family="Times,serif" font-size="14.00">ariant, </text>
<text text-anchor="start" x="330.88" y="-470.45" font-family="Times,serif" font-weight="bold" font-size="14.00">O</text>
<text text-anchor="start" x="342.88" y="-470.45" font-family="Times,serif" font-size="14.00">ptions</text>
</a>
</g>
</g>
<!-- RMLVO_resolution -->
<g id="node2" class="node">
<title>RMLVO_resolution</title>
<g id="a_node2"><a xlink:href="rule-file-format.html#rmlvo-resolution" target="_top" xlink:title="&lt;i&gt;RMLVO resolution&lt;/i&gt;&lt;br/&gt;Determine KcCGST using the specified rules file:&lt;br/&gt;match the given model, layout, variant and options fields">
<path fill="none" stroke="blue" d="M411.62,-428.75C411.62,-428.75 12.38,-428.75 12.38,-428.75 6.38,-428.75 0.37,-422.75 0.37,-416.75 0.37,-416.75 0.37,-390.75 0.37,-390.75 0.37,-384.75 6.37,-378.75 12.37,-378.75 12.37,-378.75 411.62,-378.75 411.62,-378.75 417.62,-378.75 423.62,-384.75 423.62,-390.75 423.62,-390.75 423.62,-416.75 423.62,-416.75 423.62,-422.75 417.62,-428.75 411.62,-428.75"/>
<text text-anchor="start" x="147.12" y="-412.45" font-family="Times,serif" font-style="italic" font-size="14.00">RMLVO resolution</text>
<text text-anchor="start" x="37.62" y="-398.45" font-family="Times,serif" font-size="14.00">Determine KcCGST using the specified rules file:</text>
<text text-anchor="start" x="8.38" y="-384.45" font-family="Times,serif" font-size="14.00">match the given model, layout, variant and options fields</text>
</a>
</g>
</g>
<!-- RMLVO&#45;&gt;RMLVO_resolution -->
<g id="edge1" class="edge">
<title>RMLVO&#45;&gt;RMLVO_resolution</title>
<path fill="none" stroke="blue" stroke-width="2" d="M212,-463.5C212,-456.57 212,-448.41 212,-440.42"/>
<polygon fill="blue" stroke="blue" stroke-width="2" points="215.5,-442.01 212,-432.01 208.5,-442.01 215.5,-442.01"/>
</g>
<!-- database -->
<g id="node6" class="node">
<title>database</title>
<polygon fill="none" stroke="black" points="449.75,-311.5 449.75,-338.75 590.25,-338.75 590.25,-311.5 449.75,-311.5"/>
<text text-anchor="start" x="454.75" y="-321.45" font-family="Times,serif" font-weight="bold" font-size="14.00">Layout Database</text>
<g id="a_node6_0"><a xlink:href="xkb-intro.html#config-rules-def" target="_top" xlink:title="&lt;TABLE&gt;">
<polygon fill="none" stroke="black" points="449.75,-284.25 449.75,-311.5 590.25,-311.5 590.25,-284.25 449.75,-284.25"/>
<text text-anchor="start" x="483.25" y="-293.2" font-family="Times,serif" font-size="14.00">Rules files</text>
</a>
</g>
<g id="a_node6_1"><a xlink:href="xkb-intro.html#config-keycodes-def" target="_top" xlink:title="&lt;TABLE&gt;">
<polygon fill="none" stroke="black" points="449.75,-257 449.75,-284.25 590.25,-284.25 590.25,-257 449.75,-257"/>
<text text-anchor="start" x="469.75" y="-265.95" font-family="Times,serif" font-size="14.00">Keycodes files</text>
</a>
</g>
<g id="a_node6_2"><a xlink:href="xkb-intro.html#config-compat-def" target="_top" xlink:title="&lt;TABLE&gt;">
<polygon fill="none" stroke="black" points="449.75,-229.75 449.75,-257 590.25,-257 590.25,-229.75 449.75,-229.75"/>
<text text-anchor="start" x="475.38" y="-238.7" font-family="Times,serif" font-size="14.00">Compat files</text>
</a>
</g>
<g id="a_node6_3"><a xlink:href="xkb-intro.html#config-geometry-def" target="_top" xlink:title="&lt;TABLE&gt;">
<polygon fill="none" stroke="black" points="449.75,-202.5 449.75,-229.75 590.25,-229.75 590.25,-202.5 449.75,-202.5"/>
<text text-anchor="start" x="462.62" y="-211.45" font-family="Times,serif" font-size="14.00">(Geometry files)</text>
</a>
</g>
<g id="a_node6_4"><a xlink:href="xkb-intro.html#config-symbols-def" target="_top" xlink:title="&lt;TABLE&gt;">
<polygon fill="none" stroke="black" points="449.75,-175.25 449.75,-202.5 590.25,-202.5 590.25,-175.25 449.75,-175.25"/>
<text text-anchor="start" x="472.75" y="-184.2" font-family="Times,serif" font-size="14.00">Symbols files</text>
</a>
</g>
<g id="a_node6_5"><a xlink:href="xkb-intro.html#config-types-def" target="_top" xlink:title="&lt;TABLE&gt;">
<polygon fill="none" stroke="black" points="449.75,-148 449.75,-175.25 590.25,-175.25 590.25,-148 449.75,-148"/>
<text text-anchor="start" x="482.12" y="-156.95" font-family="Times,serif" font-size="14.00">Types files</text>
</a>
</g>
<polygon fill="black" stroke="black" points="449.75,-311.5 449.75,-311.5 590.25,-311.5 590.25,-311.5 449.75,-311.5"/>
</g>
<!-- RMLVO&#45;&gt;database -->
<g id="edge5" class="edge">
<title>RMLVO:e&#45;&gt;database:e</title>
<path fill="none" stroke="dimgrey" d="M396.12,-482.75C511.51,-482.75 697.47,-310.3 602.41,-298.51"/>
<polygon fill="dimgrey" stroke="dimgrey" points="592.47,-297.94 602.71,-294.02 596.24,-298.16 602.45,-298.51 602.45,-298.51 602.45,-298.51 596.24,-298.16 602.2,-303 592.47,-297.94"/>
</g>
<!-- KcCGST -->
<g id="node3" class="node">
<title>KcCGST</title>
<g id="a_node3"><a xlink:href="xkb-intro.html#KcCGST-intro" target="_top" xlink:title="&lt;i&gt;Layout database configuration&lt;/i&gt;&lt;br/&gt;&lt;b&gt;KcCGST:&lt;/b&gt; &lt;b&gt;K&lt;/b&gt;ey&lt;b&gt;c&lt;/b&gt;odes, &lt;b&gt;C&lt;/b&gt;ompat, &lt;b&gt;G&lt;/b&gt;eometry, &lt;b&gt;S&lt;/b&gt;ymbols, &lt;b&gt;T&lt;/b&gt;ypes">
<polygon fill="none" stroke="black" stroke-width="3" points="424,-261.38 0,-261.38 0,-225.38 424,-225.38 424,-261.38"/>
<text text-anchor="start" x="103.62" y="-245.07" font-family="Times,serif" font-style="italic" font-size="14.00">Layout database configuration</text>
<text text-anchor="start" x="8" y="-231.07" font-family="Times,serif" font-weight="bold" font-size="14.00">KcCGST:</text>
<text text-anchor="start" x="76.25" y="-231.07" font-family="Times,serif" font-size="14.00"> </text>
<text text-anchor="start" x="80.75" y="-231.07" font-family="Times,serif" font-weight="bold" font-size="14.00">K</text>
<text text-anchor="start" x="92.75" y="-231.07" font-family="Times,serif" font-size="14.00">ey</text>
<text text-anchor="start" x="109.25" y="-231.07" font-family="Times,serif" font-weight="bold" font-size="14.00">c</text>
<text text-anchor="start" x="117.5" y="-231.07" font-family="Times,serif" font-size="14.00">odes, </text>
<text text-anchor="start" x="159.5" y="-231.07" font-family="Times,serif" font-weight="bold" font-size="14.00">C</text>
<text text-anchor="start" x="170.75" y="-231.07" font-family="Times,serif" font-size="14.00">ompat, </text>
<text text-anchor="start" x="224.75" y="-231.07" font-family="Times,serif" font-weight="bold" font-size="14.00">G</text>
<text text-anchor="start" x="236.75" y="-231.07" font-family="Times,serif" font-size="14.00">eometry, </text>
<text text-anchor="start" x="302.75" y="-231.07" font-family="Times,serif" font-weight="bold" font-size="14.00">S</text>
<text text-anchor="start" x="312.5" y="-231.07" font-family="Times,serif" font-size="14.00">ymbols, </text>
<text text-anchor="start" x="372.5" y="-231.07" font-family="Times,serif" font-weight="bold" font-size="14.00">T</text>
<text text-anchor="start" x="383" y="-231.07" font-family="Times,serif" font-size="14.00">ypes</text>
</a>
</g>
</g>
<!-- RMLVO_resolution&#45;&gt;KcCGST -->
<g id="edge2" class="edge">
<title>RMLVO_resolution&#45;&gt;KcCGST</title>
<path fill="none" stroke="blue" stroke-width="2" d="M212,-378.35C212,-350.29 212,-304.21 212,-274.09"/>
<polygon fill="blue" stroke="blue" stroke-width="2" points="215.5,-275.66 212,-265.66 208.5,-275.66 215.5,-275.66"/>
</g>
<!-- KcCGST_resolution -->
<g id="node4" class="node">
<title>KcCGST_resolution</title>
<path fill="none" stroke="blue" d="M362.88,-108C362.88,-108 61.12,-108 61.12,-108 55.12,-108 49.12,-102 49.12,-96 49.12,-96 49.12,-84 49.12,-84 49.12,-78 55.12,-72 61.12,-72 61.12,-72 362.88,-72 362.88,-72 368.88,-72 374.88,-78 374.88,-84 374.88,-84 374.88,-96 374.88,-96 374.88,-102 368.88,-108 362.88,-108"/>
<text text-anchor="start" x="144.5" y="-91.7" font-family="Times,serif" font-style="italic" font-size="14.00">KcCGST resolution</text>
<text text-anchor="start" x="57.12" y="-77.7" font-family="Times,serif" font-size="14.00">Construct the keymap from its components</text>
</g>
<!-- KcCGST&#45;&gt;KcCGST_resolution -->
<g id="edge3" class="edge">
<title>KcCGST&#45;&gt;KcCGST_resolution</title>
<path fill="none" stroke="blue" stroke-width="2" d="M212,-224.12C212,-198.15 212,-150.32 212,-119.62"/>
<polygon fill="blue" stroke="blue" stroke-width="2" points="215.5,-121.42 212,-111.42 208.5,-121.42 215.5,-121.42"/>
</g>
<!-- KcCGST&#45;&gt;database -->
<g id="edge6" class="edge">
<title>KcCGST:e&#45;&gt;database:w</title>
<path fill="none" stroke="dimgrey" d="M424,-243.38C435.5,-243.38 434.98,-256.85 439.34,-264.85"/>
<polygon fill="dimgrey" stroke="dimgrey" points="447.71,-269.99 436.84,-268.59 444.49,-268.01 439.19,-264.75 439.19,-264.75 439.19,-264.75 444.49,-268.01 441.54,-260.92 447.71,-269.99"/>
</g>
<!-- KcCGST&#45;&gt;database -->
<g id="edge7" class="edge">
<title>KcCGST:e&#45;&gt;database:w</title>
<path fill="none" stroke="dimgrey" d="M424,-243.38C430.19,-243.38 433.76,-243.38 437.67,-243.38"/>
<polygon fill="dimgrey" stroke="dimgrey" points="447.53,-243.38 437.53,-247.88 443.75,-243.38 437.53,-243.38 437.53,-243.38 437.53,-243.38 443.75,-243.38 437.53,-238.88 447.53,-243.38"/>
</g>
<!-- KcCGST&#45;&gt;database -->
<g id="edge8" class="edge">
<title>KcCGST:e&#45;&gt;database:w</title>
<path fill="none" stroke="dimgrey" d="M424,-243.38C445.61,-243.38 430.88,-207.4 438.87,-193.9"/>
<polygon fill="dimgrey" stroke="dimgrey" points="447.66,-189.43 440.79,-197.97 444.29,-191.14 438.75,-193.96 438.75,-193.96 438.75,-193.96 444.29,-191.14 436.71,-189.95 447.66,-189.43"/>
</g>
<!-- KcCGST&#45;&gt;database -->
<g id="edge9" class="edge">
<title>KcCGST:e&#45;&gt;database:w</title>
<path fill="none" stroke="dimgrey" d="M424,-243.38C457.22,-243.38 422.19,-180.79 438.34,-165.14"/>
<polygon fill="dimgrey" stroke="dimgrey" points="447.6,-162.01 439.56,-169.48 444.01,-163.22 438.12,-165.21 438.12,-165.21 438.12,-165.21 444.01,-163.22 436.68,-160.95 447.6,-162.01"/>
</g>
<!-- Keymap -->
<g id="node5" class="node">
<title>Keymap</title>
<g id="a_node5"><a xlink:href="xkb-intro.html#keymap-intro" target="_top" xlink:title="&lt;i&gt;Display server configuration&lt;/i&gt;&lt;br/&gt;&lt;b&gt;Complete keymap&lt;/b&gt;">
<polygon fill="none" stroke="black" stroke-width="3" points="321.25,-36 102.75,-36 102.75,0 321.25,0 321.25,-36"/>
<text text-anchor="start" x="110.75" y="-19.7" font-family="Times,serif" font-style="italic" font-size="14.00">Display server configuration</text>
<text text-anchor="start" x="141.88" y="-5.7" font-family="Times,serif" font-weight="bold" font-size="14.00">Complete keymap</text>
</a>
</g>
</g>
<!-- KcCGST_resolution&#45;&gt;Keymap -->
<g id="edge4" class="edge">
<title>KcCGST_resolution&#45;&gt;Keymap</title>
<path fill="none" stroke="blue" stroke-width="2" d="M212,-71.7C212,-64.71 212,-56.44 212,-48.55"/>
<polygon fill="blue" stroke="blue" stroke-width="2" points="215.5,-50.11 212,-40.11 208.5,-50.11 215.5,-50.11"/>
</g>
<!-- database&#45;&gt;RMLVO_resolution -->
<g id="edge10" class="edge">
<title>database:w&#45;&gt;RMLVO_resolution:e</title>
<path fill="none" stroke="dimgrey" d="M448.75,-297.88C428.48,-297.88 442.26,-372.55 432.9,-396.47"/>
<polygon fill="dimgrey" stroke="dimgrey" points="425.54,-402.95 430.08,-392.96 428.38,-400.45 433.05,-396.34 433.05,-396.34 433.05,-396.34 428.38,-400.45 436.02,-399.72 425.54,-402.95"/>
</g>
<!-- database&#45;&gt;KcCGST_resolution -->
<g id="edge11" class="edge">
<title>database:e&#45;&gt;KcCGST_resolution</title>
<path fill="none" stroke="dimgrey" d="M591.25,-270.62C647.53,-270.62 627.35,-186.32 590.25,-144 562.92,-112.83 472.07,-99.46 386.25,-93.95"/>
<polygon fill="dimgrey" stroke="dimgrey" points="376.49,-93.35 386.75,-89.47 380.27,-93.58 386.47,-93.96 386.47,-93.96 386.47,-93.96 380.27,-93.58 386.2,-98.45 376.49,-93.35"/>
</g>
<!-- database&#45;&gt;KcCGST_resolution -->
<g id="edge12" class="edge">
<title>database:e&#45;&gt;KcCGST_resolution</title>
<path fill="none" stroke="dimgrey" d="M591.25,-243.38C635.42,-243.38 619.4,-177.18 590.25,-144 562.89,-112.86 472.03,-99.49 386.23,-93.97"/>
<polygon fill="dimgrey" stroke="dimgrey" points="376.47,-93.38 386.72,-89.49 380.24,-93.61 386.45,-93.98 386.45,-93.98 386.45,-93.98 380.24,-93.61 386.18,-98.47 376.47,-93.38"/>
</g>
<!-- database&#45;&gt;KcCGST_resolution -->
<g id="edge13" class="edge">
<title>database:e&#45;&gt;KcCGST_resolution</title>
<path fill="none" stroke="dimgrey" d="M591.25,-188.88C611.2,-188.88 603.51,-158.91 590.25,-144 562.73,-113.06 472.01,-99.69 386.33,-94.12"/>
<polygon fill="dimgrey" stroke="dimgrey" points="376.58,-93.52 386.84,-89.64 380.35,-93.75 386.56,-94.13 386.56,-94.13 386.56,-94.13 380.35,-93.75 386.29,-98.62 376.58,-93.52"/>
</g>
<!-- database&#45;&gt;KcCGST_resolution -->
<g id="edge14" class="edge">
<title>database:e&#45;&gt;KcCGST_resolution</title>
<path fill="none" stroke="dimgrey" d="M591.25,-161.62C599.1,-161.62 595.56,-149.77 590.25,-144 562.23,-113.56 471.65,-100.21 386.16,-94.51"/>
<polygon fill="dimgrey" stroke="dimgrey" points="376.44,-93.9 386.7,-90.03 380.21,-94.13 386.42,-94.53 386.42,-94.53 386.42,-94.53 380.21,-94.13 386.13,-99.02 376.44,-93.9"/>
</g>
</g>
</svg>
