<?xml version="1.0" encoding="UTF-8" standalone="no"?>
<!DOCTYPE svg PUBLIC "-//W3C//DTD SVG 1.1//EN"
 "http://www.w3.org/Graphics/SVG/1.1/DTD/svg11.dtd">
<!-- Generated by graphviz version 12.2.1 (0)
 -->
<!-- Pages: 1 -->
<svg width="581pt" height="733pt"
 viewBox="0.00 0.00 581.44 733.00" xmlns="http://www.w3.org/2000/svg" xmlns:xlink="http://www.w3.org/1999/xlink">
<g id="graph0" class="graph" transform="scale(1 1) rotate(0) translate(4 729)">
<polygon fill="white" stroke="none" points="-4,4 -4,-729 577.44,-729 577.44,4 -4,4"/>
<!-- active_modifiers -->
<g id="node1" class="node">
<title>active_modifiers</title>
<g id="a_node1"><a xlink:href="group__state.html#gaa856e0ad47b0aaa0240a5afe9963f835" target="_top" xlink:title="Active modifiers">
<ellipse fill="none" stroke="black" cx="330.82" cy="-707" rx="92.24" ry="18"/>
<text text-anchor="middle" x="330.82" y="-702.33" font-family="Times,serif" font-size="14.00">Active modifiers</text>
</a>
</g>
</g>
<!-- modifiers_filter -->
<g id="node2" class="node">
<title>modifiers_filter</title>
<path fill="none" stroke="black" d="M498.57,-653C498.57,-653 163.07,-653 163.07,-653 157.07,-653 151.07,-647 151.07,-641 151.07,-641 151.07,-629 151.07,-629 151.07,-623 157.07,-617 163.07,-617 163.07,-617 498.57,-617 498.57,-617 504.57,-617 510.57,-623 510.57,-629 510.57,-629 510.57,-641 510.57,-641 510.57,-647 504.57,-653 498.57,-653"/>
<text text-anchor="start" x="269.69" y="-636.7" font-family="Times,serif" font-weight="bold" font-size="14.00">Filter modifiers</text>
<text text-anchor="start" x="159.07" y="-622.7" font-family="Times,serif" font-size="14.00">Keep only meaningful modifiers for the key type</text>
</g>
<!-- active_modifiers&#45;&gt;modifiers_filter -->
<g id="edge1" class="edge">
<title>active_modifiers&#45;&gt;modifiers_filter</title>
<path fill="none" stroke="black" d="M330.82,-688.7C330.82,-681.41 330.82,-672.73 330.82,-664.54"/>
<polygon fill="black" stroke="black" points="334.32,-664.62 330.82,-654.62 327.32,-664.62 334.32,-664.62"/>
</g>
<!-- filtered_modifiers -->
<g id="node3" class="node">
<title>filtered_modifiers</title>
<ellipse fill="none" stroke="black" cx="246.82" cy="-520.5" rx="101.19" ry="18"/>
<text text-anchor="middle" x="246.82" y="-515.83" font-family="Times,serif" font-size="14.00">Filtered modifiers</text>
</g>
<!-- modifiers_filter&#45;&gt;filtered_modifiers -->
<g id="edge3" class="edge">
<title>modifiers_filter&#45;&gt;filtered_modifiers</title>
<path fill="none" stroke="black" d="M318.06,-616.91C304.37,-598.58 282.44,-569.22 266.53,-547.9"/>
<polygon fill="black" stroke="black" points="269.39,-545.88 260.6,-539.96 263.78,-550.07 269.39,-545.88"/>
</g>
<!-- level_match -->
<g id="node4" class="node">
<title>level_match</title>
<path fill="none" stroke="black" d="M561.44,-424C561.44,-424 330.19,-424 330.19,-424 324.19,-424 318.19,-418 318.19,-412 318.19,-412 318.19,-372 318.19,-372 318.19,-366 324.19,-360 330.19,-360 330.19,-360 561.44,-360 561.44,-360 567.44,-360 573.44,-366 573.44,-372 573.44,-372 573.44,-412 573.44,-412 573.44,-418 567.44,-424 561.44,-424"/>
<text text-anchor="start" x="326.19" y="-407.7" font-family="Times,serif" font-weight="bold" font-size="14.00">Lookup modifiers combination</text>
<text text-anchor="start" x="378.32" y="-393.7" font-family="Times,serif" font-size="14.00">Find the shift level</text>
<text text-anchor="start" x="332.94" y="-379.7" font-family="Times,serif" font-size="14.00">matching exactly the modifiers,</text>
<text text-anchor="start" x="348.32" y="-365.7" font-family="Times,serif" font-size="14.00">defaulting to the base level</text>
</g>
<!-- filtered_modifiers&#45;&gt;level_match -->
<g id="edge4" class="edge">
<title>filtered_modifiers&#45;&gt;level_match</title>
<path fill="none" stroke="black" d="M273.24,-502.7C302.09,-484.36 349.21,-454.41 386.93,-430.43"/>
<polygon fill="black" stroke="black" points="388.46,-433.61 395.02,-425.29 384.7,-427.7 388.46,-433.61"/>
</g>
<!-- consume_modifiers -->
<g id="node6" class="node">
<title>consume_modifiers</title>
<path fill="none" stroke="black" d="M287.94,-410C287.94,-410 143.69,-410 143.69,-410 137.69,-410 131.69,-404 131.69,-398 131.69,-398 131.69,-386 131.69,-386 131.69,-380 137.69,-374 143.69,-374 143.69,-374 287.94,-374 287.94,-374 293.94,-374 299.94,-380 299.94,-386 299.94,-386 299.94,-398 299.94,-398 299.94,-404 293.94,-410 287.94,-410"/>
<text text-anchor="start" x="139.69" y="-388.32" font-family="Times,serif" font-weight="bold" font-size="14.00">Consume modifiers</text>
</g>
<!-- filtered_modifiers&#45;&gt;consume_modifiers -->
<g id="edge12" class="edge">
<title>filtered_modifiers&#45;&gt;consume_modifiers</title>
<path fill="none" stroke="black" d="M242.57,-502.18C237.44,-481.26 228.76,-445.82 222.68,-421"/>
<polygon fill="black" stroke="black" points="226.15,-420.46 220.37,-411.58 219.35,-422.13 226.15,-420.46"/>
</g>
<!-- shift_level -->
<g id="node5" class="node">
<title>shift_level</title>
<g id="a_node5"><a xlink:href="keymap-text-format-v1.html#level-def" target="_top" xlink:title="Shift level">
<ellipse fill="none" stroke="black" cx="462.82" cy="-306" rx="62.26" ry="18"/>
<text text-anchor="middle" x="462.82" y="-301.32" font-family="Times,serif" font-size="14.00">Shift level</text>
</a>
</g>
</g>
<!-- level_match&#45;&gt;shift_level -->
<g id="edge6" class="edge">
<title>level_match&#45;&gt;shift_level</title>
<path fill="none" stroke="black" d="M452.15,-359.72C453.75,-351.79 455.47,-343.32 457.04,-335.53"/>
<polygon fill="black" stroke="black" points="460.44,-336.38 458.99,-325.89 453.58,-335 460.44,-336.38"/>
</g>
<!-- symbols_table_lookup -->
<g id="node8" class="node">
<title>symbols_table_lookup</title>
<path fill="none" stroke="black" d="M560.44,-252C560.44,-252 401.19,-252 401.19,-252 395.19,-252 389.19,-246 389.19,-240 389.19,-240 389.19,-228 389.19,-228 389.19,-222 395.19,-216 401.19,-216 401.19,-216 560.44,-216 560.44,-216 566.44,-216 572.44,-222 572.44,-228 572.44,-228 572.44,-240 572.44,-240 572.44,-246 566.44,-252 560.44,-252"/>
<text text-anchor="start" x="397.19" y="-230.32" font-family="Times,serif" font-weight="bold" font-size="14.00">Symbols table lookup</text>
</g>
<!-- shift_level&#45;&gt;symbols_table_lookup -->
<g id="edge7" class="edge">
<title>shift_level&#45;&gt;symbols_table_lookup</title>
<path fill="none" stroke="black" d="M467.26,-287.7C469.16,-280.32 471.42,-271.52 473.55,-263.25"/>
<polygon fill="black" stroke="black" points="476.94,-264.13 476.04,-253.57 470.16,-262.38 476.94,-264.13"/>
</g>
<!-- consumed_modifiers -->
<g id="node7" class="node">
<title>consumed_modifiers</title>
<g id="a_node7"><a xlink:href="group__state.html" target="_top" xlink:title="Consumed modifiers">
<ellipse fill="none" stroke="black" cx="113.82" cy="-234" rx="113.82" ry="18"/>
<text text-anchor="middle" x="113.82" y="-229.32" font-family="Times,serif" font-size="14.00">Consumed modifiers</text>
</a>
</g>
</g>
<!-- consume_modifiers&#45;&gt;consumed_modifiers -->
<g id="edge14" class="edge">
<title>consume_modifiers&#45;&gt;consumed_modifiers</title>
<path fill="none" stroke="black" d="M204.51,-373.71C186.74,-346.53 152.15,-293.63 131.2,-261.59"/>
<polygon fill="black" stroke="black" points="134.4,-260.09 126,-253.64 128.54,-263.92 134.4,-260.09"/>
</g>
<!-- keysyms_transformations -->
<g id="node11" class="node">
<title>keysyms_transformations</title>
<g id="a_node11"><a xlink:href="group__keysyms.html" target="_top" xlink:title="&lt;b&gt;Keysyms transformations&lt;/b&gt;">
<path fill="none" stroke="black" d="M393.69,-108C393.69,-108 199.94,-108 199.94,-108 193.94,-108 187.94,-102 187.94,-96 187.94,-96 187.94,-84 187.94,-84 187.94,-78 193.94,-72 199.94,-72 199.94,-72 393.69,-72 393.69,-72 399.69,-72 405.69,-78 405.69,-84 405.69,-84 405.69,-96 405.69,-96 405.69,-102 399.69,-108 393.69,-108"/>
<text text-anchor="start" x="195.94" y="-86.33" font-family="Times,serif" font-weight="bold" font-size="14.00">Keysyms transformations</text>
</a>
</g>
</g>
<!-- consumed_modifiers&#45;&gt;keysyms_transformations -->
<g id="edge15" class="edge">
<title>consumed_modifiers&#45;&gt;keysyms_transformations</title>
<path fill="none" stroke="black" d="M135.89,-215.87C168.23,-190.78 228.63,-143.91 265.53,-115.27"/>
<polygon fill="black" stroke="black" points="267.43,-118.23 273.18,-109.34 263.13,-112.7 267.43,-118.23"/>
</g>
<!-- keysym_pre_transformation -->
<g id="node10" class="node">
<title>keysym_pre_transformation</title>
<ellipse fill="none" stroke="black" cx="413.82" cy="-162" rx="73.83" ry="18"/>
<text text-anchor="middle" x="413.82" y="-157.32" font-family="Times,serif" font-size="14.00">Raw keysym</text>
</g>
<!-- symbols_table_lookup&#45;&gt;keysym_pre_transformation -->
<g id="edge9" class="edge">
<title>symbols_table_lookup&#45;&gt;keysym_pre_transformation</title>
<path fill="none" stroke="black" d="M464.25,-215.7C456.18,-207.27 446.33,-196.97 437.49,-187.73"/>
<polygon fill="black" stroke="black" points="440.21,-185.52 430.77,-180.72 435.16,-190.36 440.21,-185.52"/>
</g>
<!-- symbols_table -->
<g id="node9" class="node">
<title>symbols_table</title>
<g id="a_node9"><a xlink:href="keymap-text-format-v1.html#key-symbols-table" target="_top" xlink:title="&lt;b&gt;Symbols table&lt;/b&gt;">
<polygon fill="none" stroke="black" stroke-width="2" points="371.57,-252 246.07,-252 246.07,-216 371.57,-216 371.57,-252"/>
<text text-anchor="start" x="254.07" y="-230.32" font-family="Times,serif" font-weight="bold" font-size="14.00">Symbols table</text>
</a>
</g>
</g>
<!-- symbols_table&#45;&gt;symbols_table_lookup -->
<g id="edge8" class="edge">
<title>symbols_table&#45;&gt;symbols_table_lookup</title>
<path fill="none" stroke="black" d="M372.31,-234C374.03,-234 375.75,-234 377.47,-234"/>
<polygon fill="black" stroke="black" points="377.32,-237.5 387.32,-234 377.32,-230.5 377.32,-237.5"/>
</g>
<!-- keysym_pre_transformation&#45;&gt;keysyms_transformations -->
<g id="edge10" class="edge">
<title>keysym_pre_transformation&#45;&gt;keysyms_transformations</title>
<path fill="none" stroke="black" d="M386.97,-144.94C371.75,-135.83 352.42,-124.27 335.58,-114.19"/>
<polygon fill="black" stroke="black" points="337.67,-111.36 327.29,-109.23 334.07,-117.37 337.67,-111.36"/>
</g>
<!-- keysym_post_transformation -->
<g id="node12" class="node">
<title>keysym_post_transformation</title>
<ellipse fill="none" stroke="black" cx="296.82" cy="-18" rx="77.51" ry="18"/>
<text text-anchor="middle" x="296.82" y="-13.32" font-family="Times,serif" font-size="14.00">Final keysym</text>
</g>
<!-- keysyms_transformations&#45;&gt;keysym_post_transformation -->
<g id="edge11" class="edge">
<title>keysyms_transformations&#45;&gt;keysym_post_transformation</title>
<path fill="none" stroke="black" d="M296.82,-71.7C296.82,-64.41 296.82,-55.73 296.82,-47.54"/>
<polygon fill="black" stroke="black" points="300.32,-47.62 296.82,-37.62 293.32,-47.62 300.32,-47.62"/>
</g>
<!-- key_type -->
<g id="node13" class="node">
<title>key_type</title>
<g id="a_node13_0"><a xlink:href="keymap-text-format-v1.html#the-xkb_types-section" target="_top" xlink:title="&lt;TABLE&gt;">
<polygon fill="none" stroke="black" points="376.07,-547.75 376.07,-575 453.57,-575 453.57,-547.75 376.07,-547.75"/>
<text text-anchor="start" x="381.07" y="-557.7" font-family="Times,serif" font-weight="bold" font-size="14.00">Key type</text>
</a>
</g>
<g id="a_node13_1"><a xlink:href="keymap-text-format-v1.html#key-type-modifiers" target="_top" xlink:title="&lt;TABLE&gt;">
<polygon fill="none" stroke="black" points="376.07,-520.5 376.07,-547.75 453.57,-547.75 453.57,-520.5 376.07,-520.5"/>
<text text-anchor="start" x="381.44" y="-529.45" font-family="Times,serif" font-size="14.00">modifiers</text>
</a>
</g>
<g id="a_node13_2"><a xlink:href="keymap-text-format-v1.html#key-type-map" target="_top" xlink:title="&lt;TABLE&gt;">
<polygon fill="none" stroke="black" points="376.07,-493.25 376.07,-520.5 453.57,-520.5 453.57,-493.25 376.07,-493.25"/>
<text text-anchor="start" x="399.44" y="-502.2" font-family="Times,serif" font-size="14.00">map</text>
</a>
</g>
<g id="a_node13_3"><a xlink:href="keymap-text-format-v1.html#key-type-preserve" target="_top" xlink:title="&lt;TABLE&gt;">
<polygon fill="none" stroke="black" points="376.07,-466 376.07,-493.25 453.57,-493.25 453.57,-466 376.07,-466"/>
<text text-anchor="start" x="383.32" y="-474.95" font-family="Times,serif" font-size="14.00">preserve</text>
</a>
</g>
<polygon fill="black" stroke="black" points="374.07,-547.75 374.07,-547.75 455.57,-547.75 455.57,-547.75 374.07,-547.75"/>
<polygon fill="none" stroke="black" stroke-width="2" points="375.07,-465 375.07,-576 454.57,-576 454.57,-465 375.07,-465"/>
</g>
<!-- key_type&#45;&gt;modifiers_filter -->
<g id="edge2" class="edge">
<title>key_type:modifiers&#45;&gt;modifiers_filter</title>
<path fill="none" stroke="black" d="M375.07,-534.12C352.71,-534.12 365.8,-560.53 356.82,-581 353.15,-589.35 348.89,-598.3 344.89,-606.43"/>
<polygon fill="black" stroke="black" points="341.87,-604.64 340.54,-615.15 348.13,-607.77 341.87,-604.64"/>
</g>
<!-- key_type&#45;&gt;level_match -->
<g id="edge5" class="edge">
<title>key_type:map&#45;&gt;level_match</title>
<path fill="none" stroke="black" d="M454.57,-506.88C484.4,-506.88 476.14,-467.52 464.26,-435.09"/>
<polygon fill="black" stroke="black" points="467.55,-433.9 460.68,-425.83 461.02,-436.42 467.55,-433.9"/>
</g>
<!-- key_type&#45;&gt;consume_modifiers -->
<g id="edge13" class="edge">
<title>key_type:preserve&#45;&gt;consume_modifiers</title>
<path fill="none" stroke="black" d="M375.07,-479.62C363.15,-479.62 366.42,-467.04 356.82,-460 331.63,-441.54 300.56,-426.12 274,-414.75"/>
<polygon fill="black" stroke="black" points="275.66,-411.65 265.08,-411.02 272.96,-418.11 275.66,-411.65"/>
</g>
</g>
</svg>
