<?xml version="1.0" encoding="UTF-8" standalone="no"?>
<!DOCTYPE svg PUBLIC "-//W3C//DTD SVG 1.1//EN"
 "http://www.w3.org/Graphics/SVG/1.1/DTD/svg11.dtd">
<!-- Generated by graphviz version 2.49.3 (0)
 -->
<!-- Pages: 1 -->
<svg width="515pt" height="227pt"
 viewBox="0.00 0.00 514.50 226.86" xmlns="http://www.w3.org/2000/svg" xmlns:xlink="http://www.w3.org/1999/xlink">
<g id="graph0" class="graph" transform="scale(1 1) rotate(0) translate(4 222.86)">
<polygon fill="white" stroke="transparent" points="-4,4 -4,-222.86 510.5,-222.86 510.5,4 -4,4"/>
<!-- database -->
<g id="node1" class="node">
<title>database</title>
<polygon fill="none" stroke="black" points="8.5,-189.36 8.5,-214.36 117.5,-214.36 117.5,-189.36 8.5,-189.36"/>
<text text-anchor="start" x="13.5" y="-199.16" font-family="Times,serif" font-weight="bold" font-size="14.00">Layout Database</text>
<g id="a_node1_0"><a xlink:href="rule-file-format.html" target="_top" xlink:title="&lt;TABLE&gt;">
<polygon fill="none" stroke="black" points="8.5,-164.36 8.5,-189.36 117.5,-189.36 117.5,-164.36 8.5,-164.36"/>
<text text-anchor="start" x="34" y="-173.16" font-family="Times,serif" font-size="14.00">Rules files</text>
</a>
</g>
<g id="a_node1_1"><a xlink:href="keymap-text-format-v1.html#keycode-def" target="_top" xlink:title="&lt;TABLE&gt;">
<polygon fill="none" stroke="black" points="8.5,-139.36 8.5,-164.36 117.5,-164.36 117.5,-139.36 8.5,-139.36"/>
<text text-anchor="start" x="23" y="-148.16" font-family="Times,serif" font-size="14.00">Keycodes files</text>
</a>
</g>
<g id="a_node1_2"><a xlink:href="keymap-text-format-v1.html#key-action-def" target="_top" xlink:title="&lt;TABLE&gt;">
<polygon fill="none" stroke="black" points="8.5,-114.36 8.5,-139.36 117.5,-139.36 117.5,-114.36 8.5,-114.36"/>
<text text-anchor="start" x="28" y="-123.16" font-family="Times,serif" font-size="14.00">Compat files</text>
</a>
</g>
<polygon fill="none" stroke="black" points="8.5,-89.36 8.5,-114.36 117.5,-114.36 117.5,-89.36 8.5,-89.36"/>
<text text-anchor="start" x="17.5" y="-98.16" font-family="Times,serif" font-size="14.00">(Geometry files)</text>
<g id="a_node1_3"><a xlink:href="keymap-text-format-v1.html#keysym-def" target="_top" xlink:title="&lt;TABLE&gt;">
<polygon fill="none" stroke="black" points="8.5,-64.36 8.5,-89.36 117.5,-89.36 117.5,-64.36 8.5,-64.36"/>
<text text-anchor="start" x="25.5" y="-73.16" font-family="Times,serif" font-size="14.00">Symbols files</text>
</a>
</g>
<g id="a_node1_4"><a xlink:href="keymap-text-format-v1.html#key-type-def" target="_top" xlink:title="&lt;TABLE&gt;">
<polygon fill="none" stroke="black" points="8.5,-39.36 8.5,-64.36 117.5,-64.36 117.5,-39.36 8.5,-39.36"/>
<text text-anchor="start" x="22" y="-48.16" font-family="Times,serif" font-size="14.00">Key types files</text>
</a>
</g>
<polygon fill="black" stroke="black" points="8.5,-189.36 8.5,-189.36 117.5,-189.36 117.5,-189.36 8.5,-189.36"/>
</g>
<!-- server -->
<g id="node2" class="node">
<title>server</title>
<path fill="none" stroke="black" d="M307,-145.36C307,-145.36 276,-145.36 276,-145.36 270,-145.36 264,-139.36 264,-133.36 264,-133.36 264,-121.36 264,-121.36 264,-115.36 270,-109.36 276,-109.36 276,-109.36 307,-109.36 307,-109.36 313,-109.36 319,-115.36 319,-121.36 319,-121.36 319,-133.36 319,-133.36 319,-139.36 313,-145.36 307,-145.36"/>
<text text-anchor="start" x="272" y="-124.66" font-family="Times,serif" font-weight="bold" font-size="14.00">Server</text>
</g>
<!-- database&#45;&gt;server -->
<g id="edge1" class="edge">
<title>database:keycodes&#45;&gt;server</title>
<path fill="none" stroke="black" d="M118.5,-152.36C176.39,-152.36 193.53,-150.73 253.84,-138.31"/>
<polygon fill="black" stroke="black" points="254.82,-141.68 263.9,-136.22 253.39,-134.82 254.82,-141.68"/>
<g id="a_edge1&#45;label"><a xlink:href="keymap-text-format-v1.html#the-xkb_keycodes-section" target="_top" xlink:title="&lt;i&gt;xkb_keycodes&lt;/i&gt; section">
<text text-anchor="start" x="134" y="-157.16" font-family="Times,serif" font-style="italic" font-size="14.00">xkb_keycodes</text>
<text text-anchor="start" x="209" y="-157.16" font-family="Times,serif" font-size="14.00"> section</text>
</a>
</g>
</g>
<!-- database&#45;&gt;server -->
<g id="edge2" class="edge">
<title>database:compat&#45;&gt;server</title>
<path fill="none" stroke="black" d="M118.5,-126.36C132.72,-126.36 121.75,-105.58 134,-98.36 180.33,-71.05 204.35,-80.3 255,-98.36 258.5,-99.61 261.91,-101.37 265.14,-103.41"/>
<polygon fill="black" stroke="black" points="263.09,-106.24 273.22,-109.32 267.22,-100.59 263.09,-106.24"/>
<g id="a_edge2&#45;label"><a xlink:href="keymap-text-format-v1.html#the-xkb_compat-section" target="_top" xlink:title="&lt;i&gt;xkb_compat&lt;/i&gt; section">
<text text-anchor="start" x="138.5" y="-103.16" font-family="Times,serif" font-style="italic" font-size="14.00">xkb_compat</text>
<text text-anchor="start" x="204.5" y="-103.16" font-family="Times,serif" font-size="14.00"> section</text>
</a>
</g>
</g>
<!-- database&#45;&gt;server -->
<g id="edge3" class="edge">
<title>database:symbols&#45;&gt;server</title>
<path fill="none" stroke="black" d="M118.5,-76.36C128.4,-76.36 124.88,-64.22 134,-60.36 183.52,-39.38 208.92,-32.62 255,-60.36 269.2,-68.9 278.02,-85.26 283.32,-99.67"/>
<polygon fill="black" stroke="black" points="280.01,-100.8 286.45,-109.21 286.66,-98.62 280.01,-100.8"/>
<g id="a_edge3&#45;label"><a xlink:href="keymap-text-format-v1.html#the-xkb_symbols-section" target="_top" xlink:title="&lt;i&gt;xkb_symbols&lt;/i&gt; section">
<text text-anchor="start" x="136.5" y="-65.16" font-family="Times,serif" font-style="italic" font-size="14.00">xkb_symbols</text>
<text text-anchor="start" x="206.5" y="-65.16" font-family="Times,serif" font-size="14.00"> section</text>
</a>
</g>
</g>
<!-- database&#45;&gt;server -->
<g id="edge4" class="edge">
<title>database:types&#45;&gt;server</title>
<path fill="none" stroke="black" d="M118.5,-51.36C133.11,-51.36 121.46,-29.87 134,-22.36 180.13,5.29 211.31,8.99 255,-22.36 279.11,-39.65 287.05,-74.2 289.56,-98.95"/>
<polygon fill="black" stroke="black" points="286.09,-99.5 290.35,-109.2 293.07,-98.96 286.09,-99.5"/>
<g id="a_edge4&#45;label"><a xlink:href="keymap-text-format-v1.html#the-xkb_types-section" target="_top" xlink:title="&lt;i&gt;xkb_types&lt;/i&gt; section">
<text text-anchor="start" x="144.5" y="-27.16" font-family="Times,serif" font-style="italic" font-size="14.00">xkb_types</text>
<text text-anchor="start" x="198.5" y="-27.16" font-family="Times,serif" font-size="14.00"> section</text>
</a>
</g>
</g>
<!-- server&#45;&gt;database -->
<g id="edge5" class="edge">
<title>server:n&#45;&gt;database:rules</title>
<path fill="none" stroke="black" d="M291.5,-146.36C291.5,-221.11 204.59,-181.17 128.65,-177.6"/>
<polygon fill="black" stroke="black" points="128.58,-174.1 118.5,-177.36 128.41,-181.1 128.58,-174.1"/>
<g id="a_edge5&#45;label"><a xlink:href="xkb-intro.html#RMLVO-intro" target="_top" xlink:title="Rules, Model, Layout, Variant, Options">
<text text-anchor="start" x="170.5" y="-196.16" font-family="Times,serif" font-size="14.00">RMLVO</text>
</a>
</g>
</g>
<!-- client -->
<g id="node3" class="node">
<title>client</title>
<path fill="none" stroke="black" d="M494.5,-145.36C494.5,-145.36 464.5,-145.36 464.5,-145.36 458.5,-145.36 452.5,-139.36 452.5,-133.36 452.5,-133.36 452.5,-121.36 452.5,-121.36 452.5,-115.36 458.5,-109.36 464.5,-109.36 464.5,-109.36 494.5,-109.36 494.5,-109.36 500.5,-109.36 506.5,-115.36 506.5,-121.36 506.5,-121.36 506.5,-133.36 506.5,-133.36 506.5,-139.36 500.5,-145.36 494.5,-145.36"/>
<text text-anchor="start" x="461.5" y="-124.66" font-family="Times,serif" font-weight="bold" font-size="14.00">Client</text>
</g>
<!-- server&#45;&gt;client -->
<g id="edge6" class="edge">
<title>server&#45;&gt;client</title>
<path fill="none" stroke="black" d="M319.24,-127.36C351.78,-127.36 405.86,-127.36 442.09,-127.36"/>
<polygon fill="black" stroke="black" points="442.26,-130.86 452.26,-127.36 442.26,-123.86 442.26,-130.86"/>
<g id="a_edge6&#45;label"><a xlink:href="keymap-text-format-v1.html#the-xkb_keymap-block" target="_top" xlink:title="complete keymap:&lt;br/&gt;&lt;i&gt;xkb_keymap&lt;/i&gt; block =&lt;br/&gt;&lt;i&gt;xkb_keycodes&lt;/i&gt; +&lt;br/&gt;&lt;i&gt;xkb_compat&lt;/i&gt; +&lt;br/&gt;&lt;i&gt;xkb_symbols&lt;/i&gt; +&lt;br/&gt;&lt;i&gt;xkb_types&lt;/i&gt;">
<text text-anchor="start" x="335.25" y="-204.16" font-family="Times,serif" font-size="14.00">complete keymap:</text>
<text text-anchor="start" x="327.75" y="-190.16" font-family="Times,serif" font-style="italic" font-size="14.00">xkb_keymap</text>
<text text-anchor="start" x="394.75" y="-190.16" font-family="Times,serif" font-size="14.00"> block =</text>
<text text-anchor="start" x="340.25" y="-176.16" font-family="Times,serif" font-style="italic" font-size="14.00">xkb_keycodes</text>
<text text-anchor="start" x="415.25" y="-176.16" font-family="Times,serif" font-size="14.00"> +</text>
<text text-anchor="start" x="344.75" y="-162.16" font-family="Times,serif" font-style="italic" font-size="14.00">xkb_compat</text>
<text text-anchor="start" x="410.75" y="-162.16" font-family="Times,serif" font-size="14.00"> +</text>
<text text-anchor="start" x="342.75" y="-148.16" font-family="Times,serif" font-style="italic" font-size="14.00">xkb_symbols</text>
<text text-anchor="start" x="412.75" y="-148.16" font-family="Times,serif" font-size="14.00"> +</text>
<text text-anchor="start" x="358.75" y="-134.16" font-family="Times,serif" font-style="italic" font-size="14.00">xkb_types</text>
</a>
</g>
</g>
</g>
</svg>
