<?xml version="1.0" encoding="UTF-8" standalone="no"?>
<!DOCTYPE svg PUBLIC "-//W3C//DTD SVG 1.1//EN"
 "http://www.w3.org/Graphics/SVG/1.1/DTD/svg11.dtd">
<!-- Generated by graphviz version 2.49.3 (0)
 -->
<!-- Pages: 1 -->
<svg width="533pt" height="493pt"
 viewBox="0.00 0.00 533.36 493.00" xmlns="http://www.w3.org/2000/svg" xmlns:xlink="http://www.w3.org/1999/xlink">
<g id="graph0" class="graph" transform="scale(1 1) rotate(0) translate(4 489)">
<polygon fill="white" stroke="transparent" points="-4,4 -4,-489 529.36,-489 529.36,4 -4,4"/>
<!-- RMLVO -->
<g id="node1" class="node">
<title>RMLVO</title>
<g id="a_node1"><a xlink:href="xkb-intro.html#RMLVO-intro" target="_top" xlink:title="&lt;i&gt;End user configuration&lt;/i&gt;&lt;br/&gt;&lt;b&gt;RMLVO:&lt;/b&gt; &lt;b&gt;R&lt;/b&gt;ules, &lt;b&gt;M&lt;/b&gt;odel, &lt;b&gt;L&lt;/b&gt;ayout, &lt;b&gt;V&lt;/b&gt;ariant, &lt;b&gt;O&lt;/b&gt;ptions">
<polygon fill="none" stroke="black" stroke-width="3" points="329,-485 24,-485 24,-449 329,-449 329,-485"/>
<text text-anchor="start" x="113.5" y="-470.8" font-family="Times,serif" font-style="italic" font-size="14.00">End user configuration</text>
<text text-anchor="start" x="32" y="-456.8" font-family="Times,serif" font-weight="bold" font-size="14.00">RMLVO:</text>
<text text-anchor="start" x="88" y="-456.8" font-family="Times,serif" font-size="14.00"> </text>
<text text-anchor="start" x="92" y="-456.8" font-family="Times,serif" font-weight="bold" font-size="14.00">R</text>
<text text-anchor="start" x="102" y="-456.8" font-family="Times,serif" font-size="14.00">ules, </text>
<text text-anchor="start" x="132" y="-456.8" font-family="Times,serif" font-weight="bold" font-size="14.00">M</text>
<text text-anchor="start" x="146" y="-456.8" font-family="Times,serif" font-size="14.00">odel, </text>
<text text-anchor="start" x="177" y="-456.8" font-family="Times,serif" font-weight="bold" font-size="14.00">L</text>
<text text-anchor="start" x="187" y="-456.8" font-family="Times,serif" font-size="14.00">ayout, </text>
<text text-anchor="start" x="225" y="-456.8" font-family="Times,serif" font-weight="bold" font-size="14.00">V</text>
<text text-anchor="start" x="235" y="-456.8" font-family="Times,serif" font-size="14.00">ariant, </text>
<text text-anchor="start" x="275" y="-456.8" font-family="Times,serif" font-weight="bold" font-size="14.00">O</text>
<text text-anchor="start" x="287" y="-456.8" font-family="Times,serif" font-size="14.00">ptions</text>
</a>
</g>
</g>
<!-- RMLVO_resolution -->
<g id="node2" class="node">
<title>RMLVO_resolution</title>
<g id="a_node2"><a xlink:href="rule-file-format.html#rmlvo-resolution" target="_top" xlink:title="&lt;i&gt;RMLVO resolution&lt;/i&gt;&lt;br/&gt;Determine KcCGST using the specified rules file:&lt;br/&gt;match the given model, layout, variant and options fields">
<path fill="none" stroke="blue" d="M329,-413C329,-413 24,-413 24,-413 18,-413 12,-407 12,-401 12,-401 12,-375 12,-375 12,-369 18,-363 24,-363 24,-363 329,-363 329,-363 335,-363 341,-369 341,-375 341,-375 341,-401 341,-401 341,-407 335,-413 329,-413"/>
<text text-anchor="start" x="124.5" y="-398.8" font-family="Times,serif" font-style="italic" font-size="14.00">RMLVO resolution</text>
<text text-anchor="start" x="39.5" y="-384.8" font-family="Times,serif" font-size="14.00">Determine KcCGST using the specified rules file:</text>
<text text-anchor="start" x="20" y="-370.8" font-family="Times,serif" font-size="14.00">match the given model, layout, variant and options fields</text>
</a>
</g>
</g>
<!-- RMLVO&#45;&gt;RMLVO_resolution -->
<g id="edge1" class="edge">
<title>RMLVO&#45;&gt;RMLVO_resolution</title>
<path fill="none" stroke="blue" stroke-width="2" d="M176.5,-448.91C176.5,-441.33 176.5,-432.13 176.5,-423.23"/>
<polygon fill="blue" stroke="blue" stroke-width="2" points="180,-423.05 176.5,-413.05 173,-423.05 180,-423.05"/>
</g>
<!-- database -->
<g id="node6" class="node">
<title>database</title>
<polygon fill="none" stroke="black" points="379.5,-297.5 379.5,-322.5 488.5,-322.5 488.5,-297.5 379.5,-297.5"/>
<text text-anchor="start" x="384.5" y="-307.3" font-family="Times,serif" font-weight="bold" font-size="14.00">Layout Database</text>
<g id="a_node6_0"><a xlink:href="xkb-intro.html#config-rules-def" target="_top" xlink:title="&lt;TABLE&gt;">
<polygon fill="none" stroke="black" points="379.5,-272.5 379.5,-297.5 488.5,-297.5 488.5,-272.5 379.5,-272.5"/>
<text text-anchor="start" x="405" y="-281.3" font-family="Times,serif" font-size="14.00">Rules files</text>
</a>
</g>
<g id="a_node6_1"><a xlink:href="xkb-intro.html#config-keycodes-def" target="_top" xlink:title="&lt;TABLE&gt;">
<polygon fill="none" stroke="black" points="379.5,-247.5 379.5,-272.5 488.5,-272.5 488.5,-247.5 379.5,-247.5"/>
<text text-anchor="start" x="394" y="-256.3" font-family="Times,serif" font-size="14.00">Keycodes files</text>
</a>
</g>
<g id="a_node6_2"><a xlink:href="xkb-intro.html#config-compat-def" target="_top" xlink:title="&lt;TABLE&gt;">
<polygon fill="none" stroke="black" points="379.5,-222.5 379.5,-247.5 488.5,-247.5 488.5,-222.5 379.5,-222.5"/>
<text text-anchor="start" x="399" y="-231.3" font-family="Times,serif" font-size="14.00">Compat files</text>
</a>
</g>
<g id="a_node6_3"><a xlink:href="xkb-intro.html#config-geometry-def" target="_top" xlink:title="&lt;TABLE&gt;">
<polygon fill="none" stroke="black" points="379.5,-197.5 379.5,-222.5 488.5,-222.5 488.5,-197.5 379.5,-197.5"/>
<text text-anchor="start" x="388.5" y="-206.3" font-family="Times,serif" font-size="14.00">(Geometry files)</text>
</a>
</g>
<g id="a_node6_4"><a xlink:href="xkb-intro.html#config-symbols-def" target="_top" xlink:title="&lt;TABLE&gt;">
<polygon fill="none" stroke="black" points="379.5,-172.5 379.5,-197.5 488.5,-197.5 488.5,-172.5 379.5,-172.5"/>
<text text-anchor="start" x="396.5" y="-181.3" font-family="Times,serif" font-size="14.00">Symbols files</text>
</a>
</g>
<g id="a_node6_5"><a xlink:href="xkb-intro.html#config-types-def" target="_top" xlink:title="&lt;TABLE&gt;">
<polygon fill="none" stroke="black" points="379.5,-147.5 379.5,-172.5 488.5,-172.5 488.5,-147.5 379.5,-147.5"/>
<text text-anchor="start" x="405" y="-156.3" font-family="Times,serif" font-size="14.00">Types files</text>
</a>
</g>
<polygon fill="black" stroke="black" points="379.5,-297.5 379.5,-297.5 488.5,-297.5 488.5,-297.5 379.5,-297.5"/>
</g>
<!-- RMLVO&#45;&gt;database -->
<g id="edge5" class="edge">
<title>RMLVO:e&#45;&gt;database:e</title>
<path fill="none" stroke="dimgrey" d="M330.5,-467C434.08,-467 585.93,-297.7 499.58,-286.12"/>
<polygon fill="dimgrey" stroke="dimgrey" points="489.5,-285.5 499.76,-281.62 494.49,-285.81 499.48,-286.12 499.48,-286.12 499.48,-286.12 494.49,-285.81 499.2,-290.61 489.5,-285.5 489.5,-285.5"/>
</g>
<!-- KcCGST -->
<g id="node3" class="node">
<title>KcCGST</title>
<g id="a_node3"><a xlink:href="xkb-intro.html#KcCGST-intro" target="_top" xlink:title="&lt;i&gt;Layout database configuration&lt;/i&gt;&lt;br/&gt;&lt;b&gt;KcCGST:&lt;/b&gt; &lt;b&gt;K&lt;/b&gt;ey&lt;b&gt;c&lt;/b&gt;odes, &lt;b&gt;C&lt;/b&gt;ompat, &lt;b&gt;G&lt;/b&gt;eometry, &lt;b&gt;S&lt;/b&gt;ymbols, &lt;b&gt;T&lt;/b&gt;ypes">
<polygon fill="none" stroke="black" stroke-width="3" points="353,-253.5 0,-253.5 0,-217.5 353,-217.5 353,-253.5"/>
<text text-anchor="start" x="93" y="-239.3" font-family="Times,serif" font-style="italic" font-size="14.00">Layout database configuration</text>
<text text-anchor="start" x="8" y="-225.3" font-family="Times,serif" font-weight="bold" font-size="14.00">KcCGST:</text>
<text text-anchor="start" x="67" y="-225.3" font-family="Times,serif" font-size="14.00"> </text>
<text text-anchor="start" x="71" y="-225.3" font-family="Times,serif" font-weight="bold" font-size="14.00">K</text>
<text text-anchor="start" x="83" y="-225.3" font-family="Times,serif" font-size="14.00">ey</text>
<text text-anchor="start" x="96" y="-225.3" font-family="Times,serif" font-weight="bold" font-size="14.00">c</text>
<text text-anchor="start" x="103" y="-225.3" font-family="Times,serif" font-size="14.00">odes, </text>
<text text-anchor="start" x="136" y="-225.3" font-family="Times,serif" font-weight="bold" font-size="14.00">C</text>
<text text-anchor="start" x="146" y="-225.3" font-family="Times,serif" font-size="14.00">ompat, </text>
<text text-anchor="start" x="188" y="-225.3" font-family="Times,serif" font-weight="bold" font-size="14.00">G</text>
<text text-anchor="start" x="200" y="-225.3" font-family="Times,serif" font-size="14.00">eometry, </text>
<text text-anchor="start" x="253" y="-225.3" font-family="Times,serif" font-weight="bold" font-size="14.00">S</text>
<text text-anchor="start" x="261" y="-225.3" font-family="Times,serif" font-size="14.00">ymbols, </text>
<text text-anchor="start" x="310" y="-225.3" font-family="Times,serif" font-weight="bold" font-size="14.00">T</text>
<text text-anchor="start" x="320" y="-225.3" font-family="Times,serif" font-size="14.00">ypes</text>
</a>
</g>
</g>
<!-- RMLVO_resolution&#45;&gt;KcCGST -->
<g id="edge2" class="edge">
<title>RMLVO_resolution&#45;&gt;KcCGST</title>
<path fill="none" stroke="blue" stroke-width="2" d="M176.5,-362.82C176.5,-335.83 176.5,-292.23 176.5,-263.97"/>
<polygon fill="blue" stroke="blue" stroke-width="2" points="180,-263.6 176.5,-253.6 173,-263.6 180,-263.6"/>
</g>
<!-- KcCGST_resolution -->
<g id="node4" class="node">
<title>KcCGST_resolution</title>
<path fill="none" stroke="blue" d="M291.5,-108C291.5,-108 61.5,-108 61.5,-108 55.5,-108 49.5,-102 49.5,-96 49.5,-96 49.5,-84 49.5,-84 49.5,-78 55.5,-72 61.5,-72 61.5,-72 291.5,-72 291.5,-72 297.5,-72 303.5,-78 303.5,-84 303.5,-84 303.5,-96 303.5,-96 303.5,-102 297.5,-108 291.5,-108"/>
<text text-anchor="start" x="123" y="-93.8" font-family="Times,serif" font-style="italic" font-size="14.00">KcCGST resolution</text>
<text text-anchor="start" x="57.5" y="-79.8" font-family="Times,serif" font-size="14.00">Construct the keymap from its components</text>
</g>
<!-- KcCGST&#45;&gt;KcCGST_resolution -->
<g id="edge3" class="edge">
<title>KcCGST&#45;&gt;KcCGST_resolution</title>
<path fill="none" stroke="blue" stroke-width="2" d="M176.5,-217.48C176.5,-192.99 176.5,-147.56 176.5,-118.33"/>
<polygon fill="blue" stroke="blue" stroke-width="2" points="180,-118 176.5,-108 173,-118 180,-118"/>
</g>
<!-- KcCGST&#45;&gt;database -->
<g id="edge6" class="edge">
<title>KcCGST:e&#45;&gt;database:w</title>
<path fill="none" stroke="dimgrey" d="M353,-235.5C364.41,-235.5 364.39,-248.42 369.37,-255.68"/>
<polygon fill="dimgrey" stroke="dimgrey" points="378.5,-260.5 367.56,-259.81 374.08,-258.17 369.66,-255.83 369.66,-255.83 369.66,-255.83 374.08,-258.17 371.76,-251.85 378.5,-260.5 378.5,-260.5"/>
</g>
<!-- KcCGST&#45;&gt;database -->
<g id="edge7" class="edge">
<title>KcCGST:e&#45;&gt;database:w</title>
<path fill="none" stroke="dimgrey" d="M353,-235.5C360.09,-235.5 363.85,-235.11 368.44,-234.82"/>
<polygon fill="dimgrey" stroke="dimgrey" points="378.5,-234.5 368.65,-239.31 373.5,-234.66 368.5,-234.81 368.5,-234.81 368.5,-234.81 373.5,-234.66 368.36,-230.32 378.5,-234.5 378.5,-234.5"/>
</g>
<!-- KcCGST&#45;&gt;database -->
<g id="edge8" class="edge">
<title>KcCGST:e&#45;&gt;database:w</title>
<path fill="none" stroke="dimgrey" d="M353,-235.5C373.79,-235.5 360.58,-201.18 369.15,-188.85"/>
<polygon fill="dimgrey" stroke="dimgrey" points="378.5,-184.5 371.33,-192.8 373.97,-186.61 369.43,-188.72 369.43,-188.72 369.43,-188.72 373.97,-186.61 367.53,-184.64 378.5,-184.5 378.5,-184.5"/>
</g>
<!-- KcCGST&#45;&gt;database -->
<g id="edge9" class="edge">
<title>KcCGST:e&#45;&gt;database:w</title>
<path fill="none" stroke="dimgrey" d="M353,-235.5C384.17,-235.5 353.04,-177.31 368.64,-162.77"/>
<polygon fill="dimgrey" stroke="dimgrey" points="378.5,-159.5 370.42,-166.92 373.75,-161.07 369.01,-162.64 369.01,-162.64 369.01,-162.64 373.75,-161.07 367.59,-158.37 378.5,-159.5 378.5,-159.5"/>
</g>
<!-- Keymap -->
<g id="node5" class="node">
<title>Keymap</title>
<g id="a_node5"><a xlink:href="xkb-intro.html#keymap-intro" target="_top" xlink:title="&lt;i&gt;Display server configuration&lt;/i&gt;&lt;br/&gt;&lt;b&gt;Complete keymap&lt;/b&gt;">
<polygon fill="none" stroke="black" stroke-width="3" points="263,-36 90,-36 90,0 263,0 263,-36"/>
<text text-anchor="start" x="98" y="-21.8" font-family="Times,serif" font-style="italic" font-size="14.00">Display server configuration</text>
<text text-anchor="start" x="123.5" y="-7.8" font-family="Times,serif" font-weight="bold" font-size="14.00">Complete keymap</text>
</a>
</g>
</g>
<!-- KcCGST_resolution&#45;&gt;Keymap -->
<g id="edge4" class="edge">
<title>KcCGST_resolution&#45;&gt;Keymap</title>
<path fill="none" stroke="blue" stroke-width="2" d="M176.5,-71.7C176.5,-63.98 176.5,-54.71 176.5,-46.11"/>
<polygon fill="blue" stroke="blue" stroke-width="2" points="180,-46.1 176.5,-36.1 173,-46.1 180,-46.1"/>
</g>
<!-- database&#45;&gt;RMLVO_resolution -->
<g id="edge10" class="edge">
<title>database:w&#45;&gt;RMLVO_resolution:e</title>
<path fill="none" stroke="dimgrey" d="M378.5,-285.5C373.53,-285.5 355.89,-354.47 346.37,-379.26"/>
<polygon fill="dimgrey" stroke="dimgrey" points="341.5,-388 342.44,-377.07 343.93,-383.63 346.37,-379.26 346.37,-379.26 346.37,-379.26 343.93,-383.63 350.3,-381.46 341.5,-388 341.5,-388"/>
</g>
<!-- database&#45;&gt;KcCGST_resolution -->
<g id="edge11" class="edge">
<title>database:e&#45;&gt;KcCGST_resolution</title>
<path fill="none" stroke="dimgrey" d="M489.5,-260.5C541.28,-260.5 522.08,-183.42 488.5,-144 465.53,-117.04 386.55,-103.79 313.81,-97.28"/>
<polygon fill="dimgrey" stroke="dimgrey" points="303.6,-96.41 313.95,-92.78 308.58,-96.83 313.56,-97.26 313.56,-97.26 313.56,-97.26 308.58,-96.83 313.18,-101.74 303.6,-96.41 303.6,-96.41"/>
</g>
<!-- database&#45;&gt;KcCGST_resolution -->
<g id="edge12" class="edge">
<title>database:e&#45;&gt;KcCGST_resolution</title>
<path fill="none" stroke="dimgrey" d="M489.5,-234.5C529.72,-234.5 514.62,-174.59 488.5,-144 465.5,-117.06 386.52,-103.82 313.79,-97.3"/>
<polygon fill="dimgrey" stroke="dimgrey" points="303.57,-96.43 313.92,-92.8 308.56,-96.85 313.54,-97.28 313.54,-97.28 313.54,-97.28 308.56,-96.85 313.15,-101.76 303.57,-96.43 303.57,-96.43"/>
</g>
<!-- database&#45;&gt;KcCGST_resolution -->
<g id="edge13" class="edge">
<title>database:e&#45;&gt;KcCGST_resolution</title>
<path fill="none" stroke="dimgrey" d="M489.5,-184.5C507.51,-184.5 500.29,-157.61 488.5,-144 465.36,-117.27 386.63,-104.02 314.06,-97.46"/>
<polygon fill="dimgrey" stroke="dimgrey" points="303.86,-96.57 314.22,-92.95 308.85,-97 313.83,-97.44 313.83,-97.44 313.83,-97.44 308.85,-97 313.44,-101.92 303.86,-96.57 303.86,-96.57"/>
</g>
<!-- database&#45;&gt;KcCGST_resolution -->
<g id="edge14" class="edge">
<title>database:e&#45;&gt;KcCGST_resolution</title>
<path fill="none" stroke="dimgrey" d="M489.5,-159.5C496.4,-159.5 493.12,-149.13 488.5,-144 464.88,-117.79 386.4,-104.53 314.07,-97.84"/>
<polygon fill="dimgrey" stroke="dimgrey" points="303.91,-96.94 314.27,-93.34 308.89,-97.38 313.87,-97.82 313.87,-97.82 313.87,-97.82 308.89,-97.38 313.47,-102.3 303.91,-96.94 303.91,-96.94"/>
</g>
</g>
</svg>
