<?xml version="1.0" encoding="UTF-8" standalone="no"?>
<!DOCTYPE svg PUBLIC "-//W3C//DTD SVG 1.1//EN"
 "http://www.w3.org/Graphics/SVG/1.1/DTD/svg11.dtd">
<!-- Generated by graphviz version 2.49.3 (0)
 -->
<!-- Title: include/xkbcommon/xkbcommon.h Pages: 1 -->
<svg width="624pt" height="93pt"
 viewBox="0.00 0.00 623.50 93.00" xmlns="http://www.w3.org/2000/svg" xmlns:xlink="http://www.w3.org/1999/xlink">
<g id="graph0" class="graph" transform="scale(1 1) rotate(0) translate(4 89)">
<title>include/xkbcommon/xkbcommon.h</title>
<!-- Node1 -->
<g id="Node000001" class="node">
<title>Node1</title>
<g id="a_Node000001"><a xlink:title="Main libxkbcommon API.">
<polygon fill="#999999" stroke="#666666" points="294.5,-85 126.5,-85 126.5,-66 294.5,-66 294.5,-85"/>
<text text-anchor="middle" x="210.5" y="-73" font-family="Helvetica,sans-Serif" font-size="10.00">include/xkbcommon/xkbcommon.h</text>
</a>
</g>
</g>
<!-- Node2 -->
<g id="Node000002" class="node">
<title>Node2</title>
<g id="a_Node000002"><a xlink:title=" ">
<polygon fill="#e0e0e0" stroke="#999999" points="49,-24.5 0,-24.5 0,-5.5 49,-5.5 49,-24.5"/>
<text text-anchor="middle" x="24.5" y="-12.5" font-family="Helvetica,sans-Serif" font-size="10.00">stdint.h</text>
</a>
</g>
</g>
<!-- Node1&#45;&gt;Node2 -->
<g id="edge1_Node000001_Node000002" class="edge">
<title>Node1&#45;&gt;Node2</title>
<g id="a_edge1_Node000001_Node000002"><a xlink:title=" ">
<path fill="none" stroke="#63b8ff" d="M177.57,-65.94C146.56,-57.63 98.97,-44.21 58.5,-30 56.89,-29.43 55.24,-28.83 53.58,-28.21"/>
<polygon fill="#63b8ff" stroke="#63b8ff" points="54.73,-24.9 44.14,-24.5 52.17,-31.42 54.73,-24.9"/>
</a>
</g>
</g>
<!-- Node3 -->
<g id="Node000003" class="node">
<title>Node3</title>
<g id="a_Node000003"><a xlink:title=" ">
<polygon fill="#e0e0e0" stroke="#999999" points="113.5,-24.5 67.5,-24.5 67.5,-5.5 113.5,-5.5 113.5,-24.5"/>
<text text-anchor="middle" x="90.5" y="-12.5" font-family="Helvetica,sans-Serif" font-size="10.00">stdio.h</text>
</a>
</g>
</g>
<!-- Node1&#45;&gt;Node3 -->
<g id="edge2_Node000001_Node000003" class="edge">
<title>Node1&#45;&gt;Node3</title>
<g id="a_edge2_Node000001_Node000003"><a xlink:title=" ">
<path fill="none" stroke="#63b8ff" d="M193.05,-65.99C173.14,-56.29 140.36,-40.31 117.23,-29.03"/>
<polygon fill="#63b8ff" stroke="#63b8ff" points="118.49,-25.75 107.97,-24.52 115.43,-32.04 118.49,-25.75"/>
</a>
</g>
</g>
<!-- Node4 -->
<g id="Node000004" class="node">
<title>Node4</title>
<g id="a_Node000004"><a xlink:title=" ">
<polygon fill="#e0e0e0" stroke="#999999" points="183.5,-24.5 131.5,-24.5 131.5,-5.5 183.5,-5.5 183.5,-24.5"/>
<text text-anchor="middle" x="157.5" y="-12.5" font-family="Helvetica,sans-Serif" font-size="10.00">stdarg.h</text>
</a>
</g>
</g>
<!-- Node1&#45;&gt;Node4 -->
<g id="edge3_Node000001_Node000004" class="edge">
<title>Node1&#45;&gt;Node4</title>
<g id="a_edge3_Node000001_Node000004"><a xlink:title=" ">
<path fill="none" stroke="#63b8ff" d="M202.68,-65.87C194.69,-57.05 182.11,-43.16 172.24,-32.27"/>
<polygon fill="#63b8ff" stroke="#63b8ff" points="174.66,-29.73 165.35,-24.67 169.47,-34.43 174.66,-29.73"/>
</a>
</g>
</g>
<!-- Node5 -->
<g id="Node000005" class="node">
<title>Node5</title>
<g id="a_Node000005"><a xlink:href="xkbcommon-names_8h.html" target="_top" xlink:title="Predefined names for common modifiers and LEDs.">
<polygon fill="white" stroke="#666666" points="327.5,-30 201.5,-30 201.5,0 327.5,0 327.5,-30"/>
<text text-anchor="start" x="209.5" y="-18" font-family="Helvetica,sans-Serif" font-size="10.00">xkbcommon/xkbcommon</text>
<text text-anchor="middle" x="264.5" y="-7" font-family="Helvetica,sans-Serif" font-size="10.00">&#45;names.h</text>
</a>
</g>
</g>
<!-- Node1&#45;&gt;Node5 -->
<g id="edge4_Node000001_Node000005" class="edge">
<title>Node1&#45;&gt;Node5</title>
<g id="a_edge4_Node000001_Node000005"><a xlink:title=" ">
<path fill="none" stroke="#63b8ff" d="M218.47,-65.87C225.32,-58.44 235.5,-47.42 244.55,-37.62"/>
<polygon fill="#63b8ff" stroke="#63b8ff" points="247.26,-39.84 251.47,-30.11 242.12,-35.09 247.26,-39.84"/>
</a>
</g>
</g>
<!-- Node6 -->
<g id="Node000006" class="node">
<title>Node6</title>
<g id="a_Node000006"><a xlink:href="xkbcommon-keysyms_8h.html" target="_top" xlink:title="Key symbols (keysyms) definitions.">
<polygon fill="white" stroke="#666666" points="471.5,-30 345.5,-30 345.5,0 471.5,0 471.5,-30"/>
<text text-anchor="start" x="353.5" y="-18" font-family="Helvetica,sans-Serif" font-size="10.00">xkbcommon/xkbcommon</text>
<text text-anchor="middle" x="408.5" y="-7" font-family="Helvetica,sans-Serif" font-size="10.00">&#45;keysyms.h</text>
</a>
</g>
</g>
<!-- Node1&#45;&gt;Node6 -->
<g id="edge5_Node000001_Node000006" class="edge">
<title>Node1&#45;&gt;Node6</title>
<g id="a_edge5_Node000001_Node000006"><a xlink:title=" ">
<path fill="none" stroke="#63b8ff" d="M239.29,-65.99C268.53,-57.35 314.61,-43.74 351.3,-32.9"/>
<polygon fill="#63b8ff" stroke="#63b8ff" points="352.3,-36.25 360.9,-30.06 350.32,-29.54 352.3,-36.25"/>
</a>
</g>
</g>
<!-- Node7 -->
<g id="Node000007" class="node">
<title>Node7</title>
<g id="a_Node000007"><a xlink:title=" ">
<polygon fill="#e0e0e0" stroke="#999999" points="615.5,-30 489.5,-30 489.5,0 615.5,0 615.5,-30"/>
<text text-anchor="start" x="497.5" y="-18" font-family="Helvetica,sans-Serif" font-size="10.00">xkbcommon/xkbcommon</text>
<text text-anchor="middle" x="552.5" y="-7" font-family="Helvetica,sans-Serif" font-size="10.00">&#45;compat.h</text>
</a>
</g>
</g>
<!-- Node1&#45;&gt;Node7 -->
<g id="edge6_Node000001_Node000007" class="edge">
<title>Node1&#45;&gt;Node7</title>
<g id="a_edge6_Node000001_Node000007"><a xlink:title=" ">
<path fill="none" stroke="#63b8ff" d="M265.14,-65.97C317.49,-57.68 399.01,-44.51 479.04,-30.23"/>
<polygon fill="#63b8ff" stroke="#63b8ff" points="480.08,-33.6 489.3,-28.39 478.84,-26.71 480.08,-33.6"/>
</a>
</g>
</g>
</g>
</svg>
