<?xml version="1.0" encoding="UTF-8" standalone="no"?>
<!DOCTYPE svg PUBLIC "-//W3C//DTD SVG 1.1//EN"
 "http://www.w3.org/Graphics/SVG/1.1/DTD/svg11.dtd">
<!-- Generated by graphviz version 12.2.1 (0)
 -->
<!-- Title: Predefined names for common modifiers and LEDs Pages: 1 -->
<svg width="337pt" height="158pt"
 viewBox="0.00 0.00 337.00 157.75" xmlns="http://www.w3.org/2000/svg" xmlns:xlink="http://www.w3.org/1999/xlink">
<g id="graph0" class="graph" transform="scale(1 1) rotate(0) translate(4 153.75)">
<title>Predefined names for common modifiers and LEDs</title>
<!-- Node5 -->
<g id="Node000005" class="node">
<title>Node5</title>
<g id="a_Node000005"><a xlink:href="group__led-names.html" target="_top" xlink:title="LEDs names are encoded in xkeyboard&#45;config, in the keycodes and compat files.">
<polygon fill="white" stroke="#666666" points="300.12,-149.75 224.12,-149.75 224.12,-129 300.12,-129 300.12,-149.75"/>
<text text-anchor="middle" x="262.12" y="-136.25" font-family="Helvetica,sans-Serif" font-size="10.00">LEDs names</text>
</a>
</g>
</g>
<!-- Node4 -->
<g id="Node000004" class="node">
<title>Node4</title>
<g id="a_Node000004"><a xlink:href="group__legacy-virtual-modifier-names.html" target="_top" xlink:title="Usual virtual modifiers mappings to real modifiers.">
<polygon fill="white" stroke="#666666" points="326.75,-111.12 197.5,-111.12 197.5,-77.62 326.75,-77.62 326.75,-111.12"/>
<text text-anchor="start" x="205.5" y="-97.62" font-family="Helvetica,sans-Serif" font-size="10.00">Legacy virtual modifier</text>
<text text-anchor="middle" x="262.12" y="-84.88" font-family="Helvetica,sans-Serif" font-size="10.00"> names</text>
</a>
</g>
</g>
<!-- Node1 -->
<g id="Node000001" class="node">
<title>Node1</title>
<g id="a_Node000001"><a xlink:title=" ">
<polygon fill="#999999" stroke="#666666" points="159.25,-88.12 0,-88.12 0,-54.62 159.25,-54.62 159.25,-88.12"/>
<text text-anchor="start" x="8" y="-74.62" font-family="Helvetica,sans-Serif" font-size="10.00">Predefined names for</text>
<text text-anchor="middle" x="79.62" y="-61.88" font-family="Helvetica,sans-Serif" font-size="10.00"> common modifiers and LEDs</text>
</a>
</g>
</g>
<!-- Node1&#45;&gt;Node5 -->
<g id="edge4" class="edge">
<title>Node1&#45;&gt;Node5</title>
<path fill="none" stroke="black" d="M127.91,-93.14C148.39,-102.16 172.77,-112.36 195.25,-120.38 204.44,-123.65 214.51,-126.78 223.94,-129.52"/>
<polygon fill="black" stroke="black" points="129.53,-90.03 118.97,-89.17 126.69,-96.43 129.53,-90.03"/>
</g>
<!-- Node1&#45;&gt;Node4 -->
<g id="edge3" class="edge">
<title>Node1&#45;&gt;Node4</title>
<path fill="none" stroke="black" d="M170.74,-82.86C179.6,-83.99 188.47,-85.12 197,-86.2"/>
<polygon fill="black" stroke="black" points="171.4,-79.41 161.03,-81.62 170.51,-86.36 171.4,-79.41"/>
</g>
<!-- Node2 -->
<g id="Node000002" class="node">
<title>Node2</title>
<g id="a_Node000002"><a xlink:href="group__real-modifier-names.html" target="_top" xlink:title="Real modifiers names are hardcoded in libxkbcommon.">
<polygon fill="white" stroke="#666666" points="323.75,-59.75 200.5,-59.75 200.5,-39 323.75,-39 323.75,-59.75"/>
<text text-anchor="middle" x="262.12" y="-46.25" font-family="Helvetica,sans-Serif" font-size="10.00">Real modifiers names</text>
</a>
</g>
</g>
<!-- Node1&#45;&gt;Node2 -->
<g id="edge1" class="edge">
<title>Node1&#45;&gt;Node2</title>
<path fill="none" stroke="black" d="M170.71,-60.39C180.64,-59.18 190.57,-57.97 200.02,-56.82"/>
<polygon fill="black" stroke="black" points="170.54,-56.89 161.03,-61.57 171.38,-63.84 170.54,-56.89"/>
</g>
<!-- Node3 -->
<g id="Node000003" class="node">
<title>Node3</title>
<g id="a_Node000003"><a xlink:href="group__virtual-modifier-names.html" target="_top" xlink:title="Common virtual modifiers, encoded in xkeyboard&#45;config in the compat and symbols files.">
<polygon fill="white" stroke="#666666" points="329,-20.75 195.25,-20.75 195.25,0 329,0 329,-20.75"/>
<text text-anchor="middle" x="262.12" y="-7.25" font-family="Helvetica,sans-Serif" font-size="10.00">Virtual modifiers names</text>
</a>
</g>
</g>
<!-- Node1&#45;&gt;Node3 -->
<g id="edge2" class="edge">
<title>Node1&#45;&gt;Node3</title>
<path fill="none" stroke="black" d="M137.81,-50.3C156.09,-43.73 176.47,-36.58 195.25,-30.38 204.67,-27.26 214.91,-24.07 224.44,-21.17"/>
<polygon fill="black" stroke="black" points="136.66,-47 128.44,-53.69 139.03,-53.58 136.66,-47"/>
</g>
</g>
</svg>
