<?xml version="1.0" encoding="UTF-8" standalone="no"?>
<!DOCTYPE svg PUBLIC "-//W3C//DTD SVG 1.1//EN"
 "http://www.w3.org/Graphics/SVG/1.1/DTD/svg11.dtd">
<!-- Generated by graphviz version 12.2.1 (0)
 -->
<!-- Title: include/xkbcommon/xkbcommon&#45;x11.h Pages: 1 -->
<svg width="757pt" height="168pt"
 viewBox="0.00 0.00 756.75 167.75" xmlns="http://www.w3.org/2000/svg" xmlns:xlink="http://www.w3.org/1999/xlink">
<g id="graph0" class="graph" transform="scale(1 1) rotate(0) translate(4 163.75)">
<title>include/xkbcommon/xkbcommon&#45;x11.h</title>
<!-- Node1 -->
<g id="Node000001" class="node">
<title>Node1</title>
<g id="a_Node000001"><a xlink:title="libxkbcommon&#45;x11 API &#45; Additional X11 support for xkbcommon.">
<polygon fill="#999999" stroke="#666666" points="271.88,-159.75 93.12,-159.75 93.12,-126.25 271.88,-126.25 271.88,-159.75"/>
<text text-anchor="start" x="101.12" y="-146.25" font-family="Helvetica,sans-Serif" font-size="10.00">include/xkbcommon/xkbcommon</text>
<text text-anchor="middle" x="182.5" y="-133.5" font-family="Helvetica,sans-Serif" font-size="10.00">&#45;x11.h</text>
</a>
</g>
</g>
<!-- Node2 -->
<g id="Node000002" class="node">
<title>Node2</title>
<g id="a_Node000002"><a xlink:title=" ">
<polygon fill="#e0e0e0" stroke="#999999" points="151.75,-90.25 89.25,-90.25 89.25,-69.5 151.75,-69.5 151.75,-90.25"/>
<text text-anchor="middle" x="120.5" y="-76.75" font-family="Helvetica,sans-Serif" font-size="10.00">xcb/xcb.h</text>
</a>
</g>
</g>
<!-- Node1&#45;&gt;Node2 -->
<g id="edge1_Node000001_Node000002" class="edge">
<title>Node1&#45;&gt;Node2</title>
<g id="a_edge1_Node000001_Node000002"><a xlink:title=" ">
<path fill="none" stroke="#63b8ff" d="M166.21,-125.94C157.71,-117.56 147.28,-107.28 138.54,-98.66"/>
<polygon fill="#63b8ff" stroke="#63b8ff" points="141.14,-96.31 131.56,-91.78 136.22,-101.29 141.14,-96.31"/>
</a>
</g>
</g>
<!-- Node3 -->
<g id="Node000003" class="node">
<title>Node3</title>
<g id="a_Node000003"><a xlink:href="xkbcommon_8h.html" target="_top" xlink:title="Main libxkbcommon API.">
<polygon fill="white" stroke="#666666" points="319.25,-90.25 169.75,-90.25 169.75,-69.5 319.25,-69.5 319.25,-90.25"/>
<text text-anchor="middle" x="244.5" y="-76.75" font-family="Helvetica,sans-Serif" font-size="10.00">xkbcommon/xkbcommon.h</text>
</a>
</g>
</g>
<!-- Node1&#45;&gt;Node3 -->
<g id="edge2_Node000001_Node000003" class="edge">
<title>Node1&#45;&gt;Node3</title>
<g id="a_edge2_Node000001_Node000003"><a xlink:title=" ">
<path fill="none" stroke="#63b8ff" d="M198.79,-125.94C207.29,-117.56 217.72,-107.28 226.46,-98.66"/>
<polygon fill="#63b8ff" stroke="#63b8ff" points="228.78,-101.29 233.44,-91.78 223.86,-96.31 228.78,-101.29"/>
</a>
</g>
</g>
<!-- Node4 -->
<g id="Node000004" class="node">
<title>Node4</title>
<g id="a_Node000004"><a xlink:title=" ">
<polygon fill="#e0e0e0" stroke="#999999" points="61,-27.12 0,-27.12 0,-6.38 61,-6.38 61,-27.12"/>
<text text-anchor="middle" x="30.5" y="-13.62" font-family="Helvetica,sans-Serif" font-size="10.00">stdbool.h</text>
</a>
</g>
</g>
<!-- Node3&#45;&gt;Node4 -->
<g id="edge3_Node000003_Node000004" class="edge">
<title>Node3&#45;&gt;Node4</title>
<g id="a_edge3_Node000003_Node000004"><a xlink:title=" ">
<path fill="none" stroke="#63b8ff" d="M200.82,-69.02C165.37,-60.66 114.28,-47.77 70.5,-33.5 68.56,-32.87 66.58,-32.19 64.59,-31.49"/>
<polygon fill="#63b8ff" stroke="#63b8ff" points="66.03,-28.29 55.44,-28.08 63.59,-34.85 66.03,-28.29"/>
</a>
</g>
</g>
<!-- Node5 -->
<g id="Node000005" class="node">
<title>Node5</title>
<g id="a_Node000005"><a xlink:title=" ">
<polygon fill="#e0e0e0" stroke="#999999" points="131.88,-27.12 79.12,-27.12 79.12,-6.38 131.88,-6.38 131.88,-27.12"/>
<text text-anchor="middle" x="105.5" y="-13.62" font-family="Helvetica,sans-Serif" font-size="10.00">stdint.h</text>
</a>
</g>
</g>
<!-- Node3&#45;&gt;Node5 -->
<g id="edge4_Node000003_Node000005" class="edge">
<title>Node3&#45;&gt;Node5</title>
<g id="a_edge4_Node000003_Node000005"><a xlink:title=" ">
<path fill="none" stroke="#63b8ff" d="M222.17,-69.05C199.47,-59.07 164.07,-43.5 138.21,-32.13"/>
<polygon fill="#63b8ff" stroke="#63b8ff" points="139.73,-28.98 129.16,-28.16 136.91,-35.39 139.73,-28.98"/>
</a>
</g>
</g>
<!-- Node6 -->
<g id="Node000006" class="node">
<title>Node6</title>
<g id="a_Node000006"><a xlink:title=" ">
<polygon fill="#e0e0e0" stroke="#999999" points="199,-27.12 150,-27.12 150,-6.38 199,-6.38 199,-27.12"/>
<text text-anchor="middle" x="174.5" y="-13.62" font-family="Helvetica,sans-Serif" font-size="10.00">stdio.h</text>
</a>
</g>
</g>
<!-- Node3&#45;&gt;Node6 -->
<g id="edge5_Node000003_Node000006" class="edge">
<title>Node3&#45;&gt;Node6</title>
<g id="a_edge5_Node000003_Node000006"><a xlink:title=" ">
<path fill="none" stroke="#63b8ff" d="M233.25,-69.05C222.68,-59.82 206.63,-45.81 193.98,-34.76"/>
<polygon fill="#63b8ff" stroke="#63b8ff" points="196.46,-32.28 186.63,-28.34 191.86,-37.55 196.46,-32.28"/>
</a>
</g>
</g>
<!-- Node7 -->
<g id="Node000007" class="node">
<title>Node7</title>
<g id="a_Node000007"><a xlink:title=" ">
<polygon fill="#e0e0e0" stroke="#999999" points="272.38,-27.12 216.62,-27.12 216.62,-6.38 272.38,-6.38 272.38,-27.12"/>
<text text-anchor="middle" x="244.5" y="-13.62" font-family="Helvetica,sans-Serif" font-size="10.00">stdarg.h</text>
</a>
</g>
</g>
<!-- Node3&#45;&gt;Node7 -->
<g id="edge6_Node000003_Node000007" class="edge">
<title>Node3&#45;&gt;Node7</title>
<g id="a_edge6_Node000003_Node000007"><a xlink:title=" ">
<path fill="none" stroke="#63b8ff" d="M244.5,-69.05C244.5,-60.9 244.5,-49.01 244.5,-38.73"/>
<polygon fill="#63b8ff" stroke="#63b8ff" points="248,-38.86 244.5,-28.86 241,-38.86 248,-38.86"/>
</a>
</g>
</g>
<!-- Node8 -->
<g id="Node000008" class="node">
<title>Node8</title>
<g id="a_Node000008"><a xlink:href="xkbcommon-names_8h.html" target="_top" xlink:title="Predefined names for common modifiers and LEDs.">
<polygon fill="white" stroke="#666666" points="430.75,-33.5 290.25,-33.5 290.25,0 430.75,0 430.75,-33.5"/>
<text text-anchor="start" x="298.25" y="-20" font-family="Helvetica,sans-Serif" font-size="10.00">xkbcommon/xkbcommon</text>
<text text-anchor="middle" x="360.5" y="-7.25" font-family="Helvetica,sans-Serif" font-size="10.00">&#45;names.h</text>
</a>
</g>
</g>
<!-- Node3&#45;&gt;Node8 -->
<g id="edge7_Node000003_Node000008" class="edge">
<title>Node3&#45;&gt;Node8</title>
<g id="a_edge7_Node000003_Node000008"><a xlink:title=" ">
<path fill="none" stroke="#63b8ff" d="M263.14,-69.05C278.34,-61.04 300.37,-49.44 319.63,-39.29"/>
<polygon fill="#63b8ff" stroke="#63b8ff" points="321.14,-42.45 328.35,-34.69 317.87,-36.26 321.14,-42.45"/>
</a>
</g>
</g>
<!-- Node9 -->
<g id="Node000009" class="node">
<title>Node9</title>
<g id="a_Node000009"><a xlink:href="xkbcommon-keysyms_8h.html" target="_top" xlink:title="Key symbols (keysyms) definitions.">
<polygon fill="white" stroke="#666666" points="589.75,-33.5 449.25,-33.5 449.25,0 589.75,0 589.75,-33.5"/>
<text text-anchor="start" x="457.25" y="-20" font-family="Helvetica,sans-Serif" font-size="10.00">xkbcommon/xkbcommon</text>
<text text-anchor="middle" x="519.5" y="-7.25" font-family="Helvetica,sans-Serif" font-size="10.00">&#45;keysyms.h</text>
</a>
</g>
</g>
<!-- Node3&#45;&gt;Node9 -->
<g id="edge8_Node000003_Node000009" class="edge">
<title>Node3&#45;&gt;Node9</title>
<g id="a_edge8_Node000003_Node000009"><a xlink:title=" ">
<path fill="none" stroke="#63b8ff" d="M288.68,-69.05C328.76,-60.15 388.85,-46.79 437.68,-35.94"/>
<polygon fill="#63b8ff" stroke="#63b8ff" points="438.39,-39.36 447.39,-33.78 436.87,-32.53 438.39,-39.36"/>
</a>
</g>
</g>
<!-- Node10 -->
<g id="Node000010" class="node">
<title>Node10</title>
<g id="a_Node000010"><a xlink:title=" ">
<polygon fill="#e0e0e0" stroke="#999999" points="748.75,-33.5 608.25,-33.5 608.25,0 748.75,0 748.75,-33.5"/>
<text text-anchor="start" x="616.25" y="-20" font-family="Helvetica,sans-Serif" font-size="10.00">xkbcommon/xkbcommon</text>
<text text-anchor="middle" x="678.5" y="-7.25" font-family="Helvetica,sans-Serif" font-size="10.00">&#45;compat.h</text>
</a>
</g>
</g>
<!-- Node3&#45;&gt;Node10 -->
<g id="edge9_Node000003_Node000010" class="edge">
<title>Node3&#45;&gt;Node10</title>
<g id="a_edge9_Node000003_Node000010"><a xlink:title=" ">
<path fill="none" stroke="#63b8ff" d="M319.64,-70.72C388.92,-62.87 494.86,-50.01 596.76,-33.71"/>
<polygon fill="#63b8ff" stroke="#63b8ff" points="597.07,-37.21 606.38,-32.16 595.95,-30.3 597.07,-37.21"/>
</a>
</g>
</g>
</g>
</svg>
