<?xml version="1.0" encoding="UTF-8" standalone="no"?>
<!DOCTYPE svg PUBLIC "-//W3C//DTD SVG 1.1//EN"
 "http://www.w3.org/Graphics/SVG/1.1/DTD/svg11.dtd">
<!-- Generated by graphviz version 14.0.0 (0)
 -->
<!-- Pages: 1 -->
<svg width="638pt" height="509pt"
 viewBox="0.00 0.00 638.00 509.00" xmlns="http://www.w3.org/2000/svg" xmlns:xlink="http://www.w3.org/1999/xlink">
<g id="graph0" class="graph" transform="scale(1 1) rotate(0) translate(4 504.75)">
<polygon fill="white" stroke="none" points="-4,4 -4,-504.75 634.1,-504.75 634.1,4 -4,4"/>
<!-- RMLVO -->
<g id="node1" class="node">
<title>RMLVO</title>
<g id="a_node1"><a xlink:href="xkb-intro.html#RMLVO-intro" target="_top" xlink:title="&lt;i&gt;End user configuration&lt;/i&gt;&lt;br/&gt;&lt;b&gt;RMLVO:&lt;/b&gt; &lt;b&gt;R&lt;/b&gt;ules, &lt;b&gt;M&lt;/b&gt;odel, &lt;b&gt;L&lt;/b&gt;ayout, &lt;b&gt;V&lt;/b&gt;ariant, &lt;b&gt;O&lt;/b&gt;ptions">
<polygon fill="none" stroke="black" stroke-width="3" points="395.5,-500.75 29.25,-500.75 29.25,-464.75 395.5,-464.75 395.5,-500.75"/>
<text xml:space="preserve" text-anchor="start" x="130.25" y="-484.45" font-family="Times,serif" font-style="italic" font-size="14.00">End user configuration</text>
<text xml:space="preserve" text-anchor="start" x="37.25" y="-470.45" font-family="Times,serif" font-weight="bold" font-size="14.00">RMLVO:</text>
<text xml:space="preserve" text-anchor="start" x="101" y="-470.45" font-family="Times,serif" font-size="14.00"> </text>
<text xml:space="preserve" text-anchor="start" x="105.5" y="-470.45" font-family="Times,serif" font-weight="bold" font-size="14.00">R</text>
<text xml:space="preserve" text-anchor="start" x="117.5" y="-470.45" font-family="Times,serif" font-size="14.00">ules, </text>
<text xml:space="preserve" text-anchor="start" x="155.75" y="-470.45" font-family="Times,serif" font-weight="bold" font-size="14.00">M</text>
<text xml:space="preserve" text-anchor="start" x="171.5" y="-470.45" font-family="Times,serif" font-size="14.00">odel, </text>
<text xml:space="preserve" text-anchor="start" x="210.5" y="-470.45" font-family="Times,serif" font-weight="bold" font-size="14.00">L</text>
<text xml:space="preserve" text-anchor="start" x="220.25" y="-470.45" font-family="Times,serif" font-size="14.00">ayout, </text>
<text xml:space="preserve" text-anchor="start" x="269" y="-470.45" font-family="Times,serif" font-weight="bold" font-size="14.00">V</text>
<text xml:space="preserve" text-anchor="start" x="279.5" y="-470.45" font-family="Times,serif" font-size="14.00">ariant, </text>
<text xml:space="preserve" text-anchor="start" x="331.25" y="-470.45" font-family="Times,serif" font-weight="bold" font-size="14.00">O</text>
<text xml:space="preserve" text-anchor="start" x="343.25" y="-470.45" font-family="Times,serif" font-size="14.00">ptions</text>
</a>
</g>
</g>
<!-- RMLVO_resolution -->
<g id="node2" class="node">
<title>RMLVO_resolution</title>
<g id="a_node2"><a xlink:href="rule-file-format.html#rmlvo-resolution" target="_top" xlink:title="&lt;i&gt;RMLVO resolution&lt;/i&gt;&lt;br/&gt;Determine KcCGST using the specified rules file:&lt;br/&gt;match the given model, layout, variant and options fields">
<path fill="none" stroke="blue" d="M412.38,-428.75C412.38,-428.75 12.38,-428.75 12.38,-428.75 6.38,-428.75 0.38,-422.75 0.38,-416.75 0.38,-416.75 0.38,-390.75 0.38,-390.75 0.38,-384.75 6.38,-378.75 12.38,-378.75 12.38,-378.75 412.38,-378.75 412.38,-378.75 418.38,-378.75 424.38,-384.75 424.38,-390.75 424.38,-390.75 424.38,-416.75 424.38,-416.75 424.38,-422.75 418.38,-428.75 412.38,-428.75"/>
<text xml:space="preserve" text-anchor="start" x="147.5" y="-412.45" font-family="Times,serif" font-style="italic" font-size="14.00">RMLVO resolution</text>
<text xml:space="preserve" text-anchor="start" x="37.25" y="-398.45" font-family="Times,serif" font-size="14.00">Determine KcCGST using the specified rules file:</text>
<text xml:space="preserve" text-anchor="start" x="8.38" y="-384.45" font-family="Times,serif" font-size="14.00">match the given model, layout, variant and options fields</text>
</a>
</g>
</g>
<!-- RMLVO&#45;&gt;RMLVO_resolution -->
<g id="edge1" class="edge">
<title>RMLVO&#45;&gt;RMLVO_resolution</title>
<path fill="none" stroke="blue" stroke-width="2" d="M212.38,-463.5C212.38,-456.57 212.38,-448.41 212.38,-440.42"/>
<polygon fill="blue" stroke="blue" stroke-width="2" points="215.88,-442.01 212.38,-432.01 208.88,-442.01 215.88,-442.01"/>
</g>
<!-- database -->
<g id="node6" class="node">
<title>database</title>
<polygon fill="none" stroke="black" points="451.12,-311.5 451.12,-338.75 591.62,-338.75 591.62,-311.5 451.12,-311.5"/>
<text xml:space="preserve" text-anchor="start" x="456.12" y="-321.45" font-family="Times,serif" font-weight="bold" font-size="14.00">Layout Database</text>
<g id="a_node6_0"><a xlink:href="xkb-intro.html#config-rules-def" target="_top" xlink:title="&lt;TABLE&gt;">
<polygon fill="none" stroke="black" points="451.12,-284.25 451.12,-311.5 591.62,-311.5 591.62,-284.25 451.12,-284.25"/>
<text xml:space="preserve" text-anchor="start" x="484.25" y="-293.2" font-family="Times,serif" font-size="14.00">Rules files</text>
</a>
</g>
<g id="a_node6_1"><a xlink:href="xkb-intro.html#config-keycodes-def" target="_top" xlink:title="&lt;TABLE&gt;">
<polygon fill="none" stroke="black" points="451.12,-257 451.12,-284.25 591.62,-284.25 591.62,-257 451.12,-257"/>
<text xml:space="preserve" text-anchor="start" x="470.38" y="-265.95" font-family="Times,serif" font-size="14.00">Keycodes files</text>
</a>
</g>
<g id="a_node6_2"><a xlink:href="xkb-intro.html#config-compat-def" target="_top" xlink:title="&lt;TABLE&gt;">
<polygon fill="none" stroke="black" points="451.12,-229.75 451.12,-257 591.62,-257 591.62,-229.75 451.12,-229.75"/>
<text xml:space="preserve" text-anchor="start" x="476.38" y="-238.7" font-family="Times,serif" font-size="14.00">Compat files</text>
</a>
</g>
<g id="a_node6_3"><a xlink:href="xkb-intro.html#config-geometry-def" target="_top" xlink:title="&lt;TABLE&gt;">
<polygon fill="none" stroke="black" points="451.12,-202.5 451.12,-229.75 591.62,-229.75 591.62,-202.5 451.12,-202.5"/>
<text xml:space="preserve" text-anchor="start" x="463.62" y="-211.45" font-family="Times,serif" font-size="14.00">(Geometry files)</text>
</a>
</g>
<g id="a_node6_4"><a xlink:href="xkb-intro.html#config-symbols-def" target="_top" xlink:title="&lt;TABLE&gt;">
<polygon fill="none" stroke="black" points="451.12,-175.25 451.12,-202.5 591.62,-202.5 591.62,-175.25 451.12,-175.25"/>
<text xml:space="preserve" text-anchor="start" x="473.75" y="-184.2" font-family="Times,serif" font-size="14.00">Symbols files</text>
</a>
</g>
<g id="a_node6_5"><a xlink:href="xkb-intro.html#config-types-def" target="_top" xlink:title="&lt;TABLE&gt;">
<polygon fill="none" stroke="black" points="451.12,-148 451.12,-175.25 591.62,-175.25 591.62,-148 451.12,-148"/>
<text xml:space="preserve" text-anchor="start" x="483.12" y="-156.95" font-family="Times,serif" font-size="14.00">Types files</text>
</a>
</g>
<polygon fill="black" stroke="black" points="451.12,-311.5 451.12,-311.5 591.62,-311.5 591.62,-311.5 451.12,-311.5"/>
</g>
<!-- RMLVO&#45;&gt;database -->
<g id="edge5" class="edge">
<title>RMLVO:e&#45;&gt;database:e</title>
<path fill="none" stroke="dimgrey" d="M396.5,-482.75C512.19,-482.75 699.1,-310.3 603.82,-298.51"/>
<polygon fill="dimgrey" stroke="dimgrey" points="593.84,-297.94 604.08,-294.02 597.62,-298.16 603.83,-298.51 603.83,-298.51 603.83,-298.51 597.62,-298.16 603.57,-303 593.84,-297.94"/>
</g>
<!-- KcCGST -->
<g id="node3" class="node">
<title>KcCGST</title>
<g id="a_node3"><a xlink:href="xkb-intro.html#KcCGST-intro" target="_top" xlink:title="&lt;i&gt;Layout database configuration&lt;/i&gt;&lt;br/&gt;&lt;b&gt;KcCGST:&lt;/b&gt; &lt;b&gt;K&lt;/b&gt;ey&lt;b&gt;c&lt;/b&gt;odes, &lt;b&gt;C&lt;/b&gt;ompat, &lt;b&gt;G&lt;/b&gt;eometry, &lt;b&gt;S&lt;/b&gt;ymbols, &lt;b&gt;T&lt;/b&gt;ypes">
<polygon fill="none" stroke="black" stroke-width="3" points="424.75,-261.38 0,-261.38 0,-225.38 424.75,-225.38 424.75,-261.38"/>
<text xml:space="preserve" text-anchor="start" x="103.62" y="-245.07" font-family="Times,serif" font-style="italic" font-size="14.00">Layout database configuration</text>
<text xml:space="preserve" text-anchor="start" x="8" y="-231.07" font-family="Times,serif" font-weight="bold" font-size="14.00">KcCGST:</text>
<text xml:space="preserve" text-anchor="start" x="77" y="-231.07" font-family="Times,serif" font-size="14.00"> </text>
<text xml:space="preserve" text-anchor="start" x="81.5" y="-231.07" font-family="Times,serif" font-weight="bold" font-size="14.00">K</text>
<text xml:space="preserve" text-anchor="start" x="93.5" y="-231.07" font-family="Times,serif" font-size="14.00">ey</text>
<text xml:space="preserve" text-anchor="start" x="110" y="-231.07" font-family="Times,serif" font-weight="bold" font-size="14.00">c</text>
<text xml:space="preserve" text-anchor="start" x="118.25" y="-231.07" font-family="Times,serif" font-size="14.00">odes, </text>
<text xml:space="preserve" text-anchor="start" x="160.25" y="-231.07" font-family="Times,serif" font-weight="bold" font-size="14.00">C</text>
<text xml:space="preserve" text-anchor="start" x="171.5" y="-231.07" font-family="Times,serif" font-size="14.00">ompat, </text>
<text xml:space="preserve" text-anchor="start" x="225.5" y="-231.07" font-family="Times,serif" font-weight="bold" font-size="14.00">G</text>
<text xml:space="preserve" text-anchor="start" x="237.5" y="-231.07" font-family="Times,serif" font-size="14.00">eometry, </text>
<text xml:space="preserve" text-anchor="start" x="303.5" y="-231.07" font-family="Times,serif" font-weight="bold" font-size="14.00">S</text>
<text xml:space="preserve" text-anchor="start" x="313.25" y="-231.07" font-family="Times,serif" font-size="14.00">ymbols, </text>
<text xml:space="preserve" text-anchor="start" x="373.25" y="-231.07" font-family="Times,serif" font-weight="bold" font-size="14.00">T</text>
<text xml:space="preserve" text-anchor="start" x="383.75" y="-231.07" font-family="Times,serif" font-size="14.00">ypes</text>
</a>
</g>
</g>
<!-- RMLVO_resolution&#45;&gt;KcCGST -->
<g id="edge2" class="edge">
<title>RMLVO_resolution&#45;&gt;KcCGST</title>
<path fill="none" stroke="blue" stroke-width="2" d="M212.38,-378.35C212.38,-350.29 212.38,-304.21 212.38,-274.09"/>
<polygon fill="blue" stroke="blue" stroke-width="2" points="215.88,-275.66 212.38,-265.66 208.88,-275.66 215.88,-275.66"/>
</g>
<!-- KcCGST_resolution -->
<g id="node4" class="node">
<title>KcCGST_resolution</title>
<path fill="none" stroke="blue" d="M363.25,-108C363.25,-108 61.5,-108 61.5,-108 55.5,-108 49.5,-102 49.5,-96 49.5,-96 49.5,-84 49.5,-84 49.5,-78 55.5,-72 61.5,-72 61.5,-72 363.25,-72 363.25,-72 369.25,-72 375.25,-78 375.25,-84 375.25,-84 375.25,-96 375.25,-96 375.25,-102 369.25,-108 363.25,-108"/>
<text xml:space="preserve" text-anchor="start" x="144.88" y="-91.7" font-family="Times,serif" font-style="italic" font-size="14.00">KcCGST resolution</text>
<text xml:space="preserve" text-anchor="start" x="57.5" y="-77.7" font-family="Times,serif" font-size="14.00">Construct the keymap from its components</text>
</g>
<!-- KcCGST&#45;&gt;KcCGST_resolution -->
<g id="edge3" class="edge">
<title>KcCGST&#45;&gt;KcCGST_resolution</title>
<path fill="none" stroke="blue" stroke-width="2" d="M212.38,-224.12C212.38,-198.15 212.38,-150.32 212.38,-119.62"/>
<polygon fill="blue" stroke="blue" stroke-width="2" points="215.88,-121.42 212.38,-111.42 208.88,-121.42 215.88,-121.42"/>
</g>
<!-- KcCGST&#45;&gt;database -->
<g id="edge6" class="edge">
<title>KcCGST:e&#45;&gt;database:w</title>
<path fill="none" stroke="dimgrey" d="M424.75,-243.38C436.39,-243.38 436.02,-256.85 440.53,-264.85"/>
<polygon fill="dimgrey" stroke="dimgrey" points="449.08,-270 438.19,-268.69 445.84,-268.04 440.52,-264.84 440.52,-264.84 440.52,-264.84 445.84,-268.04 442.84,-260.98 449.08,-270"/>
</g>
<!-- KcCGST&#45;&gt;database -->
<g id="edge7" class="edge">
<title>KcCGST:e&#45;&gt;database:w</title>
<path fill="none" stroke="dimgrey" d="M424.75,-243.38C431.27,-243.38 434.96,-243.38 439.1,-243.38"/>
<polygon fill="dimgrey" stroke="dimgrey" points="448.91,-243.38 438.91,-247.88 445.12,-243.38 438.91,-243.38 438.91,-243.38 438.91,-243.38 445.12,-243.38 438.91,-238.88 448.91,-243.38"/>
</g>
<!-- KcCGST&#45;&gt;database -->
<g id="edge8" class="edge">
<title>KcCGST:e&#45;&gt;database:w</title>
<path fill="none" stroke="dimgrey" d="M424.75,-243.38C446.46,-243.38 432,-207.4 440.15,-193.9"/>
<polygon fill="dimgrey" stroke="dimgrey" points="449.04,-189.42 442.13,-197.94 445.66,-191.13 440.11,-193.93 440.11,-193.93 440.11,-193.93 445.66,-191.13 438.08,-189.91 449.04,-189.42"/>
</g>
<!-- KcCGST&#45;&gt;database -->
<g id="edge9" class="edge">
<title>KcCGST:e&#45;&gt;database:w</title>
<path fill="none" stroke="dimgrey" d="M424.75,-243.38C458.04,-243.38 423.37,-180.79 439.67,-165.14"/>
<polygon fill="dimgrey" stroke="dimgrey" points="448.97,-162.01 440.92,-169.46 445.39,-163.22 439.49,-165.2 439.49,-165.2 439.49,-165.2 445.39,-163.22 438.06,-160.93 448.97,-162.01"/>
</g>
<!-- Keymap -->
<g id="node5" class="node">
<title>Keymap</title>
<g id="a_node5"><a xlink:href="xkb-intro.html#keymap-intro" target="_top" xlink:title="&lt;i&gt;Display server configuration&lt;/i&gt;&lt;br/&gt;&lt;b&gt;Complete keymap&lt;/b&gt;">
<polygon fill="none" stroke="black" stroke-width="3" points="322,-36 102.75,-36 102.75,0 322,0 322,-36"/>
<text xml:space="preserve" text-anchor="start" x="110.75" y="-19.7" font-family="Times,serif" font-style="italic" font-size="14.00">Display server configuration</text>
<text xml:space="preserve" text-anchor="start" x="142.25" y="-5.7" font-family="Times,serif" font-weight="bold" font-size="14.00">Complete keymap</text>
</a>
</g>
</g>
<!-- KcCGST_resolution&#45;&gt;Keymap -->
<g id="edge4" class="edge">
<title>KcCGST_resolution&#45;&gt;Keymap</title>
<path fill="none" stroke="blue" stroke-width="2" d="M212.38,-71.7C212.38,-64.71 212.38,-56.44 212.38,-48.55"/>
<polygon fill="blue" stroke="blue" stroke-width="2" points="215.88,-50.11 212.38,-40.11 208.88,-50.11 215.88,-50.11"/>
</g>
<!-- database&#45;&gt;RMLVO_resolution -->
<g id="edge10" class="edge">
<title>database:w&#45;&gt;RMLVO_resolution:e</title>
<path fill="none" stroke="dimgrey" d="M450.12,-297.88C429.83,-297.88 443.21,-372.55 433.7,-396.47"/>
<polygon fill="dimgrey" stroke="dimgrey" points="426.29,-402.95 430.86,-392.98 429.14,-400.46 433.82,-396.37 433.82,-396.37 433.82,-396.37 429.14,-400.46 436.78,-399.76 426.29,-402.95"/>
</g>
<!-- database&#45;&gt;KcCGST_resolution -->
<g id="edge11" class="edge">
<title>database:e&#45;&gt;KcCGST_resolution</title>
<path fill="none" stroke="dimgrey" d="M592.62,-270.62C648.9,-270.62 628.73,-186.31 591.62,-144 564.17,-112.69 472.78,-99.33 386.59,-93.85"/>
<polygon fill="dimgrey" stroke="dimgrey" points="376.78,-93.27 387.04,-89.37 380.56,-93.49 386.77,-93.87 386.77,-93.87 386.77,-93.87 380.56,-93.49 386.5,-98.36 376.78,-93.27"/>
</g>
<!-- database&#45;&gt;KcCGST_resolution -->
<g id="edge12" class="edge">
<title>database:e&#45;&gt;KcCGST_resolution</title>
<path fill="none" stroke="dimgrey" d="M592.62,-243.38C636.79,-243.38 620.78,-177.18 591.62,-144 564.14,-112.72 472.74,-99.36 386.57,-93.88"/>
<polygon fill="dimgrey" stroke="dimgrey" points="376.76,-93.29 387.01,-89.4 380.53,-93.52 386.74,-93.89 386.74,-93.89 386.74,-93.89 380.53,-93.52 386.47,-98.38 376.76,-93.29"/>
</g>
<!-- database&#45;&gt;KcCGST_resolution -->
<g id="edge13" class="edge">
<title>database:e&#45;&gt;KcCGST_resolution</title>
<path fill="none" stroke="dimgrey" d="M592.62,-188.88C612.57,-188.88 604.89,-158.9 591.62,-144 563.97,-112.92 472.72,-99.56 386.66,-94.03"/>
<polygon fill="dimgrey" stroke="dimgrey" points="376.87,-93.43 387.13,-89.55 380.65,-93.66 386.85,-94.04 386.85,-94.04 386.85,-94.04 380.65,-93.66 386.58,-98.53 376.87,-93.43"/>
</g>
<!-- database&#45;&gt;KcCGST_resolution -->
<g id="edge14" class="edge">
<title>database:e&#45;&gt;KcCGST_resolution</title>
<path fill="none" stroke="dimgrey" d="M592.62,-161.62C600.47,-161.62 596.94,-149.77 591.62,-144 563.47,-113.43 472.36,-100.08 386.5,-94.42"/>
<polygon fill="dimgrey" stroke="dimgrey" points="376.73,-93.81 386.99,-89.94 380.5,-94.04 386.71,-94.43 386.71,-94.43 386.71,-94.43 380.5,-94.04 386.43,-98.92 376.73,-93.81"/>
</g>
</g>
</svg>
