<?xml version="1.0" encoding="UTF-8" standalone="no"?>
<!DOCTYPE svg PUBLIC "-//W3C//DTD SVG 1.1//EN"
 "http://www.w3.org/Graphics/SVG/1.1/DTD/svg11.dtd">
<!-- Generated by graphviz version 2.43.0 (0)
 -->
<!-- Title: %3 Pages: 1 -->
<svg width="638pt" height="233pt"
 viewBox="0.00 0.00 638.00 232.50" xmlns="http://www.w3.org/2000/svg" xmlns:xlink="http://www.w3.org/1999/xlink">
<g id="graph0" class="graph" transform="scale(1 1) rotate(0) translate(4 228.5)">
<title>%3</title>
<polygon fill="white" stroke="transparent" points="-4,4 -4,-228.5 634,-228.5 634,4 -4,4"/>
<!-- database -->
<g id="node1" class="node">
<title>database</title>
<polygon fill="none" stroke="black" points="8.5,-195 8.5,-220 149.5,-220 149.5,-195 8.5,-195"/>
<text text-anchor="start" x="13.5" y="-204.8" font-family="Times,serif" font-weight="bold" font-size="14.00">Layout Database</text>
<g id="a_node1_0"><a xlink:href="rule-file-format.html" target="_top" xlink:title="&lt;TABLE&gt;">
<polygon fill="none" stroke="black" points="8.5,-170 8.5,-195 149.5,-195 149.5,-170 8.5,-170"/>
<text text-anchor="start" x="42" y="-178.8" font-family="Times,serif" font-size="14.00">Rules files</text>
</a>
</g>
<g id="a_node1_1"><a xlink:href="" target="_top" xlink:title="&lt;TABLE&gt;">
<polygon fill="none" stroke="black" points="8.5,-145 8.5,-170 149.5,-170 149.5,-145 8.5,-145"/>
<text text-anchor="start" x="28.5" y="-153.8" font-family="Times,serif" font-size="14.00">Keycodes files</text>
</a>
</g>
<g id="a_node1_2"><a xlink:href="" target="_top" xlink:title="&lt;TABLE&gt;">
<polygon fill="none" stroke="black" points="8.5,-120 8.5,-145 149.5,-145 149.5,-120 8.5,-120"/>
<text text-anchor="start" x="34" y="-128.8" font-family="Times,serif" font-size="14.00">Compat files</text>
</a>
</g>
<polygon fill="none" stroke="black" points="8.5,-95 8.5,-120 149.5,-120 149.5,-95 8.5,-95"/>
<text text-anchor="start" x="21.5" y="-103.8" font-family="Times,serif" font-size="14.00">(Geometry files)</text>
<g id="a_node1_3"><a xlink:href="" target="_top" xlink:title="&lt;TABLE&gt;">
<polygon fill="none" stroke="black" points="8.5,-70 8.5,-95 149.5,-95 149.5,-70 8.5,-70"/>
<text text-anchor="start" x="31.5" y="-78.8" font-family="Times,serif" font-size="14.00">Symbols files</text>
</a>
</g>
<g id="a_node1_4"><a xlink:href="" target="_top" xlink:title="&lt;TABLE&gt;">
<polygon fill="none" stroke="black" points="8.5,-45 8.5,-70 149.5,-70 149.5,-45 8.5,-45"/>
<text text-anchor="start" x="27" y="-53.8" font-family="Times,serif" font-size="14.00">Key types files</text>
</a>
</g>
<polygon fill="black" stroke="black" points="8.5,-195 8.5,-195 149.5,-195 149.5,-195 8.5,-195"/>
</g>
<!-- server -->
<g id="node2" class="node">
<title>server</title>
<path fill="none" stroke="black" d="M386.5,-151C386.5,-151 342.5,-151 342.5,-151 336.5,-151 330.5,-145 330.5,-139 330.5,-139 330.5,-127 330.5,-127 330.5,-121 336.5,-115 342.5,-115 342.5,-115 386.5,-115 386.5,-115 392.5,-115 398.5,-121 398.5,-127 398.5,-127 398.5,-139 398.5,-139 398.5,-145 392.5,-151 386.5,-151"/>
<text text-anchor="start" x="338.5" y="-130.3" font-family="Times,serif" font-weight="bold" font-size="14.00">Server</text>
</g>
<!-- database&#45;&gt;server -->
<g id="edge1" class="edge">
<title>database:keycodes&#45;&gt;server</title>
<path fill="none" stroke="black" d="M150.5,-158C224.05,-158 245.22,-157.18 320.53,-144.15"/>
<polygon fill="black" stroke="black" points="321.25,-147.58 330.5,-142.41 320.04,-140.68 321.25,-147.58"/>
<g id="a_edge1&#45;label"><a xlink:href="keymap-text-format-v1.html#the-xkb_keycodes-section" target="_top" xlink:title="&lt;i&gt;xkb_keycodes&lt;/i&gt; section">
<text text-anchor="start" x="166.5" y="-162.8" font-family="Times,serif" font-style="italic" font-size="14.00">xkb_keycodes</text>
<text text-anchor="start" x="264.5" y="-162.8" font-family="Times,serif" font-size="14.00"> section</text>
</a>
</g>
</g>
<!-- database&#45;&gt;server -->
<g id="edge2" class="edge">
<title>database:compat&#45;&gt;server</title>
<path fill="none" stroke="black" d="M150.5,-132C164.83,-132 154.1,-111.2 166.5,-104 226.47,-69.2 256.43,-83 322.5,-104 326.61,-105.31 330.67,-107.2 334.53,-109.39"/>
<polygon fill="black" stroke="black" points="332.85,-112.47 343.15,-114.93 336.63,-106.58 332.85,-112.47"/>
<g id="a_edge2&#45;label"><a xlink:href="keymap-text-format-v1.html#the-xkb_compat-section" target="_top" xlink:title="&lt;i&gt;xkb_compat&lt;/i&gt; section">
<text text-anchor="start" x="173" y="-108.8" font-family="Times,serif" font-style="italic" font-size="14.00">xkb_compat</text>
<text text-anchor="start" x="258" y="-108.8" font-family="Times,serif" font-size="14.00"> section</text>
</a>
</g>
</g>
<!-- database&#45;&gt;server -->
<g id="edge3" class="edge">
<title>database:symbols&#45;&gt;server</title>
<path fill="none" stroke="black" d="M150.5,-82C160.56,-82 157.21,-69.85 166.5,-66 230.56,-39.47 262.02,-32.11 322.5,-66 337.48,-74.4 347.65,-90.75 354.11,-105.2"/>
<polygon fill="black" stroke="black" points="350.99,-106.83 358,-114.77 357.48,-104.19 350.99,-106.83"/>
<g id="a_edge3&#45;label"><a xlink:href="keymap-text-format-v1.html#the-xkb_symbols-section" target="_top" xlink:title="&lt;i&gt;xkb_symbols&lt;/i&gt; section">
<text text-anchor="start" x="170" y="-70.8" font-family="Times,serif" font-style="italic" font-size="14.00">xkb_symbols</text>
<text text-anchor="start" x="261" y="-70.8" font-family="Times,serif" font-size="14.00"> section</text>
</a>
</g>
</g>
<!-- database&#45;&gt;server -->
<g id="edge4" class="edge">
<title>database:types&#45;&gt;server</title>
<path fill="none" stroke="black" d="M150.5,-57C165.22,-57 153.82,-35.49 166.5,-28 226.2,7.24 265.25,11.1 322.5,-28 347.53,-45.1 357.28,-79.94 361.08,-104.8"/>
<polygon fill="black" stroke="black" points="357.61,-105.29 362.37,-114.76 364.55,-104.39 357.61,-105.29"/>
<g id="a_edge4&#45;label"><a xlink:href="keymap-text-format-v1.html#the-xkb_types-section" target="_top" xlink:title="&lt;i&gt;xkb_types&lt;/i&gt; section">
<text text-anchor="start" x="179.5" y="-32.8" font-family="Times,serif" font-style="italic" font-size="14.00">xkb_types</text>
<text text-anchor="start" x="251.5" y="-32.8" font-family="Times,serif" font-size="14.00"> section</text>
</a>
</g>
</g>
<!-- server&#45;&gt;database -->
<g id="edge5" class="edge">
<title>server:n&#45;&gt;database:rules</title>
<path fill="none" stroke="black" d="M364.5,-152C364.5,-244.73 254.75,-187.38 160.71,-183.24"/>
<polygon fill="black" stroke="black" points="160.58,-179.73 150.5,-183 160.42,-186.73 160.58,-179.73"/>
<g id="a_edge5&#45;label"><a xlink:href="xkb-intro.html#RMLVO-intro" target="_top" xlink:title="Rules, Model, Layout, Variant, Options">
<text text-anchor="start" x="217.5" y="-208.8" font-family="Times,serif" font-size="14.00">RMLVO</text>
</a>
</g>
</g>
<!-- client -->
<g id="node3" class="node">
<title>client</title>
<path fill="none" stroke="black" d="M618,-151C618,-151 577,-151 577,-151 571,-151 565,-145 565,-139 565,-139 565,-127 565,-127 565,-121 571,-115 577,-115 577,-115 618,-115 618,-115 624,-115 630,-121 630,-127 630,-127 630,-139 630,-139 630,-145 624,-151 618,-151"/>
<text text-anchor="start" x="573" y="-130.3" font-family="Times,serif" font-weight="bold" font-size="14.00">Client</text>
</g>
<!-- server&#45;&gt;client -->
<g id="edge6" class="edge">
<title>server&#45;&gt;client</title>
<path fill="none" stroke="black" d="M398.88,-133C440.34,-133 510.02,-133 554.86,-133"/>
<polygon fill="black" stroke="black" points="554.86,-136.5 564.86,-133 554.86,-129.5 554.86,-136.5"/>
<g id="a_edge6&#45;label"><a xlink:href="keymap-text-format-v1.html#the-xkb_keymap-block" target="_top" xlink:title="complete keymap:&lt;br/&gt;&lt;i&gt;xkb_keymap&lt;/i&gt; block =&lt;br/&gt;&lt;i&gt;xkb_keycodes&lt;/i&gt; +&lt;br/&gt;&lt;i&gt;xkb_compat&lt;/i&gt; +&lt;br/&gt;&lt;i&gt;xkb_symbols&lt;/i&gt; +&lt;br/&gt;&lt;i&gt;xkb_types&lt;/i&gt;">
<text text-anchor="start" x="416.75" y="-209.8" font-family="Times,serif" font-size="14.00">complete keymap:</text>
<text text-anchor="start" x="407.25" y="-195.8" font-family="Times,serif" font-style="italic" font-size="14.00">xkb_keymap</text>
<text text-anchor="start" x="495.25" y="-195.8" font-family="Times,serif" font-size="14.00"> block =</text>
<text text-anchor="start" x="423.25" y="-181.8" font-family="Times,serif" font-style="italic" font-size="14.00">xkb_keycodes</text>
<text text-anchor="start" x="521.25" y="-181.8" font-family="Times,serif" font-size="14.00"> +</text>
<text text-anchor="start" x="429.75" y="-167.8" font-family="Times,serif" font-style="italic" font-size="14.00">xkb_compat</text>
<text text-anchor="start" x="514.75" y="-167.8" font-family="Times,serif" font-size="14.00"> +</text>
<text text-anchor="start" x="426.75" y="-153.8" font-family="Times,serif" font-style="italic" font-size="14.00">xkb_symbols</text>
<text text-anchor="start" x="517.75" y="-153.8" font-family="Times,serif" font-size="14.00"> +</text>
<text text-anchor="start" x="445.75" y="-139.8" font-family="Times,serif" font-style="italic" font-size="14.00">xkb_types</text>
</a>
</g>
</g>
</g>
</svg>
