<?xml version="1.0" encoding="UTF-8" standalone="no"?>
<!DOCTYPE svg PUBLIC "-//W3C//DTD SVG 1.1//EN"
 "http://www.w3.org/Graphics/SVG/1.1/DTD/svg11.dtd">
<!-- Generated by graphviz version 2.43.0 (0)
 -->
<!-- Title: %3 Pages: 1 -->
<svg width="649pt" height="493pt"
 viewBox="0.00 0.00 648.54 493.00" xmlns="http://www.w3.org/2000/svg" xmlns:xlink="http://www.w3.org/1999/xlink">
<g id="graph0" class="graph" transform="scale(1 1) rotate(0) translate(4 489)">
<title>%3</title>
<polygon fill="white" stroke="transparent" points="-4,4 -4,-489 644.54,-489 644.54,4 -4,4"/>
<!-- RMLVO -->
<g id="node1" class="node">
<title>RMLVO</title>
<g id="a_node1"><a xlink:href="xkb-intro.html#RMLVO-intro" target="_top" xlink:title="&lt;i&gt;End user configuration&lt;/i&gt;&lt;br/&gt;&lt;b&gt;RMLVO:&lt;/b&gt; &lt;b&gt;R&lt;/b&gt;ules, &lt;b&gt;M&lt;/b&gt;odel, &lt;b&gt;L&lt;/b&gt;ayout, &lt;b&gt;V&lt;/b&gt;ariant, &lt;b&gt;O&lt;/b&gt;ptions">
<polygon fill="none" stroke="black" stroke-width="3" points="404,-485 31,-485 31,-449 404,-449 404,-485"/>
<text text-anchor="start" x="135.5" y="-470.8" font-family="Times,serif" font-style="italic" font-size="14.00">End user configuration</text>
<text text-anchor="start" x="39" y="-456.8" font-family="Times,serif" font-weight="bold" font-size="14.00">RMLVO:</text>
<text text-anchor="start" x="103" y="-456.8" font-family="Times,serif" font-size="14.00"> </text>
<text text-anchor="start" x="108" y="-456.8" font-family="Times,serif" font-weight="bold" font-size="14.00">R</text>
<text text-anchor="start" x="121" y="-456.8" font-family="Times,serif" font-size="14.00">ules, </text>
<text text-anchor="start" x="160" y="-456.8" font-family="Times,serif" font-weight="bold" font-size="14.00">M</text>
<text text-anchor="start" x="176" y="-456.8" font-family="Times,serif" font-size="14.00">odel, </text>
<text text-anchor="start" x="216" y="-456.8" font-family="Times,serif" font-weight="bold" font-size="14.00">L</text>
<text text-anchor="start" x="226" y="-456.8" font-family="Times,serif" font-size="14.00">ayout, </text>
<text text-anchor="start" x="275" y="-456.8" font-family="Times,serif" font-weight="bold" font-size="14.00">V</text>
<text text-anchor="start" x="286" y="-456.8" font-family="Times,serif" font-size="14.00">ariant, </text>
<text text-anchor="start" x="338" y="-456.8" font-family="Times,serif" font-weight="bold" font-size="14.00">O</text>
<text text-anchor="start" x="351" y="-456.8" font-family="Times,serif" font-size="14.00">ptions</text>
</a>
</g>
</g>
<!-- RMLVO_resolution -->
<g id="node2" class="node">
<title>RMLVO_resolution</title>
<g id="a_node2"><a xlink:href="rule-file-format.html#rmlvo-resolution" target="_top" xlink:title="&lt;i&gt;RMLVO resolution&lt;/i&gt;&lt;br/&gt;Determine KcCGST using the specified rules file:&lt;br/&gt;match the given model, layout, variant and options fields">
<path fill="none" stroke="blue" d="M417.5,-413C417.5,-413 17.5,-413 17.5,-413 11.5,-413 5.5,-407 5.5,-401 5.5,-401 5.5,-375 5.5,-375 5.5,-369 11.5,-363 17.5,-363 17.5,-363 417.5,-363 417.5,-363 423.5,-363 429.5,-369 429.5,-375 429.5,-375 429.5,-401 429.5,-401 429.5,-407 423.5,-413 417.5,-413"/>
<text text-anchor="start" x="152.5" y="-398.8" font-family="Times,serif" font-style="italic" font-size="14.00">RMLVO resolution</text>
<text text-anchor="start" x="43" y="-384.8" font-family="Times,serif" font-size="14.00">Determine KcCGST using the specified rules file:</text>
<text text-anchor="start" x="13.5" y="-370.8" font-family="Times,serif" font-size="14.00">match the given model, layout, variant and options fields</text>
</a>
</g>
</g>
<!-- RMLVO&#45;&gt;RMLVO_resolution -->
<g id="edge1" class="edge">
<title>RMLVO&#45;&gt;RMLVO_resolution</title>
<path fill="none" stroke="blue" stroke-width="2" d="M217.5,-448.91C217.5,-441.33 217.5,-432.13 217.5,-423.23"/>
<polygon fill="blue" stroke="blue" stroke-width="2" points="221,-423.05 217.5,-413.05 214,-423.05 221,-423.05"/>
</g>
<!-- database -->
<g id="node6" class="node">
<title>database</title>
<polygon fill="none" stroke="black" points="461.5,-297.5 461.5,-322.5 602.5,-322.5 602.5,-297.5 461.5,-297.5"/>
<text text-anchor="start" x="466.5" y="-307.3" font-family="Times,serif" font-weight="bold" font-size="14.00">Layout Database</text>
<g id="a_node6_0"><a xlink:href="xkb-intro.html#config-rules-def" target="_top" xlink:title="&lt;TABLE&gt;">
<polygon fill="none" stroke="black" points="461.5,-272.5 461.5,-297.5 602.5,-297.5 602.5,-272.5 461.5,-272.5"/>
<text text-anchor="start" x="495" y="-281.3" font-family="Times,serif" font-size="14.00">Rules files</text>
</a>
</g>
<g id="a_node6_1"><a xlink:href="xkb-intro.html#config-keycodes-def" target="_top" xlink:title="&lt;TABLE&gt;">
<polygon fill="none" stroke="black" points="461.5,-247.5 461.5,-272.5 602.5,-272.5 602.5,-247.5 461.5,-247.5"/>
<text text-anchor="start" x="481.5" y="-256.3" font-family="Times,serif" font-size="14.00">Keycodes files</text>
</a>
</g>
<g id="a_node6_2"><a xlink:href="xkb-intro.html#config-compat-def" target="_top" xlink:title="&lt;TABLE&gt;">
<polygon fill="none" stroke="black" points="461.5,-222.5 461.5,-247.5 602.5,-247.5 602.5,-222.5 461.5,-222.5"/>
<text text-anchor="start" x="487" y="-231.3" font-family="Times,serif" font-size="14.00">Compat files</text>
</a>
</g>
<g id="a_node6_3"><a xlink:href="xkb-intro.html#config-geometry-def" target="_top" xlink:title="&lt;TABLE&gt;">
<polygon fill="none" stroke="black" points="461.5,-197.5 461.5,-222.5 602.5,-222.5 602.5,-197.5 461.5,-197.5"/>
<text text-anchor="start" x="474.5" y="-206.3" font-family="Times,serif" font-size="14.00">(Geometry files)</text>
</a>
</g>
<g id="a_node6_4"><a xlink:href="xkb-intro.html#config-symbols-def" target="_top" xlink:title="&lt;TABLE&gt;">
<polygon fill="none" stroke="black" points="461.5,-172.5 461.5,-197.5 602.5,-197.5 602.5,-172.5 461.5,-172.5"/>
<text text-anchor="start" x="484.5" y="-181.3" font-family="Times,serif" font-size="14.00">Symbols files</text>
</a>
</g>
<g id="a_node6_5"><a xlink:href="xkb-intro.html#config-types-def" target="_top" xlink:title="&lt;TABLE&gt;">
<polygon fill="none" stroke="black" points="461.5,-147.5 461.5,-172.5 602.5,-172.5 602.5,-147.5 461.5,-147.5"/>
<text text-anchor="start" x="494" y="-156.3" font-family="Times,serif" font-size="14.00">Types files</text>
</a>
</g>
<polygon fill="black" stroke="black" points="461.5,-297.5 461.5,-297.5 602.5,-297.5 602.5,-297.5 461.5,-297.5"/>
</g>
<!-- RMLVO&#45;&gt;database -->
<g id="edge5" class="edge">
<title>RMLVO:e&#45;&gt;database:e</title>
<path fill="none" stroke="dimgrey" d="M405.5,-467C521.15,-467 710.58,-296.67 613.77,-286.02"/>
<polygon fill="dimgrey" stroke="dimgrey" points="603.5,-285.5 613.71,-281.51 608.49,-285.75 613.49,-286.01 613.49,-286.01 613.49,-286.01 608.49,-285.75 613.26,-290.5 603.5,-285.5 603.5,-285.5"/>
</g>
<!-- KcCGST -->
<g id="node3" class="node">
<title>KcCGST</title>
<g id="a_node3"><a xlink:href="xkb-intro.html#KcCGST-intro" target="_top" xlink:title="&lt;i&gt;Layout database configuration&lt;/i&gt;&lt;br/&gt;&lt;b&gt;KcCGST:&lt;/b&gt; &lt;b&gt;K&lt;/b&gt;ey&lt;b&gt;c&lt;/b&gt;odes, &lt;b&gt;C&lt;/b&gt;ompat, &lt;b&gt;G&lt;/b&gt;eometry, &lt;b&gt;S&lt;/b&gt;ymbols, &lt;b&gt;T&lt;/b&gt;ypes">
<polygon fill="none" stroke="black" stroke-width="3" points="435,-253.5 0,-253.5 0,-217.5 435,-217.5 435,-253.5"/>
<text text-anchor="start" x="109" y="-239.3" font-family="Times,serif" font-style="italic" font-size="14.00">Layout database configuration</text>
<text text-anchor="start" x="8" y="-225.3" font-family="Times,serif" font-weight="bold" font-size="14.00">KcCGST:</text>
<text text-anchor="start" x="77" y="-225.3" font-family="Times,serif" font-size="14.00"> </text>
<text text-anchor="start" x="82" y="-225.3" font-family="Times,serif" font-weight="bold" font-size="14.00">K</text>
<text text-anchor="start" x="95" y="-225.3" font-family="Times,serif" font-size="14.00">ey</text>
<text text-anchor="start" x="112" y="-225.3" font-family="Times,serif" font-weight="bold" font-size="14.00">c</text>
<text text-anchor="start" x="121" y="-225.3" font-family="Times,serif" font-size="14.00">odes, </text>
<text text-anchor="start" x="164" y="-225.3" font-family="Times,serif" font-weight="bold" font-size="14.00">C</text>
<text text-anchor="start" x="176" y="-225.3" font-family="Times,serif" font-size="14.00">ompat, </text>
<text text-anchor="start" x="231" y="-225.3" font-family="Times,serif" font-weight="bold" font-size="14.00">G</text>
<text text-anchor="start" x="244" y="-225.3" font-family="Times,serif" font-size="14.00">eometry, </text>
<text text-anchor="start" x="311" y="-225.3" font-family="Times,serif" font-weight="bold" font-size="14.00">S</text>
<text text-anchor="start" x="321" y="-225.3" font-family="Times,serif" font-size="14.00">ymbols, </text>
<text text-anchor="start" x="382" y="-225.3" font-family="Times,serif" font-weight="bold" font-size="14.00">T</text>
<text text-anchor="start" x="393" y="-225.3" font-family="Times,serif" font-size="14.00">ypes</text>
</a>
</g>
</g>
<!-- RMLVO_resolution&#45;&gt;KcCGST -->
<g id="edge2" class="edge">
<title>RMLVO_resolution&#45;&gt;KcCGST</title>
<path fill="none" stroke="blue" stroke-width="2" d="M217.5,-362.82C217.5,-335.83 217.5,-292.23 217.5,-263.97"/>
<polygon fill="blue" stroke="blue" stroke-width="2" points="221,-263.6 217.5,-253.6 214,-263.6 221,-263.6"/>
</g>
<!-- KcCGST_resolution -->
<g id="node4" class="node">
<title>KcCGST_resolution</title>
<path fill="none" stroke="blue" d="M368.5,-108C368.5,-108 66.5,-108 66.5,-108 60.5,-108 54.5,-102 54.5,-96 54.5,-96 54.5,-84 54.5,-84 54.5,-78 60.5,-72 66.5,-72 66.5,-72 368.5,-72 368.5,-72 374.5,-72 380.5,-78 380.5,-84 380.5,-84 380.5,-96 380.5,-96 380.5,-102 374.5,-108 368.5,-108"/>
<text text-anchor="start" x="149.5" y="-93.8" font-family="Times,serif" font-style="italic" font-size="14.00">KcCGST resolution</text>
<text text-anchor="start" x="62.5" y="-79.8" font-family="Times,serif" font-size="14.00">Construct the keymap from its components</text>
</g>
<!-- KcCGST&#45;&gt;KcCGST_resolution -->
<g id="edge3" class="edge">
<title>KcCGST&#45;&gt;KcCGST_resolution</title>
<path fill="none" stroke="blue" stroke-width="2" d="M217.5,-217.48C217.5,-192.99 217.5,-147.56 217.5,-118.33"/>
<polygon fill="blue" stroke="blue" stroke-width="2" points="221,-118 217.5,-108 214,-118 221,-118"/>
</g>
<!-- KcCGST&#45;&gt;database -->
<g id="edge6" class="edge">
<title>KcCGST:e&#45;&gt;database:w</title>
<path fill="none" stroke="dimgrey" d="M435,-235.5C450.87,-235.5 444.63,-260.5 460.5,-260.5"/>
</g>
<!-- KcCGST&#45;&gt;database -->
<g id="edge7" class="edge">
<title>KcCGST:e&#45;&gt;database:w</title>
<path fill="none" stroke="dimgrey" d="M435,-235.5C446.34,-235.5 449.16,-234.5 460.5,-234.5"/>
</g>
<!-- KcCGST&#45;&gt;database -->
<g id="edge8" class="edge">
<title>KcCGST:e&#45;&gt;database:w</title>
<path fill="none" stroke="dimgrey" d="M435,-235.5C460.34,-235.5 435.16,-184.5 460.5,-184.5"/>
</g>
<!-- KcCGST&#45;&gt;database -->
<g id="edge9" class="edge">
<title>KcCGST:e&#45;&gt;database:w</title>
<path fill="none" stroke="dimgrey" d="M435,-235.5C470.63,-235.5 424.87,-159.5 460.5,-159.5"/>
</g>
<!-- Keymap -->
<g id="node5" class="node">
<title>Keymap</title>
<g id="a_node5"><a xlink:href="xkb-intro.html#keymap-intro" target="_top" xlink:title="&lt;i&gt;Display server configuration&lt;/i&gt;&lt;br/&gt;&lt;b&gt;Complete keymap&lt;/b&gt;">
<polygon fill="none" stroke="black" stroke-width="3" points="327,-36 108,-36 108,0 327,0 327,-36"/>
<text text-anchor="start" x="116" y="-21.8" font-family="Times,serif" font-style="italic" font-size="14.00">Display server configuration</text>
<text text-anchor="start" x="147" y="-7.8" font-family="Times,serif" font-weight="bold" font-size="14.00">Complete keymap</text>
</a>
</g>
</g>
<!-- KcCGST_resolution&#45;&gt;Keymap -->
<g id="edge4" class="edge">
<title>KcCGST_resolution&#45;&gt;Keymap</title>
<path fill="none" stroke="blue" stroke-width="2" d="M217.5,-71.7C217.5,-63.98 217.5,-54.71 217.5,-46.11"/>
<polygon fill="blue" stroke="blue" stroke-width="2" points="221,-46.1 217.5,-36.1 214,-46.1 221,-46.1"/>
</g>
<!-- database&#45;&gt;RMLVO_resolution -->
<g id="edge10" class="edge">
<title>database:w&#45;&gt;RMLVO_resolution:e</title>
<path fill="none" stroke="dimgrey" d="M460.5,-285.5C440.29,-285.5 449.96,-359.83 438.61,-381.9"/>
<polygon fill="dimgrey" stroke="dimgrey" points="430.5,-388 435.79,-378.39 434.5,-384.99 438.49,-381.99 438.49,-381.99 438.49,-381.99 434.5,-384.99 441.2,-385.58 430.5,-388 430.5,-388"/>
</g>
<!-- database&#45;&gt;KcCGST_resolution -->
<g id="edge11" class="edge">
<title>database:e&#45;&gt;KcCGST_resolution</title>
<path fill="none" stroke="dimgrey" d="M603.5,-260.5C655.28,-260.5 636.69,-182.88 602.5,-144 574.21,-111.83 479.26,-98.53 390.74,-93.3"/>
<polygon fill="dimgrey" stroke="dimgrey" points="380.54,-92.73 390.78,-88.8 385.53,-93.01 390.53,-93.29 390.53,-93.29 390.53,-93.29 385.53,-93.01 390.28,-97.78 380.54,-92.73 380.54,-92.73"/>
</g>
<!-- database&#45;&gt;KcCGST_resolution -->
<g id="edge12" class="edge">
<title>database:e&#45;&gt;KcCGST_resolution</title>
<path fill="none" stroke="dimgrey" d="M603.5,-234.5C643.72,-234.5 629.1,-174.17 602.5,-144 574.17,-111.87 479.22,-98.57 390.71,-93.33"/>
<polygon fill="dimgrey" stroke="dimgrey" points="380.51,-92.76 390.75,-88.83 385.5,-93.04 390.5,-93.32 390.5,-93.32 390.5,-93.32 385.5,-93.04 390.25,-97.81 380.51,-92.76 380.51,-92.76"/>
</g>
<!-- database&#45;&gt;KcCGST_resolution -->
<g id="edge13" class="edge">
<title>database:e&#45;&gt;KcCGST_resolution</title>
<path fill="none" stroke="dimgrey" d="M603.5,-184.5C621.51,-184.5 614.5,-157.43 602.5,-144 573.98,-112.09 479.18,-98.79 390.8,-93.49"/>
<polygon fill="dimgrey" stroke="dimgrey" points="380.61,-92.92 390.85,-88.99 385.6,-93.2 390.6,-93.48 390.6,-93.48 390.6,-93.48 385.6,-93.2 390.34,-97.97 380.61,-92.92 380.61,-92.92"/>
</g>
<!-- database&#45;&gt;KcCGST_resolution -->
<g id="edge14" class="edge">
<title>database:e&#45;&gt;KcCGST_resolution</title>
<path fill="none" stroke="dimgrey" d="M603.5,-159.5C610.4,-159.5 607.2,-149.05 602.5,-144 573.41,-112.72 478.91,-99.42 390.82,-93.96"/>
<polygon fill="dimgrey" stroke="dimgrey" points="380.67,-93.37 390.92,-89.46 385.66,-93.66 390.65,-93.95 390.65,-93.95 390.65,-93.95 385.66,-93.66 390.39,-98.44 380.67,-93.37 380.67,-93.37"/>
</g>
</g>
</svg>
