<?xml version="1.0" encoding="UTF-8" standalone="no"?>
<!DOCTYPE svg PUBLIC "-//W3C//DTD SVG 1.1//EN"
 "http://www.w3.org/Graphics/SVG/1.1/DTD/svg11.dtd">
<!-- Generated by graphviz version 2.49.3 (0)
 -->
<!-- Pages: 1 -->
<svg width="455pt" height="724pt"
 viewBox="0.00 0.00 454.64 724.00" xmlns="http://www.w3.org/2000/svg" xmlns:xlink="http://www.w3.org/1999/xlink">
<g id="graph0" class="graph" transform="scale(1 1) rotate(0) translate(4 720)">
<polygon fill="white" stroke="transparent" points="-4,4 -4,-720 450.64,-720 450.64,4 -4,4"/>
<!-- active_modifiers -->
<g id="node1" class="node">
<title>active_modifiers</title>
<g id="a_node1"><a xlink:href="group__state.html#ga98b07d43090b761a79ac96967ae431c9" target="_top" xlink:title="Active modifiers">
<ellipse fill="none" stroke="black" cx="256.14" cy="-698" rx="70.39" ry="18"/>
<text text-anchor="middle" x="256.14" y="-694.3" font-family="Times,serif" font-size="14.00">Active modifiers</text>
</a>
</g>
</g>
<!-- modifiers_filter -->
<g id="node2" class="node">
<title>modifiers_filter</title>
<path fill="none" stroke="black" d="M386.14,-644C386.14,-644 126.14,-644 126.14,-644 120.14,-644 114.14,-638 114.14,-632 114.14,-632 114.14,-620 114.14,-620 114.14,-614 120.14,-608 126.14,-608 126.14,-608 386.14,-608 386.14,-608 392.14,-608 398.14,-614 398.14,-620 398.14,-620 398.14,-632 398.14,-632 398.14,-638 392.14,-644 386.14,-644"/>
<text text-anchor="start" x="210.64" y="-629.8" font-family="Times,serif" font-weight="bold" font-size="14.00">Filter modifiers</text>
<text text-anchor="start" x="122.14" y="-615.8" font-family="Times,serif" font-size="14.00">Keep only meaningful modifiers for the key type</text>
</g>
<!-- active_modifiers&#45;&gt;modifiers_filter -->
<g id="edge1" class="edge">
<title>active_modifiers&#45;&gt;modifiers_filter</title>
<path fill="none" stroke="black" d="M256.14,-679.7C256.14,-671.98 256.14,-662.71 256.14,-654.11"/>
<polygon fill="black" stroke="black" points="259.64,-654.1 256.14,-644.1 252.64,-654.1 259.64,-654.1"/>
</g>
<!-- filtered_modifiers -->
<g id="node3" class="node">
<title>filtered_modifiers</title>
<ellipse fill="none" stroke="black" cx="190.14" cy="-516" rx="74.19" ry="18"/>
<text text-anchor="middle" x="190.14" y="-512.3" font-family="Times,serif" font-size="14.00">Filtered modifiers</text>
</g>
<!-- modifiers_filter&#45;&gt;filtered_modifiers -->
<g id="edge3" class="edge">
<title>modifiers_filter&#45;&gt;filtered_modifiers</title>
<path fill="none" stroke="black" d="M245.54,-607.65C234.79,-590.07 218.05,-562.67 205.79,-542.6"/>
<polygon fill="black" stroke="black" points="208.7,-540.66 200.5,-533.95 202.73,-544.31 208.7,-540.66"/>
</g>
<!-- level_match -->
<g id="node4" class="node">
<title>level_match</title>
<path fill="none" stroke="black" d="M434.64,-424C434.64,-424 261.64,-424 261.64,-424 255.64,-424 249.64,-418 249.64,-412 249.64,-412 249.64,-372 249.64,-372 249.64,-366 255.64,-360 261.64,-360 261.64,-360 434.64,-360 434.64,-360 440.64,-360 446.64,-366 446.64,-372 446.64,-372 446.64,-412 446.64,-412 446.64,-418 440.64,-424 434.64,-424"/>
<text text-anchor="start" x="257.64" y="-409.8" font-family="Times,serif" font-weight="bold" font-size="14.00">Lookup modifiers combination</text>
<text text-anchor="start" x="296.64" y="-395.8" font-family="Times,serif" font-size="14.00">Find the shift level</text>
<text text-anchor="start" x="261.14" y="-381.8" font-family="Times,serif" font-size="14.00">matching exactly the modifiers,</text>
<text text-anchor="start" x="274.14" y="-367.8" font-family="Times,serif" font-size="14.00">defaulting to the base level</text>
</g>
<!-- filtered_modifiers&#45;&gt;level_match -->
<g id="edge4" class="edge">
<title>filtered_modifiers&#45;&gt;level_match</title>
<path fill="none" stroke="black" d="M211.45,-498.55C233.93,-481.19 270.12,-453.24 299.62,-430.47"/>
<polygon fill="black" stroke="black" points="301.97,-433.08 307.74,-424.2 297.69,-427.54 301.97,-433.08"/>
</g>
<!-- consume_modifiers -->
<g id="node6" class="node">
<title>consume_modifiers</title>
<path fill="none" stroke="black" d="M219.14,-410C219.14,-410 113.14,-410 113.14,-410 107.14,-410 101.14,-404 101.14,-398 101.14,-398 101.14,-386 101.14,-386 101.14,-380 107.14,-374 113.14,-374 113.14,-374 219.14,-374 219.14,-374 225.14,-374 231.14,-380 231.14,-386 231.14,-386 231.14,-398 231.14,-398 231.14,-404 225.14,-410 219.14,-410"/>
<text text-anchor="start" x="109.14" y="-389.3" font-family="Times,serif" font-weight="bold" font-size="14.00">Consume modifiers</text>
</g>
<!-- filtered_modifiers&#45;&gt;consume_modifiers -->
<g id="edge12" class="edge">
<title>filtered_modifiers&#45;&gt;consume_modifiers</title>
<path fill="none" stroke="black" d="M186.75,-497.78C182.79,-477.62 176.17,-443.96 171.5,-420.25"/>
<polygon fill="black" stroke="black" points="174.88,-419.27 169.51,-410.13 168.01,-420.62 174.88,-419.27"/>
</g>
<!-- shift_level -->
<g id="node5" class="node">
<title>shift_level</title>
<g id="a_node5"><a xlink:href="keymap-text-format-v1.html#level-def" target="_top" xlink:title="Shift level">
<ellipse fill="none" stroke="black" cx="361.14" cy="-306" rx="47.39" ry="18"/>
<text text-anchor="middle" x="361.14" y="-302.3" font-family="Times,serif" font-size="14.00">Shift level</text>
</a>
</g>
</g>
<!-- level_match&#45;&gt;shift_level -->
<g id="edge6" class="edge">
<title>level_match&#45;&gt;shift_level</title>
<path fill="none" stroke="black" d="M352.98,-359.72C354.27,-351.42 355.65,-342.52 356.9,-334.44"/>
<polygon fill="black" stroke="black" points="360.38,-334.82 358.45,-324.4 353.46,-333.75 360.38,-334.82"/>
</g>
<!-- symbols_table_lookup -->
<g id="node8" class="node">
<title>symbols_table_lookup</title>
<path fill="none" stroke="black" d="M434.14,-252C434.14,-252 316.14,-252 316.14,-252 310.14,-252 304.14,-246 304.14,-240 304.14,-240 304.14,-228 304.14,-228 304.14,-222 310.14,-216 316.14,-216 316.14,-216 434.14,-216 434.14,-216 440.14,-216 446.14,-222 446.14,-228 446.14,-228 446.14,-240 446.14,-240 446.14,-246 440.14,-252 434.14,-252"/>
<text text-anchor="start" x="312.14" y="-231.3" font-family="Times,serif" font-weight="bold" font-size="14.00">Symbols table lookup</text>
</g>
<!-- shift_level&#45;&gt;symbols_table_lookup -->
<g id="edge7" class="edge">
<title>shift_level&#45;&gt;symbols_table_lookup</title>
<path fill="none" stroke="black" d="M364.6,-287.7C366.15,-279.98 368,-270.71 369.72,-262.11"/>
<polygon fill="black" stroke="black" points="373.19,-262.6 371.72,-252.1 366.33,-261.22 373.19,-262.6"/>
</g>
<!-- consumed_modifiers -->
<g id="node7" class="node">
<title>consumed_modifiers</title>
<g id="a_node7"><a xlink:href="group__state.html" target="_top" xlink:title="Consumed modifiers">
<ellipse fill="none" stroke="black" cx="85.14" cy="-234" rx="85.29" ry="18"/>
<text text-anchor="middle" x="85.14" y="-230.3" font-family="Times,serif" font-size="14.00">Consumed modifiers</text>
</a>
</g>
</g>
<!-- consume_modifiers&#45;&gt;consumed_modifiers -->
<g id="edge14" class="edge">
<title>consume_modifiers&#45;&gt;consumed_modifiers</title>
<path fill="none" stroke="black" d="M157.16,-373.71C143.05,-346.53 115.58,-293.63 98.95,-261.59"/>
<polygon fill="black" stroke="black" points="101.88,-259.63 94.16,-252.37 95.66,-262.86 101.88,-259.63"/>
</g>
<!-- keysyms_transformations -->
<g id="node11" class="node">
<title>keysyms_transformations</title>
<g id="a_node11"><a xlink:href="group__keysyms.html" target="_top" xlink:title="&lt;b&gt;Keysyms transformations&lt;/b&gt;">
<path fill="none" stroke="black" d="M300.64,-108C300.64,-108 157.64,-108 157.64,-108 151.64,-108 145.64,-102 145.64,-96 145.64,-96 145.64,-84 145.64,-84 145.64,-78 151.64,-72 157.64,-72 157.64,-72 300.64,-72 300.64,-72 306.64,-72 312.64,-78 312.64,-84 312.64,-84 312.64,-96 312.64,-96 312.64,-102 306.64,-108 300.64,-108"/>
<text text-anchor="start" x="153.64" y="-87.3" font-family="Times,serif" font-weight="bold" font-size="14.00">Keysyms transformations</text>
</a>
</g>
</g>
<!-- consumed_modifiers&#45;&gt;keysyms_transformations -->
<g id="edge15" class="edge">
<title>consumed_modifiers&#45;&gt;keysyms_transformations</title>
<path fill="none" stroke="black" d="M102.23,-216.15C127.53,-191.2 175.11,-144.28 204.28,-115.52"/>
<polygon fill="black" stroke="black" points="206.97,-117.78 211.63,-108.27 202.05,-112.8 206.97,-117.78"/>
</g>
<!-- keysym_pre_transformation -->
<g id="node10" class="node">
<title>keysym_pre_transformation</title>
<ellipse fill="none" stroke="black" cx="323.14" cy="-162" rx="57.39" ry="18"/>
<text text-anchor="middle" x="323.14" y="-158.3" font-family="Times,serif" font-size="14.00">Raw keysym</text>
</g>
<!-- symbols_table_lookup&#45;&gt;keysym_pre_transformation -->
<g id="edge9" class="edge">
<title>symbols_table_lookup&#45;&gt;keysym_pre_transformation</title>
<path fill="none" stroke="black" d="M362.29,-215.7C356.03,-207.27 348.38,-196.97 341.51,-187.73"/>
<polygon fill="black" stroke="black" points="344.26,-185.56 335.49,-179.62 338.64,-189.74 344.26,-185.56"/>
</g>
<!-- symbols_table -->
<g id="node9" class="node">
<title>symbols_table</title>
<g id="a_node9"><a xlink:href="keymap-text-format-v1.html#key-symbols-table" target="_top" xlink:title="&lt;b&gt;Symbols table&lt;/b&gt;">
<polygon fill="none" stroke="black" stroke-width="2" points="286.14,-252 188.14,-252 188.14,-216 286.14,-216 286.14,-252"/>
<text text-anchor="start" x="196.14" y="-231.3" font-family="Times,serif" font-weight="bold" font-size="14.00">Symbols table</text>
</a>
</g>
</g>
<!-- symbols_table&#45;&gt;symbols_table_lookup -->
<g id="edge8" class="edge">
<title>symbols_table&#45;&gt;symbols_table_lookup</title>
<path fill="none" stroke="black" d="M286.2,-234C288.69,-234 291.18,-234 293.67,-234"/>
<polygon fill="black" stroke="black" points="293.92,-237.5 303.92,-234 293.92,-230.5 293.92,-237.5"/>
</g>
<!-- keysym_pre_transformation&#45;&gt;keysyms_transformations -->
<g id="edge10" class="edge">
<title>keysym_pre_transformation&#45;&gt;keysyms_transformations</title>
<path fill="none" stroke="black" d="M301.81,-145.12C289.52,-135.96 273.85,-124.29 260.21,-114.14"/>
<polygon fill="black" stroke="black" points="262.14,-111.21 252.03,-108.04 257.96,-116.82 262.14,-111.21"/>
</g>
<!-- keysym_post_transformation -->
<g id="node12" class="node">
<title>keysym_post_transformation</title>
<ellipse fill="none" stroke="black" cx="229.14" cy="-18" rx="59.29" ry="18"/>
<text text-anchor="middle" x="229.14" y="-14.3" font-family="Times,serif" font-size="14.00">Final keysym</text>
</g>
<!-- keysyms_transformations&#45;&gt;keysym_post_transformation -->
<g id="edge11" class="edge">
<title>keysyms_transformations&#45;&gt;keysym_post_transformation</title>
<path fill="none" stroke="black" d="M229.14,-71.7C229.14,-63.98 229.14,-54.71 229.14,-46.11"/>
<polygon fill="black" stroke="black" points="232.64,-46.1 229.14,-36.1 225.64,-46.1 232.64,-46.1"/>
</g>
<!-- key_type -->
<g id="node13" class="node">
<title>key_type</title>
<g id="a_node13_0"><a xlink:href="keymap-text-format-v1.html#the-xkb_types-section" target="_top" xlink:title="&lt;TABLE&gt;">
<polygon fill="none" stroke="black" points="292.14,-541 292.14,-566 354.14,-566 354.14,-541 292.14,-541"/>
<text text-anchor="start" x="297.14" y="-550.8" font-family="Times,serif" font-weight="bold" font-size="14.00">Key type</text>
</a>
</g>
<g id="a_node13_1"><a xlink:href="keymap-text-format-v1.html#key-type-modifiers" target="_top" xlink:title="&lt;TABLE&gt;">
<polygon fill="none" stroke="black" points="292.14,-516 292.14,-541 354.14,-541 354.14,-516 292.14,-516"/>
<text text-anchor="start" x="297.14" y="-524.8" font-family="Times,serif" font-size="14.00">modifiers</text>
</a>
</g>
<g id="a_node13_2"><a xlink:href="keymap-text-format-v1.html#key-type-map" target="_top" xlink:title="&lt;TABLE&gt;">
<polygon fill="none" stroke="black" points="292.14,-491 292.14,-516 354.14,-516 354.14,-491 292.14,-491"/>
<text text-anchor="start" x="310.64" y="-499.8" font-family="Times,serif" font-size="14.00">map</text>
</a>
</g>
<g id="a_node13_3"><a xlink:href="keymap-text-format-v1.html#key-type-preserve" target="_top" xlink:title="&lt;TABLE&gt;">
<polygon fill="none" stroke="black" points="292.14,-466 292.14,-491 354.14,-491 354.14,-466 292.14,-466"/>
<text text-anchor="start" x="299.64" y="-474.8" font-family="Times,serif" font-size="14.00">preserve</text>
</a>
</g>
<polygon fill="black" stroke="black" points="290.14,-541 290.14,-541 356.14,-541 356.14,-541 290.14,-541"/>
<polygon fill="none" stroke="black" stroke-width="2" points="291.14,-465 291.14,-567 355.14,-567 355.14,-465 291.14,-465"/>
</g>
<!-- key_type&#45;&gt;modifiers_filter -->
<g id="edge2" class="edge">
<title>key_type:modifiers&#45;&gt;modifiers_filter</title>
<path fill="none" stroke="black" d="M291.14,-529C287.45,-529 273.75,-569.63 264.62,-598.03"/>
<polygon fill="black" stroke="black" points="261.2,-597.25 261.5,-607.84 267.87,-599.37 261.2,-597.25"/>
</g>
<!-- key_type&#45;&gt;level_match -->
<g id="edge5" class="edge">
<title>key_type:map&#45;&gt;level_match</title>
<path fill="none" stroke="black" d="M355.14,-503C383.93,-503 376.47,-465.01 365.42,-433.69"/>
<polygon fill="black" stroke="black" points="368.67,-432.39 361.91,-424.23 362.1,-434.82 368.67,-432.39"/>
</g>
<!-- key_type&#45;&gt;consume_modifiers -->
<g id="edge13" class="edge">
<title>key_type:preserve&#45;&gt;consume_modifiers</title>
<path fill="none" stroke="black" d="M291.14,-478C279.83,-478 281.99,-467.05 273.14,-460 252.23,-443.35 226.96,-427.36 206.23,-415.18"/>
<polygon fill="black" stroke="black" points="207.76,-412.02 197.35,-410.03 204.25,-418.07 207.76,-412.02"/>
</g>
</g>
</svg>
