<?xml version="1.0" encoding="UTF-8" standalone="no"?>
<!DOCTYPE svg PUBLIC "-//W3C//DTD SVG 1.1//EN"
 "http://www.w3.org/Graphics/SVG/1.1/DTD/svg11.dtd">
<!-- Generated by graphviz version 2.43.0 (0)
 -->
<!-- Title: %3 Pages: 1 -->
<svg width="569pt" height="724pt"
 viewBox="0.00 0.00 568.94 724.00" xmlns="http://www.w3.org/2000/svg" xmlns:xlink="http://www.w3.org/1999/xlink">
<g id="graph0" class="graph" transform="scale(1 1) rotate(0) translate(4 720)">
<title>%3</title>
<polygon fill="white" stroke="transparent" points="-4,4 -4,-720 564.94,-720 564.94,4 -4,4"/>
<!-- active_modifiers -->
<g id="node1" class="node">
<title>active_modifiers</title>
<g id="a_node1"><a xlink:href="group__state.html#ga98b07d43090b761a79ac96967ae431c9" target="_top" xlink:title="Active modifiers">
<ellipse fill="none" stroke="black" cx="316.94" cy="-698" rx="85.59" ry="18"/>
<text text-anchor="middle" x="316.94" y="-694.3" font-family="Times,serif" font-size="14.00">Active modifiers</text>
</a>
</g>
</g>
<!-- modifiers_filter -->
<g id="node2" class="node">
<title>modifiers_filter</title>
<path fill="none" stroke="black" d="M484.94,-644C484.94,-644 148.94,-644 148.94,-644 142.94,-644 136.94,-638 136.94,-632 136.94,-632 136.94,-620 136.94,-620 136.94,-614 142.94,-608 148.94,-608 148.94,-608 484.94,-608 484.94,-608 490.94,-608 496.94,-614 496.94,-620 496.94,-620 496.94,-632 496.94,-632 496.94,-638 490.94,-644 484.94,-644"/>
<text text-anchor="start" x="255.44" y="-629.8" font-family="Times,serif" font-weight="bold" font-size="14.00">Filter modifiers</text>
<text text-anchor="start" x="144.94" y="-615.8" font-family="Times,serif" font-size="14.00">Keep only meaningful modifiers for the key type</text>
</g>
<!-- active_modifiers&#45;&gt;modifiers_filter -->
<g id="edge1" class="edge">
<title>active_modifiers&#45;&gt;modifiers_filter</title>
<path fill="none" stroke="black" d="M316.94,-679.7C316.94,-671.98 316.94,-662.71 316.94,-654.11"/>
<polygon fill="black" stroke="black" points="320.44,-654.1 316.94,-644.1 313.44,-654.1 320.44,-654.1"/>
</g>
<!-- filtered_modifiers -->
<g id="node3" class="node">
<title>filtered_modifiers</title>
<ellipse fill="none" stroke="black" cx="236.94" cy="-516" rx="94.48" ry="18"/>
<text text-anchor="middle" x="236.94" y="-512.3" font-family="Times,serif" font-size="14.00">Filtered modifiers</text>
</g>
<!-- modifiers_filter&#45;&gt;filtered_modifiers -->
<g id="edge3" class="edge">
<title>modifiers_filter&#45;&gt;filtered_modifiers</title>
<path fill="none" stroke="black" d="M304.09,-607.65C290.95,-589.91 270.41,-562.18 255.5,-542.06"/>
<polygon fill="black" stroke="black" points="258.26,-539.91 249.5,-533.95 252.64,-544.07 258.26,-539.91"/>
</g>
<!-- level_match -->
<g id="node4" class="node">
<title>level_match</title>
<path fill="none" stroke="black" d="M548.94,-424C548.94,-424 316.94,-424 316.94,-424 310.94,-424 304.94,-418 304.94,-412 304.94,-412 304.94,-372 304.94,-372 304.94,-366 310.94,-360 316.94,-360 316.94,-360 548.94,-360 548.94,-360 554.94,-360 560.94,-366 560.94,-372 560.94,-372 560.94,-412 560.94,-412 560.94,-418 554.94,-424 548.94,-424"/>
<text text-anchor="start" x="312.94" y="-409.8" font-family="Times,serif" font-weight="bold" font-size="14.00">Lookup modifiers combination</text>
<text text-anchor="start" x="364.94" y="-395.8" font-family="Times,serif" font-size="14.00">Find the shift level</text>
<text text-anchor="start" x="319.94" y="-381.8" font-family="Times,serif" font-size="14.00">matching exactly the modifiers,</text>
<text text-anchor="start" x="334.94" y="-367.8" font-family="Times,serif" font-size="14.00">defaulting to the base level</text>
</g>
<!-- filtered_modifiers&#45;&gt;level_match -->
<g id="edge4" class="edge">
<title>filtered_modifiers&#45;&gt;level_match</title>
<path fill="none" stroke="black" d="M263.37,-498.55C291.62,-480.96 337.31,-452.53 374.15,-429.6"/>
<polygon fill="black" stroke="black" points="376.18,-432.45 382.82,-424.2 372.48,-426.51 376.18,-432.45"/>
</g>
<!-- consume_modifiers -->
<g id="node6" class="node">
<title>consume_modifiers</title>
<path fill="none" stroke="black" d="M274.44,-410C274.44,-410 129.44,-410 129.44,-410 123.44,-410 117.44,-404 117.44,-398 117.44,-398 117.44,-386 117.44,-386 117.44,-380 123.44,-374 129.44,-374 129.44,-374 274.44,-374 274.44,-374 280.44,-374 286.44,-380 286.44,-386 286.44,-386 286.44,-398 286.44,-398 286.44,-404 280.44,-410 274.44,-410"/>
<text text-anchor="start" x="125.44" y="-389.3" font-family="Times,serif" font-weight="bold" font-size="14.00">Consume modifiers</text>
</g>
<!-- filtered_modifiers&#45;&gt;consume_modifiers -->
<g id="edge12" class="edge">
<title>filtered_modifiers&#45;&gt;consume_modifiers</title>
<path fill="none" stroke="black" d="M232,-497.78C226.19,-477.52 216.47,-443.66 209.67,-419.93"/>
<polygon fill="black" stroke="black" points="212.98,-418.78 206.86,-410.13 206.25,-420.71 212.98,-418.78"/>
</g>
<!-- shift_level -->
<g id="node5" class="node">
<title>shift_level</title>
<g id="a_node5"><a xlink:href="" target="_top" xlink:title="Shift level">
<ellipse fill="none" stroke="black" cx="448.94" cy="-306" rx="57.69" ry="18"/>
<text text-anchor="middle" x="448.94" y="-302.3" font-family="Times,serif" font-size="14.00">Shift level</text>
</a>
</g>
</g>
<!-- level_match&#45;&gt;shift_level -->
<g id="edge6" class="edge">
<title>level_match&#45;&gt;shift_level</title>
<path fill="none" stroke="black" d="M438.9,-359.72C440.48,-351.42 442.18,-342.52 443.71,-334.44"/>
<polygon fill="black" stroke="black" points="447.19,-334.88 445.63,-324.4 440.32,-333.57 447.19,-334.88"/>
</g>
<!-- symbols_table_lookup -->
<g id="node8" class="node">
<title>symbols_table_lookup</title>
<path fill="none" stroke="black" d="M545.94,-252C545.94,-252 385.94,-252 385.94,-252 379.94,-252 373.94,-246 373.94,-240 373.94,-240 373.94,-228 373.94,-228 373.94,-222 379.94,-216 385.94,-216 385.94,-216 545.94,-216 545.94,-216 551.94,-216 557.94,-222 557.94,-228 557.94,-228 557.94,-240 557.94,-240 557.94,-246 551.94,-252 545.94,-252"/>
<text text-anchor="start" x="381.94" y="-231.3" font-family="Times,serif" font-weight="bold" font-size="14.00">Symbols table lookup</text>
</g>
<!-- shift_level&#45;&gt;symbols_table_lookup -->
<g id="edge7" class="edge">
<title>shift_level&#45;&gt;symbols_table_lookup</title>
<path fill="none" stroke="black" d="M453.14,-287.7C455.04,-279.9 457.32,-270.51 459.42,-261.83"/>
<polygon fill="black" stroke="black" points="462.83,-262.65 461.79,-252.1 456.03,-261 462.83,-262.65"/>
</g>
<!-- consumed_modifiers -->
<g id="node7" class="node">
<title>consumed_modifiers</title>
<g id="a_node7"><a xlink:href="group__state.html" target="_top" xlink:title="Consumed modifiers">
<ellipse fill="none" stroke="black" cx="105.94" cy="-234" rx="105.88" ry="18"/>
<text text-anchor="middle" x="105.94" y="-230.3" font-family="Times,serif" font-size="14.00">Consumed modifiers</text>
</a>
</g>
</g>
<!-- consume_modifiers&#45;&gt;consumed_modifiers -->
<g id="edge14" class="edge">
<title>consume_modifiers&#45;&gt;consumed_modifiers</title>
<path fill="none" stroke="black" d="M191.3,-373.71C174.5,-346.42 141.74,-293.17 122.05,-261.18"/>
<polygon fill="black" stroke="black" points="124.85,-259.05 116.63,-252.37 118.89,-262.72 124.85,-259.05"/>
</g>
<!-- keysyms_transformations -->
<g id="node11" class="node">
<title>keysyms_transformations</title>
<g id="a_node11"><a xlink:href="group__keysyms.html" target="_top" xlink:title="&lt;b&gt;Keysyms transformations&lt;/b&gt;">
<path fill="none" stroke="black" d="M381.94,-108C381.94,-108 187.94,-108 187.94,-108 181.94,-108 175.94,-102 175.94,-96 175.94,-96 175.94,-84 175.94,-84 175.94,-78 181.94,-72 187.94,-72 187.94,-72 381.94,-72 381.94,-72 387.94,-72 393.94,-78 393.94,-84 393.94,-84 393.94,-96 393.94,-96 393.94,-102 387.94,-108 381.94,-108"/>
<text text-anchor="start" x="183.94" y="-87.3" font-family="Times,serif" font-weight="bold" font-size="14.00">Keysyms transformations</text>
</a>
</g>
</g>
<!-- consumed_modifiers&#45;&gt;keysyms_transformations -->
<g id="edge15" class="edge">
<title>consumed_modifiers&#45;&gt;keysyms_transformations</title>
<path fill="none" stroke="black" d="M127.18,-216.15C158.98,-190.92 219.11,-143.22 255.25,-114.55"/>
<polygon fill="black" stroke="black" points="257.79,-117 263.45,-108.05 253.44,-111.52 257.79,-117"/>
</g>
<!-- keysym_pre_transformation -->
<g id="node10" class="node">
<title>keysym_pre_transformation</title>
<ellipse fill="none" stroke="black" cx="399.94" cy="-162" rx="68.79" ry="18"/>
<text text-anchor="middle" x="399.94" y="-158.3" font-family="Times,serif" font-size="14.00">Raw keysym</text>
</g>
<!-- symbols_table_lookup&#45;&gt;keysym_pre_transformation -->
<g id="edge9" class="edge">
<title>symbols_table_lookup&#45;&gt;keysym_pre_transformation</title>
<path fill="none" stroke="black" d="M449.63,-215.7C441.51,-207.09 431.58,-196.55 422.73,-187.17"/>
<polygon fill="black" stroke="black" points="425.02,-184.5 415.61,-179.62 419.93,-189.3 425.02,-184.5"/>
</g>
<!-- symbols_table -->
<g id="node9" class="node">
<title>symbols_table</title>
<g id="a_node9"><a xlink:href="keymap-text-format-v1.html#key-symbols-table" target="_top" xlink:title="&lt;b&gt;Symbols table&lt;/b&gt;">
<polygon fill="none" stroke="black" stroke-width="2" points="355.94,-252 229.94,-252 229.94,-216 355.94,-216 355.94,-252"/>
<text text-anchor="start" x="237.94" y="-231.3" font-family="Times,serif" font-weight="bold" font-size="14.00">Symbols table</text>
</a>
</g>
</g>
<!-- symbols_table&#45;&gt;symbols_table_lookup -->
<g id="edge8" class="edge">
<title>symbols_table&#45;&gt;symbols_table_lookup</title>
<path fill="none" stroke="black" d="M356.13,-234C358.6,-234 361.07,-234 363.55,-234"/>
<polygon fill="black" stroke="black" points="363.71,-237.5 373.71,-234 363.71,-230.5 363.71,-237.5"/>
</g>
<!-- keysym_pre_transformation&#45;&gt;keysyms_transformations -->
<g id="edge10" class="edge">
<title>keysym_pre_transformation&#45;&gt;keysyms_transformations</title>
<path fill="none" stroke="black" d="M374.13,-145.29C358.68,-135.89 338.79,-123.78 321.71,-113.38"/>
<polygon fill="black" stroke="black" points="323.44,-110.34 313.08,-108.13 319.8,-116.32 323.44,-110.34"/>
</g>
<!-- keysym_post_transformation -->
<g id="node12" class="node">
<title>keysym_post_transformation</title>
<ellipse fill="none" stroke="black" cx="284.94" cy="-18" rx="72.29" ry="18"/>
<text text-anchor="middle" x="284.94" y="-14.3" font-family="Times,serif" font-size="14.00">Final keysym</text>
</g>
<!-- keysyms_transformations&#45;&gt;keysym_post_transformation -->
<g id="edge11" class="edge">
<title>keysyms_transformations&#45;&gt;keysym_post_transformation</title>
<path fill="none" stroke="black" d="M284.94,-71.7C284.94,-63.98 284.94,-54.71 284.94,-46.11"/>
<polygon fill="black" stroke="black" points="288.44,-46.1 284.94,-36.1 281.44,-46.1 288.44,-46.1"/>
</g>
<!-- key_type -->
<g id="node13" class="node">
<title>key_type</title>
<g id="a_node13_0"><a xlink:href="keymap-text-format-v1.html#the-xkb_types-section" target="_top" xlink:title="&lt;TABLE&gt;">
<polygon fill="none" stroke="black" points="358.94,-541 358.94,-566 436.94,-566 436.94,-541 358.94,-541"/>
<text text-anchor="start" x="363.94" y="-550.8" font-family="Times,serif" font-weight="bold" font-size="14.00">Key type</text>
</a>
</g>
<g id="a_node13_1"><a xlink:href="keymap-text-format-v1.html#key-type-modifiers" target="_top" xlink:title="&lt;TABLE&gt;">
<polygon fill="none" stroke="black" points="358.94,-516 358.94,-541 436.94,-541 436.94,-516 358.94,-516"/>
<text text-anchor="start" x="364.44" y="-524.8" font-family="Times,serif" font-size="14.00">modifiers</text>
</a>
</g>
<g id="a_node13_2"><a xlink:href="keymap-text-format-v1.html#key-type-map" target="_top" xlink:title="&lt;TABLE&gt;">
<polygon fill="none" stroke="black" points="358.94,-491 358.94,-516 436.94,-516 436.94,-491 358.94,-491"/>
<text text-anchor="start" x="382.44" y="-499.8" font-family="Times,serif" font-size="14.00">map</text>
</a>
</g>
<g id="a_node13_3"><a xlink:href="keymap-text-format-v1.html#key-type-preserve" target="_top" xlink:title="&lt;TABLE&gt;">
<polygon fill="none" stroke="black" points="358.94,-466 358.94,-491 436.94,-491 436.94,-466 358.94,-466"/>
<text text-anchor="start" x="365.94" y="-474.8" font-family="Times,serif" font-size="14.00">preserve</text>
</a>
</g>
<polygon fill="black" stroke="black" points="356.94,-541 356.94,-541 438.94,-541 438.94,-541 356.94,-541"/>
<polygon fill="none" stroke="black" stroke-width="2" points="357.94,-465 357.94,-567 437.94,-567 437.94,-465 357.94,-465"/>
</g>
<!-- key_type&#45;&gt;modifiers_filter -->
<g id="edge2" class="edge">
<title>key_type:modifiers&#45;&gt;modifiers_filter</title>
<path fill="none" stroke="black" d="M357.94,-529C337.22,-529 348.06,-552.94 339.94,-572 336.27,-580.62 332.21,-590.01 328.54,-598.46"/>
<polygon fill="black" stroke="black" points="325.24,-597.27 324.46,-607.84 331.66,-600.07 325.24,-597.27"/>
</g>
<!-- key_type&#45;&gt;level_match -->
<g id="edge5" class="edge">
<title>key_type:map&#45;&gt;level_match</title>
<path fill="none" stroke="black" d="M437.94,-503C466.7,-503 459.93,-465.01 449.46,-433.69"/>
<polygon fill="black" stroke="black" points="452.75,-432.5 446.13,-424.23 446.15,-434.82 452.75,-432.5"/>
</g>
<!-- key_type&#45;&gt;consume_modifiers -->
<g id="edge13" class="edge">
<title>key_type:preserve&#45;&gt;consume_modifiers</title>
<path fill="none" stroke="black" d="M357.94,-478C346.63,-478 349.16,-466.56 339.94,-460 314.05,-441.57 282.31,-425.76 255.79,-414.13"/>
<polygon fill="black" stroke="black" points="256.85,-410.78 246.28,-410.04 254.09,-417.21 256.85,-410.78"/>
</g>
</g>
</svg>
