<?xml version="1.0" encoding="UTF-8" standalone="no"?>
<!DOCTYPE svg PUBLIC "-//W3C//DTD SVG 1.1//EN"
 "http://www.w3.org/Graphics/SVG/1.1/DTD/svg11.dtd">
<!-- Generated by graphviz version 2.49.3 (0)
 -->
<!-- Title: include/xkbcommon/xkbcommon&#45;keysyms.h Pages: 1 -->
<svg width="346pt" height="159pt"
 viewBox="0.00 0.00 346.00 159.00" xmlns="http://www.w3.org/2000/svg" xmlns:xlink="http://www.w3.org/1999/xlink">
<g id="graph0" class="graph" transform="scale(1 1) rotate(0) translate(4 155)">
<title>include/xkbcommon/xkbcommon&#45;keysyms.h</title>
<!-- Node1 -->
<g id="Node000001" class="node">
<title>Node1</title>
<g id="a_Node000001"><a xlink:title="Key symbols (keysyms) definitions.">
<polygon fill="#999999" stroke="#666666" points="249,-151 89,-151 89,-121 249,-121 249,-151"/>
<text text-anchor="start" x="97" y="-139" font-family="Helvetica,sans-Serif" font-size="10.00">include/xkbcommon/xkbcommon</text>
<text text-anchor="middle" x="169" y="-128" font-family="Helvetica,sans-Serif" font-size="10.00">&#45;keysyms.h</text>
</a>
</g>
</g>
<!-- Node2 -->
<g id="Node000002" class="node">
<title>Node2</title>
<g id="a_Node000002"><a xlink:href="xkbcommon_8h.html" target="_top" xlink:title="Main libxkbcommon API.">
<polygon fill="white" stroke="#666666" points="253,-85 85,-85 85,-66 253,-66 253,-85"/>
<text text-anchor="middle" x="169" y="-73" font-family="Helvetica,sans-Serif" font-size="10.00">include/xkbcommon/xkbcommon.h</text>
</a>
</g>
</g>
<!-- Node1&#45;&gt;Node2 -->
<g id="edge1_Node000001_Node000002" class="edge">
<title>Node1&#45;&gt;Node2</title>
<g id="a_edge1_Node000001_Node000002"><a xlink:title=" ">
<path fill="none" stroke="#63b8ff" d="M169,-110.75C169,-101.72 169,-92.03 169,-85.27"/>
<polygon fill="#63b8ff" stroke="#63b8ff" points="165.5,-110.84 169,-120.84 172.5,-110.84 165.5,-110.84"/>
</a>
</g>
</g>
<!-- Node3 -->
<g id="Node000003" class="node">
<title>Node3</title>
<g id="a_Node000003"><a xlink:href="xkbcommon-compose_8h.html" target="_top" xlink:title="libxkbcommon Compose API &#45; support for Compose and dead&#45;keys.">
<polygon fill="white" stroke="#666666" points="160,-30 0,-30 0,0 160,0 160,-30"/>
<text text-anchor="start" x="8" y="-18" font-family="Helvetica,sans-Serif" font-size="10.00">include/xkbcommon/xkbcommon</text>
<text text-anchor="middle" x="80" y="-7" font-family="Helvetica,sans-Serif" font-size="10.00">&#45;compose.h</text>
</a>
</g>
</g>
<!-- Node2&#45;&gt;Node3 -->
<g id="edge2_Node000002_Node000003" class="edge">
<title>Node2&#45;&gt;Node3</title>
<g id="a_edge2_Node000002_Node000003"><a xlink:title=" ">
<path fill="none" stroke="#63b8ff" d="M147.39,-60.29C133.45,-51.13 115.39,-39.26 101.47,-30.11"/>
<polygon fill="#63b8ff" stroke="#63b8ff" points="145.59,-63.3 155.87,-65.87 149.43,-57.45 145.59,-63.3"/>
</a>
</g>
</g>
<!-- Node4 -->
<g id="Node000004" class="node">
<title>Node4</title>
<g id="a_Node000004"><a xlink:href="xkbcommon-x11_8h.html" target="_top" xlink:title="libxkbcommon&#45;x11 API &#45; Additional X11 support for xkbcommon.">
<polygon fill="white" stroke="#666666" points="338,-30 178,-30 178,0 338,0 338,-30"/>
<text text-anchor="start" x="186" y="-18" font-family="Helvetica,sans-Serif" font-size="10.00">include/xkbcommon/xkbcommon</text>
<text text-anchor="middle" x="258" y="-7" font-family="Helvetica,sans-Serif" font-size="10.00">&#45;x11.h</text>
</a>
</g>
</g>
<!-- Node2&#45;&gt;Node4 -->
<g id="edge3_Node000002_Node000004" class="edge">
<title>Node2&#45;&gt;Node4</title>
<g id="a_edge3_Node000002_Node000004"><a xlink:title=" ">
<path fill="none" stroke="#63b8ff" d="M190.61,-60.29C204.55,-51.13 222.61,-39.26 236.53,-30.11"/>
<polygon fill="#63b8ff" stroke="#63b8ff" points="188.57,-57.45 182.13,-65.87 192.41,-63.3 188.57,-57.45"/>
</a>
</g>
</g>
</g>
</svg>
