<?xml version="1.0" encoding="UTF-8" standalone="no"?>
<!DOCTYPE svg PUBLIC "-//W3C//DTD SVG 1.1//EN"
 "http://www.w3.org/Graphics/SVG/1.1/DTD/svg11.dtd">
<!-- Generated by graphviz version 2.43.0 (0)
 -->
<!-- Title: include/xkbcommon/xkbcommon.h Pages: 1 -->
<svg width="681pt" height="95pt"
 viewBox="0.00 0.00 681.00 95.00" xmlns="http://www.w3.org/2000/svg" xmlns:xlink="http://www.w3.org/1999/xlink">
<g id="graph0" class="graph" transform="scale(1 1) rotate(0) translate(4 91)">
<title>include/xkbcommon/xkbcommon.h</title>
<polygon fill="white" stroke="transparent" points="-4,4 -4,-91 677,-91 677,4 -4,4"/>
<!-- Node1 -->
<g id="node1" class="node">
<title>Node1</title>
<g id="a_node1"><a xlink:title="Main libxkbcommon API.">
<polygon fill="#bfbfbf" stroke="black" points="131.5,-67.5 131.5,-86.5 319.5,-86.5 319.5,-67.5 131.5,-67.5"/>
<text text-anchor="middle" x="225.5" y="-74.5" font-family="Helvetica,sans-Serif" font-size="10.00">include/xkbcommon/xkbcommon.h</text>
</a>
</g>
</g>
<!-- Node2 -->
<g id="node2" class="node">
<title>Node2</title>
<g id="a_node2"><a xlink:title=" ">
<polygon fill="white" stroke="#bfbfbf" points="0,-6 0,-25 53,-25 53,-6 0,-6"/>
<text text-anchor="middle" x="26.5" y="-13" font-family="Helvetica,sans-Serif" font-size="10.00">stdint.h</text>
</a>
</g>
</g>
<!-- Node1&#45;&gt;Node2 -->
<g id="edge1" class="edge">
<title>Node1&#45;&gt;Node2</title>
<path fill="none" stroke="midnightblue" d="M190.17,-67.48C156.92,-59.17 105.88,-45.67 62.5,-31 60.37,-30.28 58.19,-29.5 56,-28.69"/>
<polygon fill="midnightblue" stroke="midnightblue" points="57.12,-25.37 46.53,-25.04 54.6,-31.9 57.12,-25.37"/>
</g>
<!-- Node3 -->
<g id="node3" class="node">
<title>Node3</title>
<g id="a_node3"><a xlink:title=" ">
<polygon fill="white" stroke="#bfbfbf" points="71.5,-6 71.5,-25 121.5,-25 121.5,-6 71.5,-6"/>
<text text-anchor="middle" x="96.5" y="-13" font-family="Helvetica,sans-Serif" font-size="10.00">stdio.h</text>
</a>
</g>
</g>
<!-- Node1&#45;&gt;Node3 -->
<g id="edge2" class="edge">
<title>Node1&#45;&gt;Node3</title>
<path fill="none" stroke="midnightblue" d="M207.02,-67.48C185.37,-57.49 149.29,-40.85 124.27,-29.31"/>
<polygon fill="midnightblue" stroke="midnightblue" points="125.49,-26.02 114.95,-25.01 122.56,-32.38 125.49,-26.02"/>
</g>
<!-- Node4 -->
<g id="node4" class="node">
<title>Node4</title>
<g id="a_node4"><a xlink:title=" ">
<polygon fill="white" stroke="#bfbfbf" points="139.5,-6 139.5,-25 195.5,-25 195.5,-6 139.5,-6"/>
<text text-anchor="middle" x="167.5" y="-13" font-family="Helvetica,sans-Serif" font-size="10.00">stdarg.h</text>
</a>
</g>
</g>
<!-- Node1&#45;&gt;Node4 -->
<g id="edge3" class="edge">
<title>Node1&#45;&gt;Node4</title>
<path fill="none" stroke="midnightblue" d="M217.19,-67.48C208.32,-58.37 194.05,-43.74 183.08,-32.48"/>
<polygon fill="midnightblue" stroke="midnightblue" points="185.28,-29.73 175.79,-25.01 180.27,-34.61 185.28,-29.73"/>
</g>
<!-- Node5 -->
<g id="node5" class="node">
<title>Node5</title>
<g id="a_node5"><a xlink:href="xkbcommon-names_8h.html" target="_top" xlink:title="Predefined names for common modifiers and LEDs.">
<polygon fill="white" stroke="black" points="214,-0.5 214,-30.5 355,-30.5 355,-0.5 214,-0.5"/>
<text text-anchor="start" x="222" y="-18.5" font-family="Helvetica,sans-Serif" font-size="10.00">xkbcommon/xkbcommon</text>
<text text-anchor="middle" x="284.5" y="-7.5" font-family="Helvetica,sans-Serif" font-size="10.00">&#45;names.h</text>
</a>
</g>
</g>
<!-- Node1&#45;&gt;Node5 -->
<g id="edge4" class="edge">
<title>Node1&#45;&gt;Node5</title>
<path fill="none" stroke="midnightblue" d="M233.95,-67.48C241.65,-59.72 253.32,-47.94 263.51,-37.66"/>
<polygon fill="midnightblue" stroke="midnightblue" points="266.04,-40.09 270.59,-30.52 261.07,-35.16 266.04,-40.09"/>
</g>
<!-- Node6 -->
<g id="node6" class="node">
<title>Node6</title>
<g id="a_node6"><a xlink:href="xkbcommon-keysyms_8h.html" target="_top" xlink:title="Key symbols (keysyms) definitions.">
<polygon fill="white" stroke="black" points="373,-0.5 373,-30.5 514,-30.5 514,-0.5 373,-0.5"/>
<text text-anchor="start" x="381" y="-18.5" font-family="Helvetica,sans-Serif" font-size="10.00">xkbcommon/xkbcommon</text>
<text text-anchor="middle" x="443.5" y="-7.5" font-family="Helvetica,sans-Serif" font-size="10.00">&#45;keysyms.h</text>
</a>
</g>
</g>
<!-- Node1&#45;&gt;Node6 -->
<g id="edge5" class="edge">
<title>Node1&#45;&gt;Node6</title>
<path fill="none" stroke="midnightblue" d="M256.73,-67.48C289.36,-58.57 341.39,-44.37 382.26,-33.22"/>
<polygon fill="midnightblue" stroke="midnightblue" points="383.4,-36.53 392.12,-30.52 381.55,-29.78 383.4,-36.53"/>
</g>
<!-- Node7 -->
<g id="node7" class="node">
<title>Node7</title>
<g id="a_node7"><a xlink:title=" ">
<polygon fill="white" stroke="#bfbfbf" points="532,-0.5 532,-30.5 673,-30.5 673,-0.5 532,-0.5"/>
<text text-anchor="start" x="540" y="-18.5" font-family="Helvetica,sans-Serif" font-size="10.00">xkbcommon/xkbcommon</text>
<text text-anchor="middle" x="602.5" y="-7.5" font-family="Helvetica,sans-Serif" font-size="10.00">&#45;compat.h</text>
</a>
</g>
</g>
<!-- Node1&#45;&gt;Node7 -->
<g id="edge6" class="edge">
<title>Node1&#45;&gt;Node7</title>
<path fill="none" stroke="midnightblue" d="M285.8,-67.47C343.83,-59.12 434.3,-45.78 521.78,-31.26"/>
<polygon fill="midnightblue" stroke="midnightblue" points="522.6,-34.67 531.88,-29.58 521.44,-27.77 522.6,-34.67"/>
</g>
</g>
</svg>
