<?xml version="1.0" encoding="UTF-8" standalone="no"?>
<!DOCTYPE svg PUBLIC "-//W3C//DTD SVG 1.1//EN"
 "http://www.w3.org/Graphics/SVG/1.1/DTD/svg11.dtd">
<!-- Generated by graphviz version 2.43.0 (0)
 -->
<!-- Title: include/xkbcommon/xkbcommon&#45;keysyms.h Pages: 1 -->
<svg width="384pt" height="162pt"
 viewBox="0.00 0.00 384.00 162.00" xmlns="http://www.w3.org/2000/svg" xmlns:xlink="http://www.w3.org/1999/xlink">
<g id="graph0" class="graph" transform="scale(1 1) rotate(0) translate(4 158)">
<title>include/xkbcommon/xkbcommon&#45;keysyms.h</title>
<polygon fill="white" stroke="transparent" points="-4,4 -4,-158 380,-158 380,4 -4,4"/>
<!-- Node1 -->
<g id="node1" class="node">
<title>Node1</title>
<g id="a_node1"><a xlink:title="Key symbols (keysyms) definitions.">
<polygon fill="#bfbfbf" stroke="black" points="98,-123.5 98,-153.5 277,-153.5 277,-123.5 98,-123.5"/>
<text text-anchor="start" x="106" y="-141.5" font-family="Helvetica,sans-Serif" font-size="10.00">include/xkbcommon/xkbcommon</text>
<text text-anchor="middle" x="187.5" y="-130.5" font-family="Helvetica,sans-Serif" font-size="10.00">&#45;keysyms.h</text>
</a>
</g>
</g>
<!-- Node2 -->
<g id="node2" class="node">
<title>Node2</title>
<g id="a_node2"><a xlink:href="xkbcommon_8h.html" target="_top" xlink:title="Main libxkbcommon API.">
<polygon fill="white" stroke="black" points="93.5,-67.5 93.5,-86.5 281.5,-86.5 281.5,-67.5 93.5,-67.5"/>
<text text-anchor="middle" x="187.5" y="-74.5" font-family="Helvetica,sans-Serif" font-size="10.00">include/xkbcommon/xkbcommon.h</text>
</a>
</g>
</g>
<!-- Node1&#45;&gt;Node2 -->
<g id="edge1" class="edge">
<title>Node1&#45;&gt;Node2</title>
<path fill="none" stroke="midnightblue" d="M187.5,-113.29C187.5,-103.86 187.5,-93.65 187.5,-86.66"/>
<polygon fill="midnightblue" stroke="midnightblue" points="184,-113.4 187.5,-123.4 191,-113.4 184,-113.4"/>
</g>
<!-- Node3 -->
<g id="node3" class="node">
<title>Node3</title>
<g id="a_node3"><a xlink:href="xkbcommon-compose_8h.html" target="_top" xlink:title="libxkbcommon Compose API &#45; support for Compose and dead&#45;keys.">
<polygon fill="white" stroke="black" points="0,-0.5 0,-30.5 179,-30.5 179,-0.5 0,-0.5"/>
<text text-anchor="start" x="8" y="-18.5" font-family="Helvetica,sans-Serif" font-size="10.00">include/xkbcommon/xkbcommon</text>
<text text-anchor="middle" x="89.5" y="-7.5" font-family="Helvetica,sans-Serif" font-size="10.00">&#45;compose.h</text>
</a>
</g>
</g>
<!-- Node2&#45;&gt;Node3 -->
<g id="edge2" class="edge">
<title>Node2&#45;&gt;Node3</title>
<path fill="none" stroke="midnightblue" d="M164.9,-62.28C149.21,-52.75 128.39,-40.11 112.6,-30.52"/>
<polygon fill="midnightblue" stroke="midnightblue" points="163.09,-65.28 173.46,-67.48 166.73,-59.29 163.09,-65.28"/>
</g>
<!-- Node4 -->
<g id="node4" class="node">
<title>Node4</title>
<g id="a_node4"><a xlink:href="xkbcommon-x11_8h.html" target="_top" xlink:title="libxkbcommon&#45;x11 API &#45; Additional X11 support for xkbcommon.">
<polygon fill="white" stroke="black" points="197,-0.5 197,-30.5 376,-30.5 376,-0.5 197,-0.5"/>
<text text-anchor="start" x="205" y="-18.5" font-family="Helvetica,sans-Serif" font-size="10.00">include/xkbcommon/xkbcommon</text>
<text text-anchor="middle" x="286.5" y="-7.5" font-family="Helvetica,sans-Serif" font-size="10.00">&#45;x11.h</text>
</a>
</g>
</g>
<!-- Node2&#45;&gt;Node4 -->
<g id="edge3" class="edge">
<title>Node2&#45;&gt;Node4</title>
<path fill="none" stroke="midnightblue" d="M210.33,-62.28C226.18,-52.75 247.22,-40.11 263.17,-30.52"/>
<polygon fill="midnightblue" stroke="midnightblue" points="208.45,-59.32 201.68,-67.48 212.06,-65.32 208.45,-59.32"/>
</g>
</g>
</svg>
