<?xml version="1.0" encoding="UTF-8" standalone="no"?>
<!DOCTYPE svg PUBLIC "-//W3C//DTD SVG 1.1//EN"
 "http://www.w3.org/Graphics/SVG/1.1/DTD/svg11.dtd">
<!-- Generated by graphviz version 10.0.1 (0)
 -->
<!-- Pages: 1 -->
<svg width="636pt" height="509pt"
 viewBox="0.00 0.00 636.35 508.75" xmlns="http://www.w3.org/2000/svg" xmlns:xlink="http://www.w3.org/1999/xlink">
<g id="graph0" class="graph" transform="scale(1 1) rotate(0) translate(4 504.75)">
<polygon fill="white" stroke="none" points="-4,4 -4,-504.75 632.35,-504.75 632.35,4 -4,4"/>
<!-- RMLVO -->
<g id="node1" class="node">
<title>RMLVO</title>
<g id="a_node1"><a xlink:href="xkb-intro.html#RMLVO-intro" target="_top" xlink:title="&lt;i&gt;End user configuration&lt;/i&gt;&lt;br/&gt;&lt;b&gt;RMLVO:&lt;/b&gt; &lt;b&gt;R&lt;/b&gt;ules, &lt;b&gt;M&lt;/b&gt;odel, &lt;b&gt;L&lt;/b&gt;ayout, &lt;b&gt;V&lt;/b&gt;ariant, &lt;b&gt;O&lt;/b&gt;ptions">
<polygon fill="none" stroke="black" stroke-width="3" points="395.12,-500.75 28.88,-500.75 28.88,-464.75 395.12,-464.75 395.12,-500.75"/>
<text text-anchor="start" x="130.25" y="-484.45" font-family="Times,serif" font-style="italic" font-size="14.00">End user configuration</text>
<text text-anchor="start" x="36.88" y="-470.45" font-family="Times,serif" font-weight="bold" font-size="14.00">RMLVO:</text>
<text text-anchor="start" x="100.62" y="-470.45" font-family="Times,serif" font-size="14.00"> </text>
<text text-anchor="start" x="105.12" y="-470.45" font-family="Times,serif" font-weight="bold" font-size="14.00">R</text>
<text text-anchor="start" x="117.12" y="-470.45" font-family="Times,serif" font-size="14.00">ules, </text>
<text text-anchor="start" x="155.38" y="-470.45" font-family="Times,serif" font-weight="bold" font-size="14.00">M</text>
<text text-anchor="start" x="171.12" y="-470.45" font-family="Times,serif" font-size="14.00">odel, </text>
<text text-anchor="start" x="210.12" y="-470.45" font-family="Times,serif" font-weight="bold" font-size="14.00">L</text>
<text text-anchor="start" x="219.88" y="-470.45" font-family="Times,serif" font-size="14.00">ayout, </text>
<text text-anchor="start" x="268.62" y="-470.45" font-family="Times,serif" font-weight="bold" font-size="14.00">V</text>
<text text-anchor="start" x="279.12" y="-470.45" font-family="Times,serif" font-size="14.00">ariant, </text>
<text text-anchor="start" x="330.88" y="-470.45" font-family="Times,serif" font-weight="bold" font-size="14.00">O</text>
<text text-anchor="start" x="342.88" y="-470.45" font-family="Times,serif" font-size="14.00">ptions</text>
</a>
</g>
</g>
<!-- RMLVO_resolution -->
<g id="node2" class="node">
<title>RMLVO_resolution</title>
<path fill="none" stroke="blue" d="M411.62,-428.75C411.62,-428.75 12.38,-428.75 12.38,-428.75 6.38,-428.75 0.37,-422.75 0.37,-416.75 0.37,-416.75 0.37,-390.75 0.37,-390.75 0.37,-384.75 6.37,-378.75 12.37,-378.75 12.37,-378.75 411.62,-378.75 411.62,-378.75 417.62,-378.75 423.62,-384.75 423.62,-390.75 423.62,-390.75 423.62,-416.75 423.62,-416.75 423.62,-422.75 417.62,-428.75 411.62,-428.75"/>
<text text-anchor="start" x="147.12" y="-412.45" font-family="Times,serif" font-style="italic" font-size="14.00">RMLVO resolution</text>
<text text-anchor="start" x="37.62" y="-398.45" font-family="Times,serif" font-size="14.00">Determine KcCGST using the specified rules file:</text>
<text text-anchor="start" x="8.38" y="-384.45" font-family="Times,serif" font-size="14.00">match the given model, layout, variant and options fields</text>
</g>
<!-- RMLVO&#45;&gt;RMLVO_resolution -->
<g id="edge1" class="edge">
<title>RMLVO&#45;&gt;RMLVO_resolution</title>
<path fill="none" stroke="blue" stroke-width="2" d="M212,-463.5C212,-456.57 212,-448.41 212,-440.42"/>
<polygon fill="blue" stroke="blue" stroke-width="2" points="215.5,-442.01 212,-432.01 208.5,-442.01 215.5,-442.01"/>
</g>
<!-- database -->
<g id="node6" class="node">
<title>database</title>
<polygon fill="none" stroke="black" points="449.75,-311.5 449.75,-338.75 590.25,-338.75 590.25,-311.5 449.75,-311.5"/>
<text text-anchor="start" x="454.75" y="-321.45" font-family="Times,serif" font-weight="bold" font-size="14.00">Layout Database</text>
<polygon fill="none" stroke="black" points="449.75,-284.25 449.75,-311.5 590.25,-311.5 590.25,-284.25 449.75,-284.25"/>
<text text-anchor="start" x="483.25" y="-293.2" font-family="Times,serif" font-size="14.00">Rules files</text>
<polygon fill="none" stroke="black" points="449.75,-257 449.75,-284.25 590.25,-284.25 590.25,-257 449.75,-257"/>
<text text-anchor="start" x="469.75" y="-265.95" font-family="Times,serif" font-size="14.00">Keycodes files</text>
<polygon fill="none" stroke="black" points="449.75,-229.75 449.75,-257 590.25,-257 590.25,-229.75 449.75,-229.75"/>
<text text-anchor="start" x="475.38" y="-238.7" font-family="Times,serif" font-size="14.00">Compat files</text>
<polygon fill="none" stroke="black" points="449.75,-202.5 449.75,-229.75 590.25,-229.75 590.25,-202.5 449.75,-202.5"/>
<text text-anchor="start" x="462.62" y="-211.45" font-family="Times,serif" font-size="14.00">(Geometry files)</text>
<polygon fill="none" stroke="black" points="449.75,-175.25 449.75,-202.5 590.25,-202.5 590.25,-175.25 449.75,-175.25"/>
<text text-anchor="start" x="472.75" y="-184.2" font-family="Times,serif" font-size="14.00">Symbols files</text>
<polygon fill="none" stroke="black" points="449.75,-148 449.75,-175.25 590.25,-175.25 590.25,-148 449.75,-148"/>
<text text-anchor="start" x="482.12" y="-156.95" font-family="Times,serif" font-size="14.00">Types files</text>
<polygon fill="black" stroke="black" points="449.75,-311.5 449.75,-311.5 590.25,-311.5 590.25,-311.5 449.75,-311.5"/>
</g>
<!-- RMLVO&#45;&gt;database -->
<g id="edge5" class="edge">
<title>RMLVO:e&#45;&gt;database:e</title>
<path fill="none" stroke="dimgrey" d="M396,-482.75C511.2,-482.75 697.03,-310.76 602.14,-299.01"/>
<polygon fill="dimgrey" stroke="dimgrey" points="592.22,-298.44 602.46,-294.52 595.99,-298.66 602.2,-299.01 602.2,-299.01 602.2,-299.01 595.99,-298.66 601.95,-303.5 592.22,-298.44"/>
</g>
<!-- KcCGST -->
<g id="node3" class="node">
<title>KcCGST</title>
<g id="a_node3"><a xlink:href="xkb-intro.html#KcCGST-intro" target="_top" xlink:title="&lt;i&gt;Layout database configuration&lt;/i&gt;&lt;br/&gt;&lt;b&gt;KcCGST:&lt;/b&gt; &lt;b&gt;K&lt;/b&gt;ey&lt;b&gt;c&lt;/b&gt;odes, &lt;b&gt;C&lt;/b&gt;ompat, &lt;b&gt;G&lt;/b&gt;eometry, &lt;b&gt;S&lt;/b&gt;ymbols, &lt;b&gt;T&lt;/b&gt;ypes">
<polygon fill="none" stroke="black" stroke-width="3" points="424,-261.38 0,-261.38 0,-225.38 424,-225.38 424,-261.38"/>
<text text-anchor="start" x="103.62" y="-245.07" font-family="Times,serif" font-style="italic" font-size="14.00">Layout database configuration</text>
<text text-anchor="start" x="8" y="-231.07" font-family="Times,serif" font-weight="bold" font-size="14.00">KcCGST:</text>
<text text-anchor="start" x="76.25" y="-231.07" font-family="Times,serif" font-size="14.00"> </text>
<text text-anchor="start" x="80.75" y="-231.07" font-family="Times,serif" font-weight="bold" font-size="14.00">K</text>
<text text-anchor="start" x="92.75" y="-231.07" font-family="Times,serif" font-size="14.00">ey</text>
<text text-anchor="start" x="109.25" y="-231.07" font-family="Times,serif" font-weight="bold" font-size="14.00">c</text>
<text text-anchor="start" x="117.5" y="-231.07" font-family="Times,serif" font-size="14.00">odes, </text>
<text text-anchor="start" x="159.5" y="-231.07" font-family="Times,serif" font-weight="bold" font-size="14.00">C</text>
<text text-anchor="start" x="170.75" y="-231.07" font-family="Times,serif" font-size="14.00">ompat, </text>
<text text-anchor="start" x="224.75" y="-231.07" font-family="Times,serif" font-weight="bold" font-size="14.00">G</text>
<text text-anchor="start" x="236.75" y="-231.07" font-family="Times,serif" font-size="14.00">eometry, </text>
<text text-anchor="start" x="302.75" y="-231.07" font-family="Times,serif" font-weight="bold" font-size="14.00">S</text>
<text text-anchor="start" x="312.5" y="-231.07" font-family="Times,serif" font-size="14.00">ymbols, </text>
<text text-anchor="start" x="372.5" y="-231.07" font-family="Times,serif" font-weight="bold" font-size="14.00">T</text>
<text text-anchor="start" x="383" y="-231.07" font-family="Times,serif" font-size="14.00">ypes</text>
</a>
</g>
</g>
<!-- RMLVO_resolution&#45;&gt;KcCGST -->
<g id="edge2" class="edge">
<title>RMLVO_resolution&#45;&gt;KcCGST</title>
<path fill="none" stroke="blue" stroke-width="2" d="M212,-378.35C212,-350.29 212,-304.21 212,-274.09"/>
<polygon fill="blue" stroke="blue" stroke-width="2" points="215.5,-275.66 212,-265.66 208.5,-275.66 215.5,-275.66"/>
</g>
<!-- KcCGST_resolution -->
<g id="node4" class="node">
<title>KcCGST_resolution</title>
<path fill="none" stroke="blue" d="M362.88,-108C362.88,-108 61.12,-108 61.12,-108 55.12,-108 49.12,-102 49.12,-96 49.12,-96 49.12,-84 49.12,-84 49.12,-78 55.12,-72 61.12,-72 61.12,-72 362.88,-72 362.88,-72 368.88,-72 374.88,-78 374.88,-84 374.88,-84 374.88,-96 374.88,-96 374.88,-102 368.88,-108 362.88,-108"/>
<text text-anchor="start" x="144.5" y="-91.7" font-family="Times,serif" font-style="italic" font-size="14.00">KcCGST resolution</text>
<text text-anchor="start" x="57.12" y="-77.7" font-family="Times,serif" font-size="14.00">Construct the keymap from its components</text>
</g>
<!-- KcCGST&#45;&gt;KcCGST_resolution -->
<g id="edge3" class="edge">
<title>KcCGST&#45;&gt;KcCGST_resolution</title>
<path fill="none" stroke="blue" stroke-width="2" d="M212,-224.12C212,-198.15 212,-150.32 212,-119.62"/>
<polygon fill="blue" stroke="blue" stroke-width="2" points="215.5,-121.42 212,-111.42 208.5,-121.42 215.5,-121.42"/>
</g>
<!-- KcCGST&#45;&gt;database -->
<g id="edge6" class="edge">
<title>KcCGST:e&#45;&gt;database:w</title>
<path fill="none" stroke="dimgrey" d="M424,-243.38C435.5,-243.38 435.1,-256.72 439.54,-264.65"/>
<polygon fill="dimgrey" stroke="dimgrey" points="447.96,-269.74 437.07,-268.42 444.72,-267.79 439.4,-264.57 439.4,-264.57 439.4,-264.57 444.72,-267.79 441.73,-260.72 447.96,-269.74"/>
</g>
<!-- KcCGST&#45;&gt;database -->
<g id="edge7" class="edge">
<title>KcCGST:e&#45;&gt;database:w</title>
<path fill="none" stroke="dimgrey" d="M424,-243.38C430.25,-243.38 433.86,-243.38 437.81,-243.38"/>
<polygon fill="dimgrey" stroke="dimgrey" points="447.78,-243.38 437.78,-247.88 444,-243.38 437.78,-243.38 437.78,-243.38 437.78,-243.38 444,-243.38 437.78,-238.88 447.78,-243.38"/>
</g>
<!-- KcCGST&#45;&gt;database -->
<g id="edge8" class="edge">
<title>KcCGST:e&#45;&gt;database:w</title>
<path fill="none" stroke="dimgrey" d="M424,-243.38C445.82,-243.38 430.96,-207.07 439.02,-193.45"/>
<polygon fill="dimgrey" stroke="dimgrey" points="447.91,-188.93 441.04,-197.47 444.54,-190.64 439,-193.46 439,-193.46 439,-193.46 444.54,-190.64 436.96,-189.45 447.91,-188.93"/>
</g>
<!-- KcCGST&#45;&gt;database -->
<g id="edge9" class="edge">
<title>KcCGST:e&#45;&gt;database:w</title>
<path fill="none" stroke="dimgrey" d="M424,-243.38C457.34,-243.38 422.3,-180.59 438.55,-164.9"/>
<polygon fill="dimgrey" stroke="dimgrey" points="447.85,-161.76 439.81,-169.22 444.26,-162.97 438.37,-164.96 438.37,-164.96 438.37,-164.96 444.26,-162.97 436.93,-160.7 447.85,-161.76"/>
</g>
<!-- Keymap -->
<g id="node5" class="node">
<title>Keymap</title>
<g id="a_node5"><a xlink:href="xkb-intro.html#keymap-intro" target="_top" xlink:title="&lt;i&gt;Window server configuration&lt;/i&gt;&lt;br/&gt;&lt;b&gt;Complete keymap&lt;/b&gt;">
<polygon fill="none" stroke="black" stroke-width="3" points="323.12,-36 100.88,-36 100.88,0 323.12,0 323.12,-36"/>
<text text-anchor="start" x="108.88" y="-19.7" font-family="Times,serif" font-style="italic" font-size="14.00">Window server configuration</text>
<text text-anchor="start" x="141.88" y="-5.7" font-family="Times,serif" font-weight="bold" font-size="14.00">Complete keymap</text>
</a>
</g>
</g>
<!-- KcCGST_resolution&#45;&gt;Keymap -->
<g id="edge4" class="edge">
<title>KcCGST_resolution&#45;&gt;Keymap</title>
<path fill="none" stroke="blue" stroke-width="2" d="M212,-71.7C212,-64.71 212,-56.44 212,-48.55"/>
<polygon fill="blue" stroke="blue" stroke-width="2" points="215.5,-50.11 212,-40.11 208.5,-50.11 215.5,-50.11"/>
</g>
<!-- database&#45;&gt;RMLVO_resolution -->
<g id="edge10" class="edge">
<title>database:w&#45;&gt;RMLVO_resolution:e</title>
<path fill="none" stroke="dimgrey" d="M449,-298.38C428.83,-298.38 442.55,-372.7 433.24,-396.51"/>
<polygon fill="dimgrey" stroke="dimgrey" points="425.91,-402.95 430.45,-392.96 428.75,-400.45 433.42,-396.34 433.42,-396.34 433.42,-396.34 428.75,-400.45 436.4,-399.72 425.91,-402.95"/>
</g>
<!-- database&#45;&gt;KcCGST_resolution -->
<g id="edge11" class="edge">
<title>database:e&#45;&gt;KcCGST_resolution</title>
<path fill="none" stroke="dimgrey" d="M591,-270.38C647.17,-270.38 627.02,-186.24 590,-144 562.69,-112.85 471.9,-99.48 386.14,-93.96"/>
<polygon fill="dimgrey" stroke="dimgrey" points="376.39,-93.37 386.64,-89.48 380.16,-93.6 386.37,-93.97 386.37,-93.97 386.37,-93.97 380.16,-93.6 386.09,-98.47 376.39,-93.37"/>
</g>
<!-- database&#45;&gt;KcCGST_resolution -->
<g id="edge12" class="edge">
<title>database:e&#45;&gt;KcCGST_resolution</title>
<path fill="none" stroke="dimgrey" d="M591,-243.38C635.17,-243.38 619.15,-177.18 590,-144 562.66,-112.88 471.86,-99.51 386.11,-93.98"/>
<polygon fill="dimgrey" stroke="dimgrey" points="376.36,-93.39 386.62,-89.51 380.14,-93.62 386.34,-94 386.34,-94 386.34,-94 380.14,-93.62 386.07,-98.49 376.36,-93.39"/>
</g>
<!-- database&#45;&gt;KcCGST_resolution -->
<g id="edge13" class="edge">
<title>database:e&#45;&gt;KcCGST_resolution</title>
<path fill="none" stroke="dimgrey" d="M591,-188.38C610.73,-188.38 603.11,-158.74 590,-144 562.49,-113.08 471.84,-99.71 386.21,-94.13"/>
<polygon fill="dimgrey" stroke="dimgrey" points="376.47,-93.54 386.73,-89.66 380.24,-93.77 386.45,-94.15 386.45,-94.15 386.45,-94.15 380.24,-93.77 386.18,-98.64 376.47,-93.54"/>
</g>
<!-- database&#45;&gt;KcCGST_resolution -->
<g id="edge14" class="edge">
<title>database:e&#45;&gt;KcCGST_resolution</title>
<path fill="none" stroke="dimgrey" d="M591,-161.38C598.74,-161.38 595.24,-149.69 590,-144 562.04,-113.65 471.82,-100.29 386.54,-94.57"/>
<polygon fill="dimgrey" stroke="dimgrey" points="376.58,-93.93 386.84,-90.08 380.35,-94.17 386.56,-94.57 386.56,-94.57 386.56,-94.57 380.35,-94.17 386.27,-99.06 376.58,-93.93"/>
</g>
</g>
</svg>
