<?xml version="1.0" encoding="UTF-8" standalone="no"?>
<!DOCTYPE svg PUBLIC "-//W3C//DTD SVG 1.1//EN"
 "http://www.w3.org/Graphics/SVG/1.1/DTD/svg11.dtd">
<!-- Generated by graphviz version 12.2.1 (0)
 -->
<!-- Pages: 1 -->
<svg width="583pt" height="733pt"
 viewBox="0.00 0.00 583.34 733.00" xmlns="http://www.w3.org/2000/svg" xmlns:xlink="http://www.w3.org/1999/xlink">
<g id="graph0" class="graph" transform="scale(1 1) rotate(0) translate(4 729)">
<polygon fill="white" stroke="none" points="-4,4 -4,-729 579.34,-729 579.34,4 -4,4"/>
<!-- active_modifiers -->
<g id="node1" class="node">
<title>active_modifiers</title>
<g id="a_node1"><a xlink:href="group__state.html#gaa856e0ad47b0aaa0240a5afe9963f835" target="_top" xlink:title="Active modifiers">
<ellipse fill="none" stroke="black" cx="331.34" cy="-707" rx="92.77" ry="18"/>
<text text-anchor="middle" x="331.34" y="-702.33" font-family="Times,serif" font-size="14.00">Active modifiers</text>
</a>
</g>
</g>
<!-- modifiers_filter -->
<g id="node2" class="node">
<title>modifiers_filter</title>
<path fill="none" stroke="black" d="M499.84,-653C499.84,-653 162.84,-653 162.84,-653 156.84,-653 150.84,-647 150.84,-641 150.84,-641 150.84,-629 150.84,-629 150.84,-623 156.84,-617 162.84,-617 162.84,-617 499.84,-617 499.84,-617 505.84,-617 511.84,-623 511.84,-629 511.84,-629 511.84,-641 511.84,-641 511.84,-647 505.84,-653 499.84,-653"/>
<text text-anchor="start" x="269.84" y="-636.7" font-family="Times,serif" font-weight="bold" font-size="14.00">Filter modifiers</text>
<text text-anchor="start" x="158.84" y="-622.7" font-family="Times,serif" font-size="14.00">Keep only meaningful modifiers for the key type</text>
</g>
<!-- active_modifiers&#45;&gt;modifiers_filter -->
<g id="edge1" class="edge">
<title>active_modifiers&#45;&gt;modifiers_filter</title>
<path fill="none" stroke="black" d="M331.34,-688.7C331.34,-681.41 331.34,-672.73 331.34,-664.54"/>
<polygon fill="black" stroke="black" points="334.84,-664.62 331.34,-654.62 327.84,-664.62 334.84,-664.62"/>
</g>
<!-- filtered_modifiers -->
<g id="node3" class="node">
<title>filtered_modifiers</title>
<ellipse fill="none" stroke="black" cx="247.34" cy="-520.5" rx="101.71" ry="18"/>
<text text-anchor="middle" x="247.34" y="-515.83" font-family="Times,serif" font-size="14.00">Filtered modifiers</text>
</g>
<!-- modifiers_filter&#45;&gt;filtered_modifiers -->
<g id="edge3" class="edge">
<title>modifiers_filter&#45;&gt;filtered_modifiers</title>
<path fill="none" stroke="black" d="M318.58,-616.91C304.89,-598.58 282.97,-569.22 267.06,-547.9"/>
<polygon fill="black" stroke="black" points="269.91,-545.88 261.12,-539.96 264.3,-550.07 269.91,-545.88"/>
</g>
<!-- level_match -->
<g id="node4" class="node">
<title>level_match</title>
<path fill="none" stroke="black" d="M563.34,-424C563.34,-424 331.34,-424 331.34,-424 325.34,-424 319.34,-418 319.34,-412 319.34,-412 319.34,-372 319.34,-372 319.34,-366 325.34,-360 331.34,-360 331.34,-360 563.34,-360 563.34,-360 569.34,-360 575.34,-366 575.34,-372 575.34,-372 575.34,-412 575.34,-412 575.34,-418 569.34,-424 563.34,-424"/>
<text text-anchor="start" x="327.34" y="-407.7" font-family="Times,serif" font-weight="bold" font-size="14.00">Lookup modifiers combination</text>
<text text-anchor="start" x="379.84" y="-393.7" font-family="Times,serif" font-size="14.00">Find the shift level</text>
<text text-anchor="start" x="334.09" y="-379.7" font-family="Times,serif" font-size="14.00">matching exactly the modifiers,</text>
<text text-anchor="start" x="349.84" y="-365.7" font-family="Times,serif" font-size="14.00">defaulting to the base level</text>
</g>
<!-- filtered_modifiers&#45;&gt;level_match -->
<g id="edge4" class="edge">
<title>filtered_modifiers&#45;&gt;level_match</title>
<path fill="none" stroke="black" d="M273.9,-502.7C302.89,-484.36 350.25,-454.41 388.16,-430.43"/>
<polygon fill="black" stroke="black" points="389.71,-433.59 396.29,-425.29 385.97,-427.67 389.71,-433.59"/>
</g>
<!-- consume_modifiers -->
<g id="node6" class="node">
<title>consume_modifiers</title>
<path fill="none" stroke="black" d="M288.84,-410C288.84,-410 143.84,-410 143.84,-410 137.84,-410 131.84,-404 131.84,-398 131.84,-398 131.84,-386 131.84,-386 131.84,-380 137.84,-374 143.84,-374 143.84,-374 288.84,-374 288.84,-374 294.84,-374 300.84,-380 300.84,-386 300.84,-386 300.84,-398 300.84,-398 300.84,-404 294.84,-410 288.84,-410"/>
<text text-anchor="start" x="139.84" y="-388.32" font-family="Times,serif" font-weight="bold" font-size="14.00">Consume modifiers</text>
</g>
<!-- filtered_modifiers&#45;&gt;consume_modifiers -->
<g id="edge12" class="edge">
<title>filtered_modifiers&#45;&gt;consume_modifiers</title>
<path fill="none" stroke="black" d="M243.1,-502.18C237.97,-481.26 229.28,-445.82 223.2,-421"/>
<polygon fill="black" stroke="black" points="226.68,-420.46 220.9,-411.58 219.88,-422.13 226.68,-420.46"/>
</g>
<!-- shift_level -->
<g id="node5" class="node">
<title>shift_level</title>
<g id="a_node5"><a xlink:href="keymap-text-format-v1-v2.html#level-def" target="_top" xlink:title="Shift level">
<ellipse fill="none" stroke="black" cx="464.34" cy="-306" rx="62.26" ry="18"/>
<text text-anchor="middle" x="464.34" y="-301.32" font-family="Times,serif" font-size="14.00">Shift level</text>
</a>
</g>
</g>
<!-- level_match&#45;&gt;shift_level -->
<g id="edge6" class="edge">
<title>level_match&#45;&gt;shift_level</title>
<path fill="none" stroke="black" d="M453.67,-359.72C455.28,-351.79 456.99,-343.32 458.57,-335.53"/>
<polygon fill="black" stroke="black" points="461.97,-336.38 460.52,-325.89 455.1,-335 461.97,-336.38"/>
</g>
<!-- symbols_table_lookup -->
<g id="node8" class="node">
<title>symbols_table_lookup</title>
<path fill="none" stroke="black" d="M560.97,-252C560.97,-252 401.72,-252 401.72,-252 395.72,-252 389.72,-246 389.72,-240 389.72,-240 389.72,-228 389.72,-228 389.72,-222 395.72,-216 401.72,-216 401.72,-216 560.97,-216 560.97,-216 566.97,-216 572.97,-222 572.97,-228 572.97,-228 572.97,-240 572.97,-240 572.97,-246 566.97,-252 560.97,-252"/>
<text text-anchor="start" x="397.72" y="-230.32" font-family="Times,serif" font-weight="bold" font-size="14.00">Symbols table lookup</text>
</g>
<!-- shift_level&#45;&gt;symbols_table_lookup -->
<g id="edge7" class="edge">
<title>shift_level&#45;&gt;symbols_table_lookup</title>
<path fill="none" stroke="black" d="M468.54,-287.7C470.33,-280.32 472.47,-271.52 474.48,-263.25"/>
<polygon fill="black" stroke="black" points="477.87,-264.12 476.83,-253.58 471.07,-262.47 477.87,-264.12"/>
</g>
<!-- consumed_modifiers -->
<g id="node7" class="node">
<title>consumed_modifiers</title>
<g id="a_node7"><a xlink:href="group__state.html" target="_top" xlink:title="Consumed modifiers">
<ellipse fill="none" stroke="black" cx="114.34" cy="-234" rx="114.34" ry="18"/>
<text text-anchor="middle" x="114.34" y="-229.32" font-family="Times,serif" font-size="14.00">Consumed modifiers</text>
</a>
</g>
</g>
<!-- consume_modifiers&#45;&gt;consumed_modifiers -->
<g id="edge14" class="edge">
<title>consume_modifiers&#45;&gt;consumed_modifiers</title>
<path fill="none" stroke="black" d="M205.04,-373.71C187.27,-346.53 152.68,-293.63 131.73,-261.59"/>
<polygon fill="black" stroke="black" points="134.93,-260.09 126.53,-253.64 129.07,-263.92 134.93,-260.09"/>
</g>
<!-- keysyms_transformations -->
<g id="node11" class="node">
<title>keysyms_transformations</title>
<g id="a_node11"><a xlink:href="group__keysyms.html" target="_top" xlink:title="&lt;b&gt;Keysyms transformations&lt;/b&gt;">
<path fill="none" stroke="black" d="M394.22,-108C394.22,-108 200.47,-108 200.47,-108 194.47,-108 188.47,-102 188.47,-96 188.47,-96 188.47,-84 188.47,-84 188.47,-78 194.47,-72 200.47,-72 200.47,-72 394.22,-72 394.22,-72 400.22,-72 406.22,-78 406.22,-84 406.22,-84 406.22,-96 406.22,-96 406.22,-102 400.22,-108 394.22,-108"/>
<text text-anchor="start" x="196.47" y="-86.33" font-family="Times,serif" font-weight="bold" font-size="14.00">Keysyms transformations</text>
</a>
</g>
</g>
<!-- consumed_modifiers&#45;&gt;keysyms_transformations -->
<g id="edge15" class="edge">
<title>consumed_modifiers&#45;&gt;keysyms_transformations</title>
<path fill="none" stroke="black" d="M136.42,-215.87C168.75,-190.78 229.16,-143.91 266.06,-115.27"/>
<polygon fill="black" stroke="black" points="267.95,-118.23 273.71,-109.34 263.66,-112.7 267.95,-118.23"/>
</g>
<!-- keysym_pre_transformation -->
<g id="node10" class="node">
<title>keysym_pre_transformation</title>
<ellipse fill="none" stroke="black" cx="414.34" cy="-162" rx="73.83" ry="18"/>
<text text-anchor="middle" x="414.34" y="-157.32" font-family="Times,serif" font-size="14.00">Raw keysym</text>
</g>
<!-- symbols_table_lookup&#45;&gt;keysym_pre_transformation -->
<g id="edge9" class="edge">
<title>symbols_table_lookup&#45;&gt;keysym_pre_transformation</title>
<path fill="none" stroke="black" d="M464.78,-215.7C456.71,-207.27 446.86,-196.97 438.01,-187.73"/>
<polygon fill="black" stroke="black" points="440.74,-185.52 431.3,-180.72 435.68,-190.36 440.74,-185.52"/>
</g>
<!-- symbols_table -->
<g id="node9" class="node">
<title>symbols_table</title>
<g id="a_node9"><a xlink:href="keymap-text-format-v1-v2.html#key-symbols-table" target="_top" xlink:title="&lt;b&gt;Symbols table&lt;/b&gt;">
<polygon fill="none" stroke="black" stroke-width="2" points="372.09,-252 246.59,-252 246.59,-216 372.09,-216 372.09,-252"/>
<text text-anchor="start" x="254.59" y="-230.32" font-family="Times,serif" font-weight="bold" font-size="14.00">Symbols table</text>
</a>
</g>
</g>
<!-- symbols_table&#45;&gt;symbols_table_lookup -->
<g id="edge8" class="edge">
<title>symbols_table&#45;&gt;symbols_table_lookup</title>
<path fill="none" stroke="black" d="M372.83,-234C374.56,-234 376.28,-234 378,-234"/>
<polygon fill="black" stroke="black" points="377.85,-237.5 387.85,-234 377.85,-230.5 377.85,-237.5"/>
</g>
<!-- keysym_pre_transformation&#45;&gt;keysyms_transformations -->
<g id="edge10" class="edge">
<title>keysym_pre_transformation&#45;&gt;keysyms_transformations</title>
<path fill="none" stroke="black" d="M387.5,-144.94C372.27,-135.83 352.95,-124.27 336.1,-114.19"/>
<polygon fill="black" stroke="black" points="338.19,-111.36 327.82,-109.23 334.6,-117.37 338.19,-111.36"/>
</g>
<!-- keysym_post_transformation -->
<g id="node12" class="node">
<title>keysym_post_transformation</title>
<ellipse fill="none" stroke="black" cx="297.34" cy="-18" rx="77.51" ry="18"/>
<text text-anchor="middle" x="297.34" y="-13.32" font-family="Times,serif" font-size="14.00">Final keysym</text>
</g>
<!-- keysyms_transformations&#45;&gt;keysym_post_transformation -->
<g id="edge11" class="edge">
<title>keysyms_transformations&#45;&gt;keysym_post_transformation</title>
<path fill="none" stroke="black" d="M297.34,-71.7C297.34,-64.41 297.34,-55.73 297.34,-47.54"/>
<polygon fill="black" stroke="black" points="300.84,-47.62 297.34,-37.62 293.84,-47.62 300.84,-47.62"/>
</g>
<!-- key_type -->
<g id="node13" class="node">
<title>key_type</title>
<g id="a_node13_0"><a xlink:href="keymap-text-format-v1-v2.html#the-xkb_types-section" target="_top" xlink:title="&lt;TABLE&gt;">
<polygon fill="none" stroke="black" points="376.59,-547.75 376.59,-575 454.09,-575 454.09,-547.75 376.59,-547.75"/>
<text text-anchor="start" x="381.59" y="-557.7" font-family="Times,serif" font-weight="bold" font-size="14.00">Key type</text>
</a>
</g>
<g id="a_node13_1"><a xlink:href="keymap-text-format-v1-v2.html#key-type-modifiers" target="_top" xlink:title="&lt;TABLE&gt;">
<polygon fill="none" stroke="black" points="376.59,-520.5 376.59,-547.75 454.09,-547.75 454.09,-520.5 376.59,-520.5"/>
<text text-anchor="start" x="381.59" y="-529.45" font-family="Times,serif" font-size="14.00">modifiers</text>
</a>
</g>
<g id="a_node13_2"><a xlink:href="keymap-text-format-v1-v2.html#key-type-map" target="_top" xlink:title="&lt;TABLE&gt;">
<polygon fill="none" stroke="black" points="376.59,-493.25 376.59,-520.5 454.09,-520.5 454.09,-493.25 376.59,-493.25"/>
<text text-anchor="start" x="399.97" y="-502.2" font-family="Times,serif" font-size="14.00">map</text>
</a>
</g>
<g id="a_node13_3"><a xlink:href="keymap-text-format-v1-v2.html#key-type-preserve" target="_top" xlink:title="&lt;TABLE&gt;">
<polygon fill="none" stroke="black" points="376.59,-466 376.59,-493.25 454.09,-493.25 454.09,-466 376.59,-466"/>
<text text-anchor="start" x="383.84" y="-474.95" font-family="Times,serif" font-size="14.00">preserve</text>
</a>
</g>
<polygon fill="black" stroke="black" points="374.59,-547.75 374.59,-547.75 456.09,-547.75 456.09,-547.75 374.59,-547.75"/>
<polygon fill="none" stroke="black" stroke-width="2" points="375.59,-465 375.59,-576 455.09,-576 455.09,-465 375.59,-465"/>
</g>
<!-- key_type&#45;&gt;modifiers_filter -->
<g id="edge2" class="edge">
<title>key_type:modifiers&#45;&gt;modifiers_filter</title>
<path fill="none" stroke="black" d="M375.59,-534.12C353.39,-534.12 367.23,-560.66 358.34,-581 354.66,-589.42 350.28,-598.39 346.12,-606.52"/>
<polygon fill="black" stroke="black" points="343.09,-604.76 341.57,-615.24 349.3,-607.99 343.09,-604.76"/>
</g>
<!-- key_type&#45;&gt;level_match -->
<g id="edge5" class="edge">
<title>key_type:map&#45;&gt;level_match</title>
<path fill="none" stroke="black" d="M455.09,-506.88C484.91,-506.88 476.99,-467.52 465.4,-435.09"/>
<polygon fill="black" stroke="black" points="468.72,-433.96 461.91,-425.83 462.17,-436.43 468.72,-433.96"/>
</g>
<!-- key_type&#45;&gt;consume_modifiers -->
<g id="edge13" class="edge">
<title>key_type:preserve&#45;&gt;consume_modifiers</title>
<path fill="none" stroke="black" d="M375.59,-479.62C363.98,-479.62 367.62,-466.98 358.34,-460 333.54,-441.33 302.7,-426.01 276.11,-414.76"/>
<polygon fill="black" stroke="black" points="277.75,-411.65 267.17,-411.07 275.08,-418.12 277.75,-411.65"/>
</g>
</g>
</svg>
