<?xml version="1.0" encoding="UTF-8" standalone="no"?>
<!DOCTYPE svg PUBLIC "-//W3C//DTD SVG 1.1//EN"
 "http://www.w3.org/Graphics/SVG/1.1/DTD/svg11.dtd">
<!-- Generated by graphviz version 12.2.1 (0)
 -->
<!-- Title: include/xkbcommon/xkbregistry.h Pages: 1 -->
<svg width="189pt" height="86pt"
 viewBox="0.00 0.00 189.00 85.50" xmlns="http://www.w3.org/2000/svg" xmlns:xlink="http://www.w3.org/1999/xlink">
<g id="graph0" class="graph" transform="scale(1 1) rotate(0) translate(4 81.5)">
<title>include/xkbcommon/xkbregistry.h</title>
<!-- Node1 -->
<g id="Node000001" class="node">
<title>Node1</title>
<g id="a_Node000001"><a xlink:title="Query for available RMLVO.">
<polygon fill="#999999" stroke="#666666" points="181,-77.5 0,-77.5 0,-56.75 181,-56.75 181,-77.5"/>
<text text-anchor="middle" x="90.5" y="-64" font-family="Helvetica,sans-Serif" font-size="10.00">include/xkbcommon/xkbregistry.h</text>
</a>
</g>
</g>
<!-- Node2 -->
<g id="Node000002" class="node">
<title>Node2</title>
<g id="a_Node000002"><a xlink:title=" ">
<polygon fill="#e0e0e0" stroke="#999999" points="80.38,-20.75 24.62,-20.75 24.62,0 80.38,0 80.38,-20.75"/>
<text text-anchor="middle" x="52.5" y="-7.25" font-family="Helvetica,sans-Serif" font-size="10.00">stdarg.h</text>
</a>
</g>
</g>
<!-- Node1&#45;&gt;Node2 -->
<g id="edge1_Node000001_Node000002" class="edge">
<title>Node1&#45;&gt;Node2</title>
<g id="a_edge1_Node000001_Node000002"><a xlink:title=" ">
<path fill="none" stroke="#63b8ff" d="M83.71,-56.34C78.73,-49.17 71.83,-39.23 65.78,-30.51"/>
<polygon fill="#63b8ff" stroke="#63b8ff" points="68.68,-28.54 60.1,-22.32 62.92,-32.53 68.68,-28.54"/>
</a>
</g>
</g>
<!-- Node3 -->
<g id="Node000003" class="node">
<title>Node3</title>
<g id="a_Node000003"><a xlink:title=" ">
<polygon fill="#e0e0e0" stroke="#999999" points="159,-20.75 98,-20.75 98,0 159,0 159,-20.75"/>
<text text-anchor="middle" x="128.5" y="-7.25" font-family="Helvetica,sans-Serif" font-size="10.00">stdbool.h</text>
</a>
</g>
</g>
<!-- Node1&#45;&gt;Node3 -->
<g id="edge2_Node000001_Node000003" class="edge">
<title>Node1&#45;&gt;Node3</title>
<g id="a_edge2_Node000001_Node000003"><a xlink:title=" ">
<path fill="none" stroke="#63b8ff" d="M97.29,-56.34C102.27,-49.17 109.17,-39.23 115.22,-30.51"/>
<polygon fill="#63b8ff" stroke="#63b8ff" points="118.08,-32.53 120.9,-22.32 112.32,-28.54 118.08,-32.53"/>
</a>
</g>
</g>
</g>
</svg>
