<?xml version="1.0" encoding="UTF-8" standalone="no"?>
<!DOCTYPE svg PUBLIC "-//W3C//DTD SVG 1.1//EN"
 "http://www.w3.org/Graphics/SVG/1.1/DTD/svg11.dtd">
<!-- Generated by graphviz version 9.0.0 (0)
 -->
<!-- Title: include/xkbcommon/xkbcommon&#45;x11.h Pages: 1 -->
<svg width="678pt" height="168pt"
 viewBox="0.00 0.00 677.62 167.75" xmlns="http://www.w3.org/2000/svg" xmlns:xlink="http://www.w3.org/1999/xlink">
<g id="graph0" class="graph" transform="scale(1 1) rotate(0) translate(4 163.75)">
<title>include/xkbcommon/xkbcommon&#45;x11.h</title>
<!-- Node1 -->
<g id="Node000001" class="node">
<title>Node1</title>
<g id="a_Node000001"><a xlink:title="libxkbcommon&#45;x11 API &#45; Additional X11 support for xkbcommon.">
<polygon fill="#999999" stroke="#666666" points="250.75,-159.75 72,-159.75 72,-126.25 250.75,-126.25 250.75,-159.75"/>
<text text-anchor="start" x="80" y="-146.25" font-family="Helvetica,sans-Serif" font-size="10.00">include/xkbcommon/xkbcommon</text>
<text text-anchor="middle" x="161.38" y="-133.5" font-family="Helvetica,sans-Serif" font-size="10.00">&#45;x11.h</text>
</a>
</g>
</g>
<!-- Node2 -->
<g id="Node000002" class="node">
<title>Node2</title>
<g id="a_Node000002"><a xlink:title=" ">
<polygon fill="#e0e0e0" stroke="#999999" points="130.62,-90.25 68.12,-90.25 68.12,-69.5 130.62,-69.5 130.62,-90.25"/>
<text text-anchor="middle" x="99.38" y="-76.75" font-family="Helvetica,sans-Serif" font-size="10.00">xcb/xcb.h</text>
</a>
</g>
</g>
<!-- Node1&#45;&gt;Node2 -->
<g id="edge1_Node000001_Node000002" class="edge">
<title>Node1&#45;&gt;Node2</title>
<g id="a_edge1_Node000001_Node000002"><a xlink:title=" ">
<path fill="none" stroke="#63b8ff" d="M145.09,-125.94C136.58,-117.56 126.16,-107.28 117.41,-98.66"/>
<polygon fill="#63b8ff" stroke="#63b8ff" points="120.01,-96.31 110.44,-91.78 115.1,-101.29 120.01,-96.31"/>
</a>
</g>
</g>
<!-- Node3 -->
<g id="Node000003" class="node">
<title>Node3</title>
<g id="a_Node000003"><a xlink:href="xkbcommon_8h.html" target="_top" xlink:title="Main libxkbcommon API.">
<polygon fill="white" stroke="#666666" points="298.12,-90.25 148.62,-90.25 148.62,-69.5 298.12,-69.5 298.12,-90.25"/>
<text text-anchor="middle" x="223.38" y="-76.75" font-family="Helvetica,sans-Serif" font-size="10.00">xkbcommon/xkbcommon.h</text>
</a>
</g>
</g>
<!-- Node1&#45;&gt;Node3 -->
<g id="edge2_Node000001_Node000003" class="edge">
<title>Node1&#45;&gt;Node3</title>
<g id="a_edge2_Node000001_Node000003"><a xlink:title=" ">
<path fill="none" stroke="#63b8ff" d="M177.66,-125.94C186.17,-117.56 196.59,-107.28 205.34,-98.66"/>
<polygon fill="#63b8ff" stroke="#63b8ff" points="207.65,-101.29 212.31,-91.78 202.74,-96.31 207.65,-101.29"/>
</a>
</g>
</g>
<!-- Node4 -->
<g id="Node000004" class="node">
<title>Node4</title>
<g id="a_Node000004"><a xlink:title=" ">
<polygon fill="#e0e0e0" stroke="#999999" points="52.75,-27.12 0,-27.12 0,-6.38 52.75,-6.38 52.75,-27.12"/>
<text text-anchor="middle" x="26.38" y="-13.62" font-family="Helvetica,sans-Serif" font-size="10.00">stdint.h</text>
</a>
</g>
</g>
<!-- Node3&#45;&gt;Node4 -->
<g id="edge3_Node000003_Node000004" class="edge">
<title>Node3&#45;&gt;Node4</title>
<g id="a_edge3_Node000003_Node000004"><a xlink:title=" ">
<path fill="none" stroke="#63b8ff" d="M181.89,-69.08C148.84,-60.84 101.6,-48.09 61.38,-33.5 60.04,-33.01 58.68,-32.5 57.31,-31.97"/>
<polygon fill="#63b8ff" stroke="#63b8ff" points="58.86,-28.82 48.29,-28.18 56.16,-35.28 58.86,-28.82"/>
</a>
</g>
</g>
<!-- Node5 -->
<g id="Node000005" class="node">
<title>Node5</title>
<g id="a_Node000005"><a xlink:title=" ">
<polygon fill="#e0e0e0" stroke="#999999" points="119.88,-27.12 70.88,-27.12 70.88,-6.38 119.88,-6.38 119.88,-27.12"/>
<text text-anchor="middle" x="95.38" y="-13.62" font-family="Helvetica,sans-Serif" font-size="10.00">stdio.h</text>
</a>
</g>
</g>
<!-- Node3&#45;&gt;Node5 -->
<g id="edge4_Node000003_Node000005" class="edge">
<title>Node3&#45;&gt;Node5</title>
<g id="a_edge4_Node000003_Node000005"><a xlink:title=" ">
<path fill="none" stroke="#63b8ff" d="M202.81,-69.05C182.1,-59.16 149.89,-43.78 126.14,-32.44"/>
<polygon fill="#63b8ff" stroke="#63b8ff" points="127.79,-29.35 117.26,-28.2 124.77,-35.67 127.79,-29.35"/>
</a>
</g>
</g>
<!-- Node6 -->
<g id="Node000006" class="node">
<title>Node6</title>
<g id="a_Node000006"><a xlink:title=" ">
<polygon fill="#e0e0e0" stroke="#999999" points="193.25,-27.12 137.5,-27.12 137.5,-6.38 193.25,-6.38 193.25,-27.12"/>
<text text-anchor="middle" x="165.38" y="-13.62" font-family="Helvetica,sans-Serif" font-size="10.00">stdarg.h</text>
</a>
</g>
</g>
<!-- Node3&#45;&gt;Node6 -->
<g id="edge5_Node000003_Node000006" class="edge">
<title>Node3&#45;&gt;Node6</title>
<g id="a_edge5_Node000003_Node000006"><a xlink:title=" ">
<path fill="none" stroke="#63b8ff" d="M214.06,-69.05C205.47,-60 192.51,-46.35 182.13,-35.4"/>
<polygon fill="#63b8ff" stroke="#63b8ff" points="184.94,-33.29 175.52,-28.44 179.87,-38.11 184.94,-33.29"/>
</a>
</g>
</g>
<!-- Node7 -->
<g id="Node000007" class="node">
<title>Node7</title>
<g id="a_Node000007"><a xlink:href="xkbcommon-names_8h.html" target="_top" xlink:title="Predefined names for common modifiers and LEDs.">
<polygon fill="white" stroke="#666666" points="351.62,-33.5 211.12,-33.5 211.12,0 351.62,0 351.62,-33.5"/>
<text text-anchor="start" x="219.12" y="-20" font-family="Helvetica,sans-Serif" font-size="10.00">xkbcommon/xkbcommon</text>
<text text-anchor="middle" x="281.38" y="-7.25" font-family="Helvetica,sans-Serif" font-size="10.00">&#45;names.h</text>
</a>
</g>
</g>
<!-- Node3&#45;&gt;Node7 -->
<g id="edge6_Node000003_Node000007" class="edge">
<title>Node3&#45;&gt;Node7</title>
<g id="a_edge6_Node000003_Node000007"><a xlink:title=" ">
<path fill="none" stroke="#63b8ff" d="M232.69,-69.05C239.56,-61.82 249.21,-51.65 258.11,-42.27"/>
<polygon fill="#63b8ff" stroke="#63b8ff" points="260.58,-44.75 264.93,-35.08 255.51,-39.93 260.58,-44.75"/>
</a>
</g>
</g>
<!-- Node8 -->
<g id="Node000008" class="node">
<title>Node8</title>
<g id="a_Node000008"><a xlink:href="xkbcommon-keysyms_8h.html" target="_top" xlink:title="Key symbols (keysyms) definitions.">
<polygon fill="white" stroke="#666666" points="510.62,-33.5 370.12,-33.5 370.12,0 510.62,0 510.62,-33.5"/>
<text text-anchor="start" x="378.12" y="-20" font-family="Helvetica,sans-Serif" font-size="10.00">xkbcommon/xkbcommon</text>
<text text-anchor="middle" x="440.38" y="-7.25" font-family="Helvetica,sans-Serif" font-size="10.00">&#45;keysyms.h</text>
</a>
</g>
</g>
<!-- Node3&#45;&gt;Node8 -->
<g id="edge7_Node000003_Node000008" class="edge">
<title>Node3&#45;&gt;Node8</title>
<g id="a_edge7_Node000003_Node000008"><a xlink:title=" ">
<path fill="none" stroke="#63b8ff" d="M258.24,-69.05C288.77,-60.45 334.03,-47.7 371.8,-37.07"/>
<polygon fill="#63b8ff" stroke="#63b8ff" points="372.61,-40.48 381.28,-34.4 370.71,-33.74 372.61,-40.48"/>
</a>
</g>
</g>
<!-- Node9 -->
<g id="Node000009" class="node">
<title>Node9</title>
<g id="a_Node000009"><a xlink:title=" ">
<polygon fill="#e0e0e0" stroke="#999999" points="669.62,-33.5 529.12,-33.5 529.12,0 669.62,0 669.62,-33.5"/>
<text text-anchor="start" x="537.12" y="-20" font-family="Helvetica,sans-Serif" font-size="10.00">xkbcommon/xkbcommon</text>
<text text-anchor="middle" x="599.38" y="-7.25" font-family="Helvetica,sans-Serif" font-size="10.00">&#45;compat.h</text>
</a>
</g>
</g>
<!-- Node3&#45;&gt;Node9 -->
<g id="edge8_Node000003_Node000009" class="edge">
<title>Node3&#45;&gt;Node9</title>
<g id="a_edge8_Node000003_Node000009"><a xlink:title=" ">
<path fill="none" stroke="#63b8ff" d="M293.19,-69.02C350.67,-60.72 434.59,-48.15 517.57,-33.77"/>
<polygon fill="#63b8ff" stroke="#63b8ff" points="517.99,-37.25 527.24,-32.09 516.79,-30.35 517.99,-37.25"/>
</a>
</g>
</g>
</g>
</svg>
