<?xml version="1.0" encoding="UTF-8" standalone="no"?>
<!DOCTYPE svg PUBLIC "-//W3C//DTD SVG 1.1//EN"
 "http://www.w3.org/Graphics/SVG/1.1/DTD/svg11.dtd">
<!-- Generated by graphviz version 9.0.0 (0)
 -->
<!-- Title: include/xkbcommon/xkbcommon&#45;keysyms.h Pages: 1 -->
<svg width="384pt" height="168pt"
 viewBox="0.00 0.00 383.75 167.75" xmlns="http://www.w3.org/2000/svg" xmlns:xlink="http://www.w3.org/1999/xlink">
<g id="graph0" class="graph" transform="scale(1 1) rotate(0) translate(4 163.75)">
<title>include/xkbcommon/xkbcommon&#45;keysyms.h</title>
<!-- Node1 -->
<g id="Node000001" class="node">
<title>Node1</title>
<g id="a_Node000001"><a xlink:title="Key symbols (keysyms) definitions.">
<polygon fill="#999999" stroke="#666666" points="276.75,-159.75 98,-159.75 98,-126.25 276.75,-126.25 276.75,-159.75"/>
<text text-anchor="start" x="106" y="-146.25" font-family="Helvetica,sans-Serif" font-size="10.00">include/xkbcommon/xkbcommon</text>
<text text-anchor="middle" x="187.38" y="-133.5" font-family="Helvetica,sans-Serif" font-size="10.00">&#45;keysyms.h</text>
</a>
</g>
</g>
<!-- Node2 -->
<g id="Node000002" class="node">
<title>Node2</title>
<g id="a_Node000002"><a xlink:href="xkbcommon_8h.html" target="_top" xlink:title="Main libxkbcommon API.">
<polygon fill="white" stroke="#666666" points="281.25,-90.25 93.5,-90.25 93.5,-69.5 281.25,-69.5 281.25,-90.25"/>
<text text-anchor="middle" x="187.38" y="-76.75" font-family="Helvetica,sans-Serif" font-size="10.00">include/xkbcommon/xkbcommon.h</text>
</a>
</g>
</g>
<!-- Node1&#45;&gt;Node2 -->
<g id="edge1_Node000001_Node000002" class="edge">
<title>Node1&#45;&gt;Node2</title>
<g id="a_edge1_Node000001_Node000002"><a xlink:title=" ">
<path fill="none" stroke="#63b8ff" d="M187.38,-114.44C187.38,-105.96 187.38,-97.17 187.38,-90.72"/>
<polygon fill="#63b8ff" stroke="#63b8ff" points="183.88,-114.43 187.38,-124.43 190.88,-114.43 183.88,-114.43"/>
</a>
</g>
</g>
<!-- Node3 -->
<g id="Node000003" class="node">
<title>Node3</title>
<g id="a_Node000003"><a xlink:href="xkbcommon-compose_8h.html" target="_top" xlink:title="libxkbcommon Compose API &#45; support for Compose and dead&#45;keys.">
<polygon fill="white" stroke="#666666" points="178.75,-33.5 0,-33.5 0,0 178.75,0 178.75,-33.5"/>
<text text-anchor="start" x="8" y="-20" font-family="Helvetica,sans-Serif" font-size="10.00">include/xkbcommon/xkbcommon</text>
<text text-anchor="middle" x="89.38" y="-7.25" font-family="Helvetica,sans-Serif" font-size="10.00">&#45;compose.h</text>
</a>
</g>
</g>
<!-- Node2&#45;&gt;Node3 -->
<g id="edge2_Node000002_Node000003" class="edge">
<title>Node2&#45;&gt;Node3</title>
<g id="a_edge2_Node000002_Node000003"><a xlink:title=" ">
<path fill="none" stroke="#63b8ff" d="M161.93,-63.01C147.63,-54.08 129.8,-42.97 115.4,-33.98"/>
<polygon fill="#63b8ff" stroke="#63b8ff" points="160.01,-65.93 170.35,-68.25 163.71,-59.99 160.01,-65.93"/>
</a>
</g>
</g>
<!-- Node4 -->
<g id="Node000004" class="node">
<title>Node4</title>
<g id="a_Node000004"><a xlink:href="xkbcommon-x11_8h.html" target="_top" xlink:title="libxkbcommon&#45;x11 API &#45; Additional X11 support for xkbcommon.">
<polygon fill="white" stroke="#666666" points="375.75,-33.5 197,-33.5 197,0 375.75,0 375.75,-33.5"/>
<text text-anchor="start" x="205" y="-20" font-family="Helvetica,sans-Serif" font-size="10.00">include/xkbcommon/xkbcommon</text>
<text text-anchor="middle" x="286.38" y="-7.25" font-family="Helvetica,sans-Serif" font-size="10.00">&#45;x11.h</text>
</a>
</g>
</g>
<!-- Node2&#45;&gt;Node4 -->
<g id="edge3_Node000002_Node000004" class="edge">
<title>Node2&#45;&gt;Node4</title>
<g id="a_edge3_Node000002_Node000004"><a xlink:title=" ">
<path fill="none" stroke="#63b8ff" d="M213.08,-63.01C227.53,-54.08 245.53,-42.97 260.08,-33.98"/>
<polygon fill="#63b8ff" stroke="#63b8ff" points="211.24,-60.03 204.57,-68.26 214.92,-65.98 211.24,-60.03"/>
</a>
</g>
</g>
</g>
</svg>
